G75*
G70*
%OFA0B0*%
%FSLAX24Y24*%
%IPPOS*%
%LPD*%
%AMOC8*
5,1,8,0,0,1.08239X$1,22.5*
%
%ADD10C,0.0070*%
%ADD11C,0.0060*%
%ADD12C,0.0100*%
%ADD13C,0.0120*%
%ADD14C,0.0080*%
%ADD15C,0.0050*%
%ADD16C,0.0000*%
%ADD17C,0.0072*%
D10*
X001504Y001381D02*
X001582Y001381D01*
X001659Y001459D01*
X001659Y001537D01*
X001504Y001692D02*
X001426Y001692D01*
X001348Y001615D01*
X001348Y001537D01*
X001504Y001381D01*
X002077Y001433D02*
X002132Y001378D01*
X002353Y001378D01*
X002408Y001433D01*
X002408Y001543D01*
X002353Y001598D01*
X002243Y001598D01*
X002243Y001488D01*
X002132Y001598D02*
X002077Y001543D01*
X002077Y001433D01*
X002677Y001433D02*
X002732Y001378D01*
X002953Y001378D01*
X003008Y001433D01*
X003008Y001543D01*
X002953Y001598D01*
X002843Y001598D01*
X002843Y001488D01*
X002732Y001598D02*
X002677Y001543D01*
X002677Y001433D01*
X003677Y001433D02*
X003732Y001378D01*
X003953Y001378D01*
X004008Y001433D01*
X004008Y001543D01*
X003953Y001598D01*
X003843Y001598D01*
X003843Y001488D01*
X003732Y001598D02*
X003677Y001543D01*
X003677Y001433D01*
X004677Y001378D02*
X004898Y001378D01*
X005008Y001488D01*
X004898Y001598D01*
X004677Y001598D01*
X004677Y001746D02*
X004677Y001911D01*
X004732Y001966D01*
X004843Y001966D01*
X004898Y001911D01*
X004898Y001746D01*
X005008Y001746D02*
X004677Y001746D01*
X004008Y001801D02*
X004008Y001911D01*
X003953Y001966D01*
X003898Y001966D01*
X003843Y001911D01*
X003843Y001801D01*
X003788Y001746D01*
X003732Y001746D01*
X003677Y001801D01*
X003677Y001911D01*
X003732Y001966D01*
X003788Y001966D01*
X003843Y001911D01*
X003843Y001801D02*
X003898Y001746D01*
X003953Y001746D01*
X004008Y001801D01*
X004677Y002114D02*
X004677Y002279D01*
X004732Y002334D01*
X004843Y002334D01*
X004898Y002279D01*
X004898Y002114D01*
X005008Y002114D02*
X004677Y002114D01*
X005677Y001911D02*
X005677Y001801D01*
X005732Y001746D01*
X005788Y001746D01*
X005843Y001801D01*
X005843Y001966D01*
X005953Y001966D02*
X005732Y001966D01*
X005677Y001911D01*
X005953Y001966D02*
X006008Y001911D01*
X006008Y001801D01*
X005953Y001746D01*
X005953Y001598D02*
X005843Y001598D01*
X005843Y001488D01*
X005953Y001598D02*
X006008Y001543D01*
X006008Y001433D01*
X005953Y001378D01*
X005732Y001378D01*
X005677Y001433D01*
X005677Y001543D01*
X005732Y001598D01*
X006677Y001488D02*
X006788Y001378D01*
X007008Y001378D01*
X006843Y001378D02*
X006843Y001598D01*
X006788Y001598D02*
X007008Y001598D01*
X006788Y001598D02*
X006677Y001488D01*
X007677Y001598D02*
X007677Y001378D01*
X008008Y001378D01*
X008008Y001598D01*
X007843Y001488D02*
X007843Y001378D01*
X008677Y001378D02*
X008677Y001598D01*
X008843Y001488D02*
X008843Y001378D01*
X009008Y001378D02*
X009008Y001598D01*
X009677Y001543D02*
X009732Y001598D01*
X009788Y001598D01*
X009843Y001543D01*
X009843Y001378D01*
X010008Y001378D02*
X010008Y001543D01*
X009953Y001598D01*
X009898Y001598D01*
X009843Y001543D01*
X009677Y001543D02*
X009677Y001378D01*
X010008Y001378D01*
X010677Y001378D02*
X010677Y001543D01*
X010732Y001598D01*
X010788Y001598D01*
X010843Y001543D01*
X010843Y001378D01*
X011008Y001378D02*
X011008Y001543D01*
X010953Y001598D01*
X010898Y001598D01*
X010843Y001543D01*
X010843Y001746D02*
X010843Y001966D01*
X011008Y001911D02*
X010677Y001911D01*
X010843Y001746D01*
X011677Y001801D02*
X011677Y001911D01*
X011732Y001966D01*
X011788Y001966D01*
X011843Y001911D01*
X011898Y001966D01*
X011953Y001966D01*
X012008Y001911D01*
X012008Y001801D01*
X011953Y001746D01*
X011843Y001856D02*
X011843Y001911D01*
X011732Y001746D02*
X011677Y001801D01*
X011732Y001598D02*
X011788Y001598D01*
X011843Y001543D01*
X011843Y001378D01*
X012008Y001378D02*
X011677Y001378D01*
X011677Y001543D01*
X011732Y001598D01*
X011843Y001543D02*
X011898Y001598D01*
X011953Y001598D01*
X012008Y001543D01*
X012008Y001378D01*
X012677Y001488D02*
X012788Y001598D01*
X013008Y001598D01*
X012843Y001598D02*
X012843Y001378D01*
X012788Y001378D02*
X013008Y001378D01*
X012788Y001378D02*
X012677Y001488D01*
X013677Y001488D02*
X013788Y001598D01*
X014008Y001598D01*
X013843Y001598D02*
X013843Y001378D01*
X013788Y001378D02*
X013677Y001488D01*
X013788Y001378D02*
X014008Y001378D01*
X014677Y001378D02*
X014677Y001543D01*
X014732Y001598D01*
X014788Y001598D01*
X014843Y001543D01*
X014843Y001378D01*
X015008Y001378D02*
X015008Y001543D01*
X014953Y001598D01*
X014898Y001598D01*
X014843Y001543D01*
X014898Y001746D02*
X014843Y001801D01*
X014843Y001911D01*
X014898Y001966D01*
X014953Y001966D01*
X015008Y001911D01*
X015008Y001801D01*
X014953Y001746D01*
X014898Y001746D01*
X014843Y001801D02*
X014788Y001746D01*
X014732Y001746D01*
X014677Y001801D01*
X014677Y001911D01*
X014732Y001966D01*
X014788Y001966D01*
X014843Y001911D01*
X015677Y001911D02*
X015677Y001801D01*
X015732Y001746D01*
X015788Y001746D01*
X015843Y001801D01*
X015843Y001966D01*
X015953Y001966D02*
X015732Y001966D01*
X015677Y001911D01*
X015953Y001966D02*
X016008Y001911D01*
X016008Y001801D01*
X015953Y001746D01*
X016677Y001856D02*
X017008Y001856D01*
X017008Y001746D02*
X017008Y001966D01*
X016953Y002114D02*
X016732Y002114D01*
X016677Y002169D01*
X016677Y002279D01*
X016732Y002334D01*
X016953Y002114D01*
X017008Y002169D01*
X017008Y002279D01*
X016953Y002334D01*
X016732Y002334D01*
X016677Y001856D02*
X016788Y001746D01*
X016788Y001598D02*
X016843Y001543D01*
X016843Y001378D01*
X017008Y001378D02*
X017008Y001543D01*
X016953Y001598D01*
X016898Y001598D01*
X016843Y001543D01*
X016788Y001598D02*
X016732Y001598D01*
X016677Y001543D01*
X016677Y001378D01*
X017008Y001378D01*
X016008Y001378D02*
X016008Y001543D01*
X015953Y001598D01*
X015898Y001598D01*
X015843Y001543D01*
X015843Y001378D01*
X016008Y001378D02*
X015677Y001378D01*
X015677Y001543D01*
X015732Y001598D01*
X015788Y001598D01*
X015843Y001543D01*
X015008Y001378D02*
X014677Y001378D01*
X014008Y001746D02*
X014008Y001966D01*
X014008Y001856D02*
X013677Y001856D01*
X013788Y001746D01*
X013008Y001801D02*
X013008Y001911D01*
X012953Y001966D01*
X012732Y001966D01*
X012677Y001911D01*
X012677Y001801D01*
X012732Y001746D01*
X012788Y001746D01*
X012843Y001801D01*
X012843Y001966D01*
X013008Y001801D02*
X012953Y001746D01*
X013677Y002169D02*
X013732Y002114D01*
X013953Y002114D01*
X013732Y002334D01*
X013953Y002334D01*
X014008Y002279D01*
X014008Y002169D01*
X013953Y002114D01*
X013677Y002169D02*
X013677Y002279D01*
X013732Y002334D01*
X013057Y002278D02*
X012837Y002278D01*
X013057Y002498D01*
X013057Y002553D01*
X013002Y002608D01*
X012892Y002608D01*
X012837Y002553D01*
X012689Y002553D02*
X012634Y002608D01*
X012524Y002608D01*
X012469Y002553D01*
X012579Y002443D02*
X012634Y002443D01*
X012689Y002388D01*
X012689Y002333D01*
X012634Y002278D01*
X012524Y002278D01*
X012469Y002333D01*
X012320Y002278D02*
X012210Y002388D01*
X012100Y002278D01*
X012100Y002608D01*
X011952Y002553D02*
X011952Y002498D01*
X011897Y002443D01*
X011732Y002443D01*
X011732Y002278D02*
X011732Y002608D01*
X011897Y002608D01*
X011952Y002553D01*
X011897Y002443D02*
X011952Y002388D01*
X011952Y002333D01*
X011897Y002278D01*
X011732Y002278D01*
X011584Y002333D02*
X011584Y002608D01*
X011364Y002608D02*
X011364Y002333D01*
X011419Y002278D01*
X011529Y002278D01*
X011584Y002333D01*
X012320Y002278D02*
X012320Y002608D01*
X012634Y002443D02*
X012689Y002498D01*
X012689Y002553D01*
X012258Y002878D02*
X011927Y002878D01*
X011927Y003043D01*
X011982Y003098D01*
X012093Y003098D01*
X012148Y003043D01*
X012148Y002878D01*
X011215Y002608D02*
X010995Y002278D01*
X010847Y002278D02*
X010847Y002443D01*
X010792Y002498D01*
X010737Y002443D01*
X010737Y002278D01*
X010627Y002278D02*
X010627Y002498D01*
X010682Y002498D01*
X010737Y002443D01*
X010479Y002443D02*
X010479Y002333D01*
X010424Y002278D01*
X010314Y002278D01*
X010259Y002333D01*
X010259Y002443D01*
X010314Y002498D01*
X010424Y002498D01*
X010479Y002443D01*
X010111Y002498D02*
X009945Y002498D01*
X009890Y002443D01*
X009890Y002333D01*
X009945Y002278D01*
X010111Y002278D01*
X009761Y002278D02*
X009706Y002278D01*
X009706Y002333D01*
X009761Y002333D01*
X009761Y002278D01*
X009558Y002333D02*
X009503Y002388D01*
X009393Y002388D01*
X009338Y002443D01*
X009393Y002498D01*
X009558Y002498D01*
X009190Y002498D02*
X009190Y002278D01*
X009025Y002278D01*
X008970Y002333D01*
X008970Y002498D01*
X008821Y002443D02*
X008821Y002278D01*
X008656Y002278D01*
X008601Y002333D01*
X008656Y002388D01*
X008821Y002388D01*
X008821Y002443D02*
X008766Y002498D01*
X008656Y002498D01*
X008453Y002443D02*
X008398Y002498D01*
X008288Y002498D01*
X008233Y002443D01*
X008085Y002498D02*
X007865Y002278D01*
X008085Y002278D01*
X008233Y002278D02*
X008233Y002608D01*
X008085Y002498D02*
X007865Y002498D01*
X007674Y002608D02*
X007674Y002278D01*
X007619Y002278D02*
X007729Y002278D01*
X007471Y002278D02*
X007471Y002443D01*
X007416Y002498D01*
X007306Y002498D01*
X007306Y002388D02*
X007471Y002388D01*
X007471Y002278D02*
X007306Y002278D01*
X007251Y002333D01*
X007306Y002388D01*
X007103Y002443D02*
X007103Y002278D01*
X006993Y002278D02*
X006993Y002443D01*
X007048Y002498D01*
X007103Y002443D01*
X006993Y002443D02*
X006938Y002498D01*
X006883Y002498D01*
X006883Y002278D01*
X006734Y002278D02*
X006734Y002443D01*
X006679Y002498D01*
X006569Y002498D01*
X006514Y002443D01*
X006366Y002498D02*
X006201Y002498D01*
X006146Y002443D01*
X006146Y002333D01*
X006201Y002278D01*
X006366Y002278D01*
X006514Y002278D02*
X006514Y002608D01*
X005998Y002498D02*
X005833Y002498D01*
X005778Y002443D01*
X005833Y002388D01*
X005943Y002388D01*
X005998Y002333D01*
X005943Y002278D01*
X005778Y002278D01*
X006677Y001911D02*
X006732Y001966D01*
X006953Y001746D01*
X007008Y001801D01*
X007008Y001911D01*
X006953Y001966D01*
X006732Y001966D01*
X006677Y001911D02*
X006677Y001801D01*
X006732Y001746D01*
X006953Y001746D01*
X007677Y001801D02*
X007677Y001911D01*
X007732Y001966D01*
X007788Y001966D01*
X007843Y001911D01*
X007843Y001801D01*
X007788Y001746D01*
X007732Y001746D01*
X007677Y001801D01*
X007843Y001801D02*
X007898Y001746D01*
X007953Y001746D01*
X008008Y001801D01*
X008008Y001911D01*
X007953Y001966D01*
X007898Y001966D01*
X007843Y001911D01*
X008677Y001911D02*
X008677Y001801D01*
X008732Y001746D01*
X008788Y001746D01*
X008843Y001801D01*
X008843Y001966D01*
X008953Y001966D02*
X008732Y001966D01*
X008677Y001911D01*
X008953Y001966D02*
X009008Y001911D01*
X009008Y001801D01*
X008953Y001746D01*
X009677Y001746D02*
X009843Y001746D01*
X009788Y001856D01*
X009788Y001911D01*
X009843Y001966D01*
X009953Y001966D01*
X010008Y001911D01*
X010008Y001801D01*
X009953Y001746D01*
X009677Y001746D02*
X009677Y001966D01*
X009503Y002278D02*
X009558Y002333D01*
X009503Y002278D02*
X009338Y002278D01*
X008453Y002278D02*
X008453Y002443D01*
X007674Y002608D02*
X007619Y002608D01*
X007758Y002778D02*
X007427Y002778D01*
X007758Y002778D02*
X007758Y002998D01*
X007758Y003146D02*
X007427Y003146D01*
X007427Y003366D01*
X007427Y003514D02*
X007427Y003679D01*
X007482Y003734D01*
X007703Y003734D01*
X007758Y003679D01*
X007758Y003514D01*
X007427Y003514D01*
X007758Y003366D02*
X007758Y003146D01*
X007593Y003146D02*
X007593Y003256D01*
X008927Y003146D02*
X009258Y003146D01*
X009258Y003366D01*
X009258Y003514D02*
X009258Y003679D01*
X009203Y003734D01*
X008982Y003734D01*
X008927Y003679D01*
X008927Y003514D01*
X009258Y003514D01*
X008927Y003366D02*
X008927Y003146D01*
X009093Y003146D02*
X009093Y003256D01*
X009258Y002998D02*
X009258Y002778D01*
X008927Y002778D01*
X010427Y002778D02*
X010758Y002778D01*
X010758Y002998D01*
X010758Y003146D02*
X010427Y003146D01*
X010427Y003366D01*
X010427Y003514D02*
X010427Y003679D01*
X010482Y003734D01*
X010703Y003734D01*
X010758Y003679D01*
X010758Y003514D01*
X010427Y003514D01*
X010758Y003366D02*
X010758Y003146D01*
X010593Y003146D02*
X010593Y003256D01*
X011927Y003246D02*
X012258Y003246D01*
X012148Y003356D01*
X012258Y003466D01*
X011927Y003466D01*
X011927Y003614D02*
X011927Y003779D01*
X011982Y003834D01*
X012093Y003834D01*
X012148Y003779D01*
X012148Y003614D01*
X012258Y003614D02*
X011927Y003614D01*
X012148Y003724D02*
X012258Y003834D01*
X010758Y003938D02*
X010703Y003883D01*
X010758Y003938D02*
X010758Y004048D01*
X010703Y004103D01*
X010648Y004103D01*
X010593Y004048D01*
X010593Y003993D01*
X010593Y004048D02*
X010538Y004103D01*
X010482Y004103D01*
X010427Y004048D01*
X010427Y003938D01*
X010482Y003883D01*
X009258Y003883D02*
X009038Y004103D01*
X008982Y004103D01*
X008927Y004048D01*
X008927Y003938D01*
X008982Y003883D01*
X009258Y003883D02*
X009258Y004103D01*
X007758Y004103D02*
X007758Y003883D01*
X007758Y003993D02*
X007427Y003993D01*
X007538Y003883D01*
X006208Y003779D02*
X006208Y003614D01*
X005877Y003614D01*
X005877Y003779D01*
X005932Y003834D01*
X005988Y003834D01*
X006043Y003779D01*
X006043Y003614D01*
X006098Y003466D02*
X006153Y003466D01*
X006208Y003411D01*
X006208Y003301D01*
X006153Y003246D01*
X006043Y003301D02*
X006043Y003411D01*
X006098Y003466D01*
X005932Y003466D02*
X005877Y003411D01*
X005877Y003301D01*
X005932Y003246D01*
X005988Y003246D01*
X006043Y003301D01*
X006153Y003098D02*
X005877Y003098D01*
X006153Y003098D02*
X006208Y003043D01*
X006208Y002933D01*
X006153Y002878D01*
X005877Y002878D01*
X002953Y001746D02*
X002732Y001966D01*
X002677Y001966D01*
X002677Y001746D01*
X002408Y001801D02*
X002408Y001911D01*
X002353Y001966D01*
X002298Y001966D01*
X002243Y001911D01*
X002243Y001746D01*
X002353Y001746D01*
X002408Y001801D01*
X002243Y001746D02*
X002132Y001856D01*
X002077Y001966D01*
X001911Y002128D02*
X001801Y002128D01*
X001746Y002183D01*
X001966Y002403D01*
X001966Y002183D01*
X001911Y002128D01*
X001746Y002183D02*
X001746Y002403D01*
X001801Y002458D01*
X001911Y002458D01*
X001966Y002403D01*
X001598Y002403D02*
X001598Y002348D01*
X001543Y002293D01*
X001378Y002293D01*
X001543Y002293D02*
X001598Y002238D01*
X001598Y002183D01*
X001543Y002128D01*
X001378Y002128D01*
X001378Y002458D01*
X001543Y002458D01*
X001598Y002403D01*
X001543Y002678D02*
X001378Y002678D01*
X001378Y003008D01*
X001543Y003008D01*
X001598Y002953D01*
X001598Y002898D01*
X001543Y002843D01*
X001378Y002843D01*
X001543Y002843D02*
X001598Y002788D01*
X001598Y002733D01*
X001543Y002678D01*
X001746Y002678D02*
X001966Y002678D01*
X001856Y002678D02*
X001856Y003008D01*
X001746Y002898D01*
X001746Y003678D02*
X001966Y003898D01*
X001966Y003953D01*
X001911Y004008D01*
X001801Y004008D01*
X001746Y003953D01*
X001598Y003953D02*
X001598Y003898D01*
X001543Y003843D01*
X001378Y003843D01*
X001543Y003843D02*
X001598Y003788D01*
X001598Y003733D01*
X001543Y003678D01*
X001378Y003678D01*
X001378Y004008D01*
X001543Y004008D01*
X001598Y003953D01*
X001746Y003678D02*
X001966Y003678D01*
X003578Y004478D02*
X003578Y004808D01*
X003743Y004808D01*
X003798Y004753D01*
X003798Y004643D01*
X003743Y004588D01*
X003578Y004588D01*
X003688Y004588D02*
X003798Y004478D01*
X003946Y004478D02*
X004166Y004478D01*
X004314Y004533D02*
X004369Y004478D01*
X004479Y004478D01*
X004534Y004533D01*
X004534Y004588D01*
X004479Y004643D01*
X004369Y004643D01*
X004314Y004698D01*
X004314Y004753D01*
X004369Y004808D01*
X004479Y004808D01*
X004534Y004753D01*
X004683Y004808D02*
X004683Y004478D01*
X004903Y004478D01*
X005161Y004478D02*
X005161Y004808D01*
X005051Y004808D02*
X005271Y004808D01*
X004903Y004808D02*
X004683Y004808D01*
X004166Y004808D02*
X003946Y004808D01*
X003946Y004478D01*
X003946Y004643D02*
X004056Y004643D01*
X004683Y004643D02*
X004793Y004643D01*
X002334Y004733D02*
X002279Y004678D01*
X002169Y004678D01*
X002114Y004733D01*
X002114Y004953D01*
X002169Y005008D01*
X002279Y005008D01*
X002334Y004953D01*
X001966Y004953D02*
X001911Y005008D01*
X001801Y005008D01*
X001746Y004953D01*
X001746Y004733D01*
X001801Y004678D01*
X001911Y004678D01*
X001966Y004733D01*
X001966Y004843D01*
X001856Y004843D01*
X001598Y004843D02*
X001543Y004788D01*
X001378Y004788D01*
X001378Y004678D02*
X001378Y005008D01*
X001543Y005008D01*
X001598Y004953D01*
X001598Y004843D01*
X001801Y005678D02*
X001746Y005733D01*
X001746Y005953D01*
X001801Y006008D01*
X001911Y006008D01*
X001966Y005953D01*
X001966Y005843D02*
X001856Y005843D01*
X001966Y005843D02*
X001966Y005733D01*
X001911Y005678D01*
X001801Y005678D01*
X001598Y005843D02*
X001543Y005788D01*
X001378Y005788D01*
X001378Y005678D02*
X001378Y006008D01*
X001543Y006008D01*
X001598Y005953D01*
X001598Y005843D01*
X002114Y006008D02*
X002114Y005678D01*
X002279Y005678D01*
X002334Y005733D01*
X002334Y005953D01*
X002279Y006008D01*
X002114Y006008D01*
X003728Y005938D02*
X003893Y005938D01*
X003948Y005993D01*
X003948Y006103D01*
X003893Y006158D01*
X003728Y006158D01*
X003728Y005828D01*
X004096Y005828D02*
X004096Y006158D01*
X004261Y006158D01*
X004316Y006103D01*
X004316Y005993D01*
X004261Y005938D01*
X004096Y005938D01*
X004206Y005938D02*
X004316Y005828D01*
X004464Y005883D02*
X004519Y005828D01*
X004629Y005828D01*
X004684Y005883D01*
X004684Y006103D01*
X004629Y006158D01*
X004519Y006158D01*
X004464Y006103D01*
X004464Y005883D01*
X004833Y005883D02*
X004888Y005828D01*
X004998Y005828D01*
X005053Y005883D01*
X005053Y005993D01*
X004943Y005993D01*
X005053Y006103D02*
X004998Y006158D01*
X004888Y006158D01*
X004833Y006103D01*
X004833Y005883D01*
X007178Y005883D02*
X007233Y005828D01*
X007343Y005828D01*
X007398Y005883D01*
X007398Y006158D01*
X007546Y006103D02*
X007546Y006048D01*
X007601Y005993D01*
X007711Y005993D01*
X007766Y005938D01*
X007766Y005883D01*
X007711Y005828D01*
X007601Y005828D01*
X007546Y005883D01*
X007178Y005883D02*
X007178Y006158D01*
X007546Y006103D02*
X007601Y006158D01*
X007711Y006158D01*
X007766Y006103D01*
X007914Y006158D02*
X007914Y005828D01*
X008134Y005828D01*
X008283Y005828D02*
X008283Y006158D01*
X008448Y006158D01*
X008503Y006103D01*
X008503Y005993D01*
X008448Y005938D01*
X008283Y005938D01*
X008393Y005938D02*
X008503Y005828D01*
X008024Y005993D02*
X007914Y005993D01*
X007914Y006158D02*
X008134Y006158D01*
X002519Y007538D02*
X002519Y007758D01*
X002298Y007758D02*
X002298Y007538D01*
X002409Y007428D01*
X002519Y007538D01*
X002150Y007538D02*
X002095Y007593D01*
X002040Y007593D01*
X002095Y007593D02*
X002150Y007648D01*
X002150Y007703D01*
X002095Y007758D01*
X001985Y007758D01*
X001930Y007703D01*
X001598Y007703D02*
X001598Y007648D01*
X001543Y007593D01*
X001598Y007538D01*
X001598Y007483D01*
X001543Y007428D01*
X001433Y007428D01*
X001378Y007483D01*
X001488Y007593D02*
X001543Y007593D01*
X001598Y007703D02*
X001543Y007758D01*
X001433Y007758D01*
X001378Y007703D01*
X001746Y007483D02*
X001801Y007483D01*
X001801Y007428D01*
X001746Y007428D01*
X001746Y007483D01*
X001930Y007483D02*
X001985Y007428D01*
X002095Y007428D01*
X002150Y007483D01*
X002150Y007538D01*
X002121Y007948D02*
X002043Y007948D01*
X001926Y008064D01*
X001848Y007986D02*
X002082Y008220D01*
X002199Y008103D01*
X002199Y008025D01*
X002121Y007948D01*
X001860Y008208D02*
X001783Y008208D01*
X001666Y008325D01*
X001588Y008247D02*
X001821Y008480D01*
X001938Y008364D01*
X001938Y008286D01*
X001860Y008208D01*
X001561Y008429D02*
X001717Y008585D01*
X001804Y008742D02*
X001726Y008820D01*
X001726Y008898D01*
X001622Y009003D02*
X001544Y009003D01*
X001466Y009081D01*
X001466Y009158D01*
X001622Y009314D01*
X001700Y009314D01*
X001777Y009236D01*
X001777Y009158D01*
X001882Y009054D02*
X001960Y009054D01*
X002038Y008976D01*
X002038Y008898D01*
X001999Y008859D01*
X001921Y008859D01*
X001921Y008781D01*
X001882Y008742D01*
X001804Y008742D01*
X001921Y008859D02*
X001882Y008898D01*
X002177Y008856D02*
X002177Y008746D01*
X002232Y008691D01*
X002453Y008691D01*
X002508Y008746D01*
X002508Y008856D01*
X002453Y008911D01*
X002508Y009059D02*
X002288Y009280D01*
X002232Y009280D01*
X002177Y009224D01*
X002177Y009114D01*
X002232Y009059D01*
X002232Y008911D02*
X002177Y008856D01*
X001561Y008741D02*
X001405Y008585D01*
X001405Y008429D01*
X001561Y008429D01*
X002727Y008746D02*
X002782Y008691D01*
X003003Y008691D01*
X003058Y008746D01*
X003058Y008856D01*
X003003Y008911D01*
X003058Y009059D02*
X003058Y009280D01*
X003058Y009169D02*
X002727Y009169D01*
X002838Y009059D01*
X002782Y008911D02*
X002727Y008856D01*
X002727Y008746D01*
X003677Y008691D02*
X003677Y008911D01*
X003677Y009059D02*
X003677Y009280D01*
X003732Y009280D01*
X003953Y009059D01*
X004008Y009059D01*
X004008Y008911D02*
X004008Y008691D01*
X003677Y008691D01*
X003843Y008691D02*
X003843Y008801D01*
X004677Y008691D02*
X005008Y008691D01*
X005008Y008911D01*
X004953Y009059D02*
X004843Y009059D01*
X004843Y009224D01*
X004898Y009280D01*
X004953Y009280D01*
X005008Y009224D01*
X005008Y009114D01*
X004953Y009059D01*
X004843Y009059D02*
X004732Y009169D01*
X004677Y009280D01*
X005677Y009280D02*
X005677Y009059D01*
X005843Y009059D01*
X005788Y009169D01*
X005788Y009224D01*
X005843Y009280D01*
X005953Y009280D01*
X006008Y009224D01*
X006008Y009114D01*
X005953Y009059D01*
X006008Y008911D02*
X006008Y008691D01*
X005677Y008691D01*
X005677Y008911D01*
X005843Y008801D02*
X005843Y008691D01*
X004843Y008691D02*
X004843Y008801D01*
X004677Y008911D02*
X004677Y008691D01*
X002508Y009059D02*
X002508Y009280D01*
X007677Y009224D02*
X007843Y009059D01*
X007843Y009280D01*
X008008Y009224D02*
X007677Y009224D01*
X008677Y009224D02*
X008677Y009114D01*
X008732Y009059D01*
X008843Y009169D02*
X008843Y009224D01*
X008898Y009280D01*
X008953Y009280D01*
X009008Y009224D01*
X009008Y009114D01*
X008953Y009059D01*
X009008Y008911D02*
X009008Y008691D01*
X008677Y008691D01*
X008677Y008911D01*
X008843Y008801D02*
X008843Y008691D01*
X009677Y008691D02*
X010008Y008691D01*
X010008Y008911D01*
X010008Y009059D02*
X009788Y009280D01*
X009732Y009280D01*
X009677Y009224D01*
X009677Y009114D01*
X009732Y009059D01*
X009677Y008911D02*
X009677Y008691D01*
X009843Y008691D02*
X009843Y008801D01*
X010008Y009059D02*
X010008Y009280D01*
X010677Y009224D02*
X010677Y009114D01*
X010732Y009059D01*
X010843Y009169D02*
X010843Y009224D01*
X010898Y009280D01*
X010953Y009280D01*
X011008Y009224D01*
X011008Y009114D01*
X010953Y009059D01*
X011008Y008911D02*
X011008Y008691D01*
X011008Y008801D02*
X010677Y008801D01*
X010788Y008691D01*
X010843Y008543D02*
X010843Y008433D01*
X010843Y008543D02*
X010953Y008543D01*
X011008Y008488D01*
X011008Y008378D01*
X010953Y008323D01*
X010732Y008323D01*
X010677Y008378D01*
X010677Y008488D01*
X010732Y008543D01*
X011677Y008488D02*
X011677Y008378D01*
X011732Y008323D01*
X011953Y008323D01*
X012008Y008378D01*
X012008Y008488D01*
X011953Y008543D01*
X011843Y008543D01*
X011843Y008433D01*
X011732Y008543D02*
X011677Y008488D01*
X011788Y008691D02*
X011677Y008801D01*
X012008Y008801D01*
X012008Y008691D02*
X012008Y008911D01*
X012008Y009059D02*
X011788Y009280D01*
X011732Y009280D01*
X011677Y009224D01*
X011677Y009114D01*
X011732Y009059D01*
X012008Y009059D02*
X012008Y009280D01*
X012677Y009224D02*
X012843Y009059D01*
X012843Y009280D01*
X013008Y009224D02*
X012677Y009224D01*
X013677Y009169D02*
X014008Y009169D01*
X014008Y009059D02*
X014008Y009280D01*
X013788Y009059D02*
X013677Y009169D01*
X013677Y008911D02*
X013677Y008691D01*
X014008Y008691D01*
X014008Y008911D01*
X013843Y008801D02*
X013843Y008691D01*
X014677Y008691D02*
X014677Y008911D01*
X014732Y009059D02*
X014677Y009114D01*
X014677Y009224D01*
X014732Y009280D01*
X014953Y009059D01*
X015008Y009114D01*
X015008Y009224D01*
X014953Y009280D01*
X014732Y009280D01*
X014732Y009059D02*
X014953Y009059D01*
X015008Y008911D02*
X015008Y008691D01*
X014677Y008691D01*
X014843Y008691D02*
X014843Y008801D01*
X015677Y008801D02*
X015788Y008691D01*
X016008Y008691D01*
X015843Y008691D02*
X015843Y008911D01*
X015788Y008911D02*
X016008Y008911D01*
X016008Y009059D02*
X015953Y009059D01*
X015732Y009280D01*
X015677Y009280D01*
X015677Y009059D01*
X015788Y008911D02*
X015677Y008801D01*
X016677Y008801D02*
X016788Y008691D01*
X017008Y008691D01*
X016843Y008691D02*
X016843Y008911D01*
X016788Y008911D02*
X017008Y008911D01*
X016953Y009059D02*
X017008Y009114D01*
X017008Y009224D01*
X016953Y009280D01*
X016898Y009280D01*
X016843Y009224D01*
X016843Y009059D01*
X016953Y009059D01*
X016843Y009059D02*
X016732Y009169D01*
X016677Y009280D01*
X016788Y008911D02*
X016677Y008801D01*
X017677Y008746D02*
X017732Y008691D01*
X017953Y008691D01*
X018008Y008746D01*
X018008Y008856D01*
X017953Y008911D01*
X017843Y008911D01*
X017843Y008801D01*
X017732Y008911D02*
X017677Y008856D01*
X017677Y008746D01*
X018727Y008746D02*
X018782Y008691D01*
X019003Y008691D01*
X019058Y008746D01*
X019058Y008856D01*
X019003Y008911D01*
X018893Y008911D01*
X018893Y008801D01*
X018782Y008911D02*
X018727Y008856D01*
X018727Y008746D01*
X018838Y009059D02*
X018727Y009169D01*
X019058Y009169D01*
X019058Y009059D02*
X019058Y009280D01*
X020007Y009164D02*
X020118Y009054D01*
X020007Y009164D02*
X020338Y009164D01*
X020338Y009054D02*
X020338Y009275D01*
X020677Y009224D02*
X020732Y009280D01*
X020953Y009059D01*
X021008Y009114D01*
X021008Y009224D01*
X020953Y009280D01*
X020732Y009280D01*
X020677Y009224D02*
X020677Y009114D01*
X020732Y009059D01*
X020953Y009059D01*
X020677Y008911D02*
X020677Y008691D01*
X021008Y008691D01*
X020843Y008691D02*
X020843Y008801D01*
X020338Y008686D02*
X020007Y008686D01*
X020007Y008906D01*
X020173Y008796D02*
X020173Y008686D01*
X021677Y008691D02*
X021677Y008856D01*
X021732Y008911D01*
X021953Y008911D01*
X022008Y008856D01*
X022008Y008691D01*
X021677Y008691D01*
X022677Y008691D02*
X022677Y008856D01*
X022732Y008911D01*
X022953Y008911D01*
X023008Y008856D01*
X023008Y008691D01*
X022677Y008691D01*
X023677Y008691D02*
X023677Y008856D01*
X023732Y008911D01*
X023953Y008911D01*
X024008Y008856D01*
X024008Y008691D01*
X023677Y008691D01*
X024677Y008691D02*
X024677Y008856D01*
X024732Y008911D01*
X024953Y008911D01*
X025008Y008856D01*
X025008Y008691D01*
X024677Y008691D01*
X025328Y008928D02*
X025493Y008928D01*
X025548Y008983D01*
X025548Y009203D01*
X025493Y009258D01*
X025328Y009258D01*
X025328Y008928D01*
X025696Y008928D02*
X025916Y008928D01*
X025806Y008928D02*
X025806Y009258D01*
X025696Y009148D01*
X026064Y009203D02*
X026119Y009258D01*
X026229Y009258D01*
X026284Y009203D01*
X026284Y009148D01*
X026229Y009093D01*
X026284Y009038D01*
X026284Y008983D01*
X026229Y008928D01*
X026119Y008928D01*
X026064Y008983D01*
X026174Y009093D02*
X026229Y009093D01*
X026578Y009258D02*
X026743Y009258D01*
X026798Y009203D01*
X026798Y008983D01*
X026743Y008928D01*
X026578Y008928D01*
X026578Y009258D01*
X026946Y009148D02*
X027056Y009258D01*
X027056Y008928D01*
X026946Y008928D02*
X027166Y008928D01*
X027314Y008928D02*
X027534Y009148D01*
X027534Y009203D01*
X027479Y009258D01*
X027369Y009258D01*
X027314Y009203D01*
X027877Y009224D02*
X027877Y009114D01*
X027932Y009059D01*
X027932Y008911D02*
X027877Y008856D01*
X027877Y008691D01*
X028208Y008691D01*
X028208Y008856D01*
X028153Y008911D01*
X027932Y008911D01*
X028153Y009059D02*
X028208Y009114D01*
X028208Y009224D01*
X028153Y009280D01*
X028098Y009280D01*
X028043Y009224D01*
X028043Y009169D01*
X028043Y009224D02*
X027988Y009280D01*
X027932Y009280D01*
X027877Y009224D01*
X028677Y009224D02*
X028677Y009114D01*
X028732Y009059D01*
X028732Y008911D02*
X028677Y008856D01*
X028677Y008691D01*
X029008Y008691D01*
X029008Y008856D01*
X028953Y008911D01*
X028732Y008911D01*
X029008Y009059D02*
X028788Y009280D01*
X028732Y009280D01*
X028677Y009224D01*
X029008Y009280D02*
X029008Y009059D01*
X029677Y009169D02*
X029788Y009059D01*
X029677Y009169D02*
X030008Y009169D01*
X030008Y009059D02*
X030008Y009280D01*
X030677Y009224D02*
X030843Y009059D01*
X030843Y009280D01*
X031008Y009224D02*
X030677Y009224D01*
X031677Y009224D02*
X031677Y009114D01*
X031732Y009059D01*
X031843Y009169D02*
X031843Y009224D01*
X031898Y009280D01*
X031953Y009280D01*
X032008Y009224D01*
X032008Y009114D01*
X031953Y009059D01*
X032008Y008911D02*
X032008Y008691D01*
X032008Y008801D02*
X031677Y008801D01*
X031788Y008691D01*
X031008Y008691D02*
X031008Y008911D01*
X031008Y008801D02*
X030677Y008801D01*
X030788Y008691D01*
X030732Y008543D02*
X030677Y008488D01*
X030677Y008378D01*
X030732Y008323D01*
X030953Y008323D01*
X031008Y008378D01*
X031008Y008488D01*
X030953Y008543D01*
X031677Y008488D02*
X031677Y008378D01*
X031732Y008323D01*
X031953Y008323D01*
X032008Y008378D01*
X032008Y008488D01*
X031953Y008543D01*
X031732Y008543D02*
X031677Y008488D01*
X032677Y008691D02*
X032677Y008856D01*
X032732Y008911D01*
X032953Y008911D01*
X033008Y008856D01*
X033008Y008691D01*
X032677Y008691D01*
X032732Y009059D02*
X032677Y009114D01*
X032677Y009224D01*
X032732Y009280D01*
X032953Y009059D01*
X033008Y009114D01*
X033008Y009224D01*
X032953Y009280D01*
X032732Y009280D01*
X032732Y009059D02*
X032953Y009059D01*
X031843Y009224D02*
X031788Y009280D01*
X031732Y009280D01*
X031677Y009224D01*
X030008Y008856D02*
X029953Y008911D01*
X029732Y008911D01*
X029677Y008856D01*
X029677Y008691D01*
X030008Y008691D01*
X030008Y008856D01*
X027534Y008928D02*
X027314Y008928D01*
X025008Y009224D02*
X024677Y009224D01*
X024843Y009059D01*
X024843Y009280D01*
X024008Y009224D02*
X024008Y009114D01*
X023953Y009059D01*
X023843Y009059D02*
X023788Y009169D01*
X023788Y009224D01*
X023843Y009280D01*
X023953Y009280D01*
X024008Y009224D01*
X023677Y009280D02*
X023677Y009059D01*
X023843Y009059D01*
X023008Y009114D02*
X023008Y009224D01*
X022953Y009280D01*
X022898Y009280D01*
X022843Y009224D01*
X022843Y009059D01*
X022953Y009059D01*
X023008Y009114D01*
X022843Y009059D02*
X022732Y009169D01*
X022677Y009280D01*
X022008Y009059D02*
X021953Y009059D01*
X021732Y009280D01*
X021677Y009280D01*
X021677Y009059D01*
X018008Y009114D02*
X017953Y009059D01*
X017732Y009280D01*
X017953Y009280D01*
X018008Y009224D01*
X018008Y009114D01*
X017953Y009059D02*
X017732Y009059D01*
X017677Y009114D01*
X017677Y009224D01*
X017732Y009280D01*
X013008Y008911D02*
X013008Y008691D01*
X013008Y008801D02*
X012677Y008801D01*
X012788Y008691D01*
X012843Y008543D02*
X012843Y008433D01*
X012843Y008543D02*
X012953Y008543D01*
X013008Y008488D01*
X013008Y008378D01*
X012953Y008323D01*
X012732Y008323D01*
X012677Y008378D01*
X012677Y008488D01*
X012732Y008543D01*
X010843Y009224D02*
X010788Y009280D01*
X010732Y009280D01*
X010677Y009224D01*
X008843Y009224D02*
X008788Y009280D01*
X008732Y009280D01*
X008677Y009224D01*
X008008Y008911D02*
X008008Y008691D01*
X007677Y008691D01*
X007677Y008911D01*
X007843Y008801D02*
X007843Y008691D01*
X002334Y006953D02*
X002279Y007008D01*
X002114Y007008D01*
X002114Y006678D01*
X002279Y006678D01*
X002334Y006733D01*
X002334Y006953D01*
X001966Y007008D02*
X001966Y006678D01*
X001746Y007008D01*
X001746Y006678D01*
X001598Y006733D02*
X001543Y006678D01*
X001433Y006678D01*
X001378Y006733D01*
X001378Y006953D01*
X001433Y007008D01*
X001543Y007008D01*
X001598Y006953D01*
X001598Y006843D02*
X001488Y006843D01*
X001598Y006843D02*
X001598Y006733D01*
X006043Y003779D02*
X006098Y003834D01*
X006153Y003834D01*
X006208Y003779D01*
X001920Y001719D02*
X001686Y001953D01*
X001686Y001719D01*
X001842Y001875D01*
X002953Y001746D02*
X003008Y001746D01*
X008677Y001378D02*
X009008Y001378D01*
X010677Y001378D02*
X011008Y001378D01*
X018528Y001878D02*
X018528Y002098D01*
X018638Y002208D01*
X018748Y002098D01*
X018748Y001878D01*
X018896Y001878D02*
X019116Y001878D01*
X019006Y001878D02*
X019006Y002208D01*
X018896Y002098D01*
X018748Y002043D02*
X018528Y002043D01*
X021278Y001708D02*
X021278Y001378D01*
X021443Y001378D01*
X021498Y001433D01*
X021498Y001488D01*
X021443Y001543D01*
X021278Y001543D01*
X021443Y001543D02*
X021498Y001598D01*
X021498Y001653D01*
X021443Y001708D01*
X021278Y001708D01*
X021646Y001598D02*
X021756Y001708D01*
X021756Y001378D01*
X021646Y001378D02*
X021866Y001378D01*
X022014Y001378D02*
X022234Y001598D01*
X022234Y001653D01*
X022179Y001708D01*
X022069Y001708D01*
X022014Y001653D01*
X022677Y001543D02*
X022732Y001598D01*
X022788Y001598D01*
X022843Y001543D01*
X022843Y001378D01*
X023008Y001378D02*
X022677Y001378D01*
X022677Y001543D01*
X022843Y001543D02*
X022898Y001598D01*
X022953Y001598D01*
X023008Y001543D01*
X023008Y001378D01*
X023677Y001378D02*
X023677Y001543D01*
X023732Y001598D01*
X023788Y001598D01*
X023843Y001543D01*
X023843Y001378D01*
X024008Y001378D02*
X023677Y001378D01*
X024008Y001378D02*
X024008Y001543D01*
X023953Y001598D01*
X023898Y001598D01*
X023843Y001543D01*
X023788Y001746D02*
X023677Y001856D01*
X024008Y001856D01*
X024008Y001746D02*
X024008Y001966D01*
X023843Y002114D02*
X023843Y002334D01*
X024008Y002279D02*
X023677Y002279D01*
X023843Y002114D01*
X023008Y002169D02*
X022953Y002114D01*
X023008Y002169D02*
X023008Y002279D01*
X022953Y002334D01*
X022898Y002334D01*
X022843Y002279D01*
X022843Y002224D01*
X022843Y002279D02*
X022788Y002334D01*
X022732Y002334D01*
X022677Y002279D01*
X022677Y002169D01*
X022732Y002114D01*
X023008Y001966D02*
X023008Y001746D01*
X023008Y001856D02*
X022677Y001856D01*
X022788Y001746D01*
X022234Y001378D02*
X022014Y001378D01*
X024677Y001378D02*
X024677Y001543D01*
X024732Y001598D01*
X024788Y001598D01*
X024843Y001543D01*
X024843Y001378D01*
X025008Y001378D02*
X025008Y001543D01*
X024953Y001598D01*
X024898Y001598D01*
X024843Y001543D01*
X024788Y001746D02*
X024677Y001856D01*
X025008Y001856D01*
X025008Y001746D02*
X025008Y001966D01*
X024953Y002114D02*
X025008Y002169D01*
X025008Y002279D01*
X024953Y002334D01*
X024843Y002334D01*
X024788Y002279D01*
X024788Y002224D01*
X024843Y002114D01*
X024677Y002114D01*
X024677Y002334D01*
X025677Y002279D02*
X025843Y002114D01*
X025843Y002334D01*
X026008Y002279D02*
X025677Y002279D01*
X026677Y002334D02*
X026677Y002114D01*
X026843Y002114D01*
X026788Y002224D01*
X026788Y002279D01*
X026843Y002334D01*
X026953Y002334D01*
X027008Y002279D01*
X027008Y002169D01*
X026953Y002114D01*
X027008Y001966D02*
X027008Y001746D01*
X027008Y001856D02*
X026677Y001856D01*
X026788Y001746D01*
X026732Y001598D02*
X026677Y001543D01*
X026677Y001378D01*
X027008Y001378D01*
X027008Y001543D01*
X026953Y001598D01*
X026732Y001598D01*
X026008Y001543D02*
X026008Y001378D01*
X025677Y001378D01*
X025677Y001543D01*
X025732Y001598D01*
X025953Y001598D01*
X026008Y001543D01*
X026008Y001746D02*
X026008Y001966D01*
X026008Y001856D02*
X025677Y001856D01*
X025788Y001746D01*
X025008Y001378D02*
X024677Y001378D01*
X027677Y001378D02*
X027677Y001598D01*
X027843Y001488D02*
X027843Y001378D01*
X028008Y001378D02*
X027677Y001378D01*
X028677Y001378D02*
X028677Y001598D01*
X028843Y001488D02*
X028843Y001378D01*
X029008Y001378D02*
X028677Y001378D01*
X029677Y001378D02*
X029677Y001598D01*
X029843Y001488D02*
X029843Y001378D01*
X030008Y001378D02*
X029677Y001378D01*
X030677Y001378D02*
X030677Y001598D01*
X030843Y001488D02*
X030843Y001378D01*
X031008Y001378D02*
X030677Y001378D01*
X031677Y001488D02*
X031788Y001598D01*
X032008Y001598D01*
X031843Y001598D02*
X031843Y001378D01*
X031788Y001378D02*
X032008Y001378D01*
X031788Y001378D02*
X031677Y001488D01*
X032677Y001488D02*
X032788Y001598D01*
X033008Y001598D01*
X032843Y001598D02*
X032843Y001378D01*
X032788Y001378D02*
X032677Y001488D01*
X032788Y001378D02*
X033008Y001378D01*
X033677Y001488D02*
X033788Y001598D01*
X034008Y001598D01*
X033843Y001598D02*
X033843Y001378D01*
X033788Y001378D02*
X033677Y001488D01*
X033788Y001378D02*
X034008Y001378D01*
X034677Y001488D02*
X034788Y001598D01*
X035008Y001598D01*
X034843Y001598D02*
X034843Y001378D01*
X034788Y001378D02*
X034677Y001488D01*
X034788Y001378D02*
X035008Y001378D01*
X035627Y001488D02*
X035738Y001598D01*
X035958Y001598D01*
X035793Y001598D02*
X035793Y001378D01*
X035738Y001378D02*
X035958Y001378D01*
X035738Y001378D02*
X035627Y001488D01*
X036341Y001543D02*
X036561Y001543D01*
X036561Y001598D02*
X036561Y001378D01*
X036709Y001378D02*
X036930Y001378D01*
X036819Y001378D02*
X036819Y001708D01*
X036709Y001598D01*
X036561Y001598D02*
X036451Y001708D01*
X036341Y001598D01*
X036341Y001378D01*
X037677Y001433D02*
X037732Y001378D01*
X037677Y001433D02*
X037677Y001543D01*
X037732Y001598D01*
X037788Y001598D01*
X037843Y001543D01*
X037898Y001598D01*
X037953Y001598D01*
X038008Y001543D01*
X038008Y001433D01*
X037953Y001378D01*
X037843Y001488D02*
X037843Y001543D01*
X037953Y001746D02*
X037953Y001801D01*
X038008Y001801D01*
X038008Y001746D01*
X037953Y001746D01*
X037953Y001930D02*
X038008Y001985D01*
X038008Y002095D01*
X037953Y002150D01*
X037898Y002150D01*
X037843Y002095D01*
X037843Y002040D01*
X037843Y002095D02*
X037788Y002150D01*
X037732Y002150D01*
X037677Y002095D01*
X037677Y001985D01*
X037732Y001930D01*
X038677Y001966D02*
X038898Y001966D01*
X039008Y001856D01*
X038898Y001746D01*
X038677Y001746D01*
X038677Y001598D02*
X038677Y001378D01*
X038843Y001378D01*
X038788Y001488D01*
X038788Y001543D01*
X038843Y001598D01*
X038953Y001598D01*
X039008Y001543D01*
X039008Y001433D01*
X038953Y001378D01*
X039677Y001433D02*
X039732Y001378D01*
X039953Y001378D01*
X040008Y001433D01*
X040008Y001543D01*
X039953Y001598D01*
X039843Y001598D01*
X039843Y001488D01*
X039732Y001598D02*
X039677Y001543D01*
X039677Y001433D01*
X039677Y001746D02*
X040008Y001966D01*
X039677Y001966D01*
X039677Y002114D02*
X039677Y002279D01*
X039732Y002334D01*
X039953Y002334D01*
X040008Y002279D01*
X040008Y002114D01*
X039677Y002114D01*
X039677Y001746D02*
X040008Y001746D01*
X038008Y002409D02*
X037898Y002298D01*
X037677Y002298D01*
X037898Y002519D02*
X038008Y002409D01*
X037898Y002519D02*
X037677Y002519D01*
X037008Y002443D02*
X037008Y002333D01*
X036953Y002278D01*
X036677Y002278D01*
X036953Y002498D02*
X037008Y002443D01*
X036953Y002498D02*
X036677Y002498D01*
X036732Y002646D02*
X036788Y002646D01*
X036843Y002701D01*
X036843Y002811D01*
X036898Y002866D01*
X036953Y002866D01*
X037008Y002811D01*
X037008Y002701D01*
X036953Y002646D01*
X036732Y002646D02*
X036677Y002701D01*
X036677Y002811D01*
X036732Y002866D01*
X036677Y003014D02*
X036677Y003179D01*
X036732Y003234D01*
X036788Y003234D01*
X036843Y003179D01*
X036843Y003014D01*
X037008Y003014D02*
X037008Y003179D01*
X036953Y003234D01*
X036898Y003234D01*
X036843Y003179D01*
X037008Y003014D02*
X036677Y003014D01*
X035943Y003478D02*
X035888Y003533D01*
X035888Y003753D01*
X035833Y003698D02*
X035943Y003698D01*
X035684Y003698D02*
X035519Y003698D01*
X035464Y003643D01*
X035519Y003588D01*
X035629Y003588D01*
X035684Y003533D01*
X035629Y003478D01*
X035464Y003478D01*
X035316Y003533D02*
X035316Y003643D01*
X035261Y003698D01*
X035151Y003698D01*
X035096Y003643D01*
X035096Y003533D01*
X035151Y003478D01*
X035261Y003478D01*
X035316Y003533D01*
X034948Y003478D02*
X034948Y003808D01*
X034948Y003643D02*
X034728Y003643D01*
X034728Y003478D02*
X034728Y003808D01*
X034334Y003753D02*
X034279Y003808D01*
X034114Y003808D01*
X034114Y003478D01*
X034279Y003478D01*
X034334Y003533D01*
X034334Y003753D01*
X033966Y003808D02*
X033966Y003478D01*
X033746Y003808D01*
X033746Y003478D01*
X033598Y003533D02*
X033598Y003643D01*
X033488Y003643D01*
X033598Y003753D02*
X033543Y003808D01*
X033433Y003808D01*
X033378Y003753D01*
X033378Y003533D01*
X033433Y003478D01*
X033543Y003478D01*
X033598Y003533D01*
X032948Y003533D02*
X032893Y003478D01*
X032783Y003478D01*
X032728Y003533D01*
X032728Y003643D02*
X032838Y003698D01*
X032893Y003698D01*
X032948Y003643D01*
X032948Y003533D01*
X032728Y003643D02*
X032728Y003808D01*
X032948Y003808D01*
X032200Y003753D02*
X032200Y003698D01*
X032145Y003643D01*
X032200Y003588D01*
X032200Y003533D01*
X032145Y003478D01*
X032035Y003478D01*
X031980Y003533D01*
X031851Y003533D02*
X031851Y003478D01*
X031796Y003478D01*
X031796Y003533D01*
X031851Y003533D01*
X031648Y003533D02*
X031593Y003478D01*
X031483Y003478D01*
X031428Y003533D01*
X031538Y003643D02*
X031593Y003643D01*
X031648Y003588D01*
X031648Y003533D01*
X031593Y003643D02*
X031648Y003698D01*
X031648Y003753D01*
X031593Y003808D01*
X031483Y003808D01*
X031428Y003753D01*
X031980Y003753D02*
X032035Y003808D01*
X032145Y003808D01*
X032200Y003753D01*
X032145Y003643D02*
X032090Y003643D01*
X031124Y003008D02*
X031124Y002678D01*
X031014Y002678D02*
X031234Y002678D01*
X030866Y002843D02*
X030811Y002788D01*
X030646Y002788D01*
X030646Y002678D02*
X030646Y003008D01*
X030811Y003008D01*
X030866Y002953D01*
X030866Y002843D01*
X031014Y002898D02*
X031124Y003008D01*
X030498Y003008D02*
X030388Y003008D01*
X030443Y003008D02*
X030443Y002733D01*
X030388Y002678D01*
X030333Y002678D01*
X030278Y002733D01*
X030008Y001966D02*
X030008Y001746D01*
X029788Y001966D01*
X029732Y001966D01*
X029677Y001911D01*
X029677Y001801D01*
X029732Y001746D01*
X029008Y001801D02*
X028953Y001746D01*
X029008Y001801D02*
X029008Y001911D01*
X028953Y001966D01*
X028843Y001966D01*
X028788Y001911D01*
X028788Y001856D01*
X028843Y001746D01*
X028677Y001746D01*
X028677Y001966D01*
X028008Y001911D02*
X027677Y001911D01*
X027843Y001746D01*
X027843Y001966D01*
X030677Y001911D02*
X030677Y001801D01*
X030732Y001746D01*
X030788Y001746D01*
X030843Y001801D01*
X030843Y001911D01*
X030898Y001966D01*
X030953Y001966D01*
X031008Y001911D01*
X031008Y001801D01*
X030953Y001746D01*
X030898Y001746D01*
X030843Y001801D01*
X030843Y001911D02*
X030788Y001966D01*
X030732Y001966D01*
X030677Y001911D01*
X031677Y001911D02*
X031677Y001801D01*
X031732Y001746D01*
X031677Y001911D02*
X031732Y001966D01*
X031788Y001966D01*
X032008Y001746D01*
X032008Y001966D01*
X032677Y001911D02*
X032732Y001966D01*
X032788Y001966D01*
X032843Y001911D01*
X032898Y001966D01*
X032953Y001966D01*
X033008Y001911D01*
X033008Y001801D01*
X032953Y001746D01*
X032843Y001856D02*
X032843Y001911D01*
X032677Y001911D02*
X032677Y001801D01*
X032732Y001746D01*
X033677Y001911D02*
X033843Y001746D01*
X033843Y001966D01*
X034008Y001911D02*
X033677Y001911D01*
X034677Y001966D02*
X034677Y001746D01*
X034843Y001746D01*
X034788Y001856D01*
X034788Y001911D01*
X034843Y001966D01*
X034953Y001966D01*
X035008Y001911D01*
X035008Y001801D01*
X034953Y001746D01*
X035627Y001856D02*
X035958Y001856D01*
X035958Y001746D02*
X035958Y001966D01*
X035738Y001746D02*
X035627Y001856D01*
X041628Y000733D02*
X041683Y000678D01*
X041738Y000678D01*
X041793Y000733D01*
X041793Y001008D01*
X041738Y001008D02*
X041848Y001008D01*
X041996Y000953D02*
X041996Y000898D01*
X042051Y000843D01*
X042161Y000843D01*
X042216Y000788D01*
X042216Y000733D01*
X042161Y000678D01*
X042051Y000678D01*
X041996Y000733D01*
X041996Y000788D01*
X042051Y000843D01*
X042161Y000843D02*
X042216Y000898D01*
X042216Y000953D01*
X042161Y001008D01*
X042051Y001008D01*
X041996Y000953D01*
X038803Y003683D02*
X038748Y003628D01*
X038638Y003628D01*
X038583Y003683D01*
X038638Y003793D02*
X038748Y003793D01*
X038803Y003738D01*
X038803Y003683D01*
X038638Y003793D02*
X038583Y003848D01*
X038583Y003903D01*
X038638Y003958D01*
X038748Y003958D01*
X038803Y003903D01*
X038434Y003958D02*
X038434Y003683D01*
X038379Y003628D01*
X038269Y003628D01*
X038214Y003683D01*
X038214Y003958D01*
X038066Y003903D02*
X038011Y003958D01*
X037846Y003958D01*
X037846Y003628D01*
X038011Y003628D01*
X038066Y003683D01*
X038066Y003738D01*
X038011Y003793D01*
X037846Y003793D01*
X037698Y003738D02*
X037698Y003958D01*
X037478Y003958D02*
X037478Y003738D01*
X037588Y003628D01*
X037698Y003738D01*
X038011Y003793D02*
X038066Y003848D01*
X038066Y003903D01*
X037638Y004628D02*
X037473Y004628D01*
X037473Y004958D01*
X037638Y004958D01*
X037693Y004903D01*
X037693Y004683D01*
X037638Y004628D01*
X037841Y004793D02*
X038061Y004793D01*
X036208Y005583D02*
X036153Y005528D01*
X036208Y005583D02*
X036208Y005638D01*
X036153Y005693D01*
X035877Y005693D01*
X035877Y005638D02*
X035877Y005748D01*
X036043Y005896D02*
X036043Y006061D01*
X036098Y006116D01*
X036153Y006116D01*
X036208Y006061D01*
X036208Y005951D01*
X036153Y005896D01*
X036043Y005896D01*
X035932Y006006D01*
X035877Y006116D01*
X035703Y006478D02*
X035758Y006533D01*
X035758Y006643D01*
X035703Y006698D01*
X035427Y006698D01*
X035482Y006846D02*
X035538Y006846D01*
X035593Y006901D01*
X035593Y007011D01*
X035648Y007066D01*
X035703Y007066D01*
X035758Y007011D01*
X035758Y006901D01*
X035703Y006846D01*
X035482Y006846D02*
X035427Y006901D01*
X035427Y007011D01*
X035482Y007066D01*
X035427Y007214D02*
X035427Y007379D01*
X035482Y007434D01*
X035538Y007434D01*
X035593Y007379D01*
X035593Y007214D01*
X035758Y007214D02*
X035758Y007379D01*
X035703Y007434D01*
X035648Y007434D01*
X035593Y007379D01*
X035877Y007433D02*
X035877Y007543D01*
X035932Y007598D01*
X036043Y007598D02*
X036043Y007488D01*
X036043Y007598D02*
X036153Y007598D01*
X036208Y007543D01*
X036208Y007433D01*
X036153Y007378D01*
X035932Y007378D01*
X035877Y007433D01*
X035758Y007214D02*
X035427Y007214D01*
X037478Y007008D02*
X037588Y007008D01*
X037533Y007008D02*
X037533Y006678D01*
X037478Y006678D02*
X037588Y006678D01*
X037723Y006678D02*
X037888Y006678D01*
X037943Y006733D01*
X037943Y006953D01*
X037888Y007008D01*
X037723Y007008D01*
X037723Y006678D01*
X038538Y006608D02*
X038648Y006608D01*
X038593Y006608D02*
X038593Y006333D01*
X038538Y006278D01*
X038483Y006278D01*
X038428Y006333D01*
X038796Y006278D02*
X039016Y006278D01*
X038906Y006278D02*
X038906Y006608D01*
X038796Y006498D01*
X037961Y005923D02*
X037961Y005703D01*
X037851Y005813D02*
X038071Y005813D01*
X037703Y005703D02*
X037703Y005923D01*
X037648Y005978D01*
X037483Y005978D01*
X037483Y005648D01*
X037648Y005648D01*
X037703Y005703D01*
X035703Y006478D02*
X035427Y006478D01*
X032358Y006478D02*
X032358Y006698D01*
X032193Y006588D02*
X032193Y006478D01*
X032358Y006478D02*
X032027Y006478D01*
X032027Y006698D01*
X032027Y006846D02*
X032358Y007066D01*
X032358Y006846D02*
X032027Y007066D01*
X032027Y007214D02*
X032027Y007434D01*
X032027Y007324D02*
X032358Y007324D01*
X035877Y007746D02*
X036208Y007966D01*
X035877Y007966D01*
X035877Y008114D02*
X035877Y008279D01*
X035932Y008334D01*
X036153Y008334D01*
X036208Y008279D01*
X036208Y008114D01*
X035877Y008114D01*
X035877Y007746D02*
X036208Y007746D01*
X037677Y008194D02*
X037677Y008304D01*
X037732Y008359D01*
X037788Y008359D01*
X037843Y008304D01*
X037898Y008359D01*
X037953Y008359D01*
X038008Y008304D01*
X038008Y008194D01*
X037953Y008139D01*
X037843Y008249D02*
X037843Y008304D01*
X037732Y008139D02*
X037677Y008194D01*
X037953Y008507D02*
X037953Y008562D01*
X038008Y008562D01*
X038008Y008507D01*
X037953Y008507D01*
X037953Y008691D02*
X038008Y008746D01*
X038008Y008856D01*
X037953Y008911D01*
X037898Y008911D01*
X037843Y008856D01*
X037843Y008801D01*
X037843Y008856D02*
X037788Y008911D01*
X037732Y008911D01*
X037677Y008856D01*
X037677Y008746D01*
X037732Y008691D01*
X037008Y008691D02*
X037008Y008856D01*
X036953Y008911D01*
X036732Y008911D01*
X036677Y008856D01*
X036677Y008691D01*
X037008Y008691D01*
X036008Y008691D02*
X036008Y008856D01*
X035953Y008911D01*
X035732Y008911D01*
X035677Y008856D01*
X035677Y008691D01*
X036008Y008691D01*
X035953Y009059D02*
X036008Y009114D01*
X036008Y009224D01*
X035953Y009280D01*
X035732Y009280D01*
X035677Y009224D01*
X035677Y009114D01*
X035732Y009059D01*
X035788Y009059D01*
X035843Y009114D01*
X035843Y009280D01*
X036677Y009224D02*
X036677Y009114D01*
X036732Y009059D01*
X036788Y009059D01*
X036843Y009114D01*
X036843Y009224D01*
X036898Y009280D01*
X036953Y009280D01*
X037008Y009224D01*
X037008Y009114D01*
X036953Y009059D01*
X036898Y009059D01*
X036843Y009114D01*
X036843Y009224D02*
X036788Y009280D01*
X036732Y009280D01*
X036677Y009224D01*
X037677Y009279D02*
X037898Y009279D01*
X038008Y009169D01*
X037898Y009059D01*
X037677Y009059D01*
X038491Y009033D02*
X038546Y008978D01*
X038656Y008978D01*
X038711Y009033D01*
X038711Y009143D01*
X038656Y009198D01*
X038601Y009198D01*
X038491Y009143D01*
X038491Y009308D01*
X038711Y009308D01*
X038859Y009308D02*
X038859Y009088D01*
X038969Y008978D01*
X039080Y009088D01*
X039080Y009308D01*
X039373Y009253D02*
X039373Y009033D01*
X039428Y008978D01*
X039538Y008978D01*
X039593Y009033D01*
X039593Y009143D01*
X039483Y009143D01*
X039593Y009253D02*
X039538Y009308D01*
X039428Y009308D01*
X039373Y009253D01*
X039741Y009308D02*
X039961Y008978D01*
X039961Y009308D01*
X040109Y009308D02*
X040274Y009308D01*
X040330Y009253D01*
X040330Y009033D01*
X040274Y008978D01*
X040109Y008978D01*
X040109Y009308D01*
X039741Y009308D02*
X039741Y008978D01*
X041038Y009728D02*
X041148Y009948D01*
X041296Y010003D02*
X041351Y010058D01*
X041461Y010058D01*
X041516Y010003D01*
X041516Y009948D01*
X041296Y009728D01*
X041516Y009728D01*
X041664Y009783D02*
X041664Y009893D01*
X041829Y009893D01*
X041884Y009838D01*
X041884Y009783D01*
X041829Y009728D01*
X041719Y009728D01*
X041664Y009783D01*
X041664Y009893D02*
X041774Y010003D01*
X041884Y010058D01*
X041038Y009728D02*
X040928Y009948D01*
X042928Y009893D02*
X043093Y009893D01*
X043148Y009838D01*
X043148Y009783D01*
X043093Y009728D01*
X042928Y009728D01*
X042928Y010058D01*
X043093Y010058D01*
X043148Y010003D01*
X043148Y009948D01*
X043093Y009893D01*
X039698Y008193D02*
X039478Y008193D01*
X039588Y007503D02*
X039588Y007283D01*
X039478Y007393D02*
X039698Y007393D01*
X041238Y006058D02*
X041348Y006058D01*
X041293Y006058D02*
X041293Y005783D01*
X041238Y005728D01*
X041183Y005728D01*
X041128Y005783D01*
X041496Y005728D02*
X041716Y005948D01*
X041716Y006003D01*
X041661Y006058D01*
X041551Y006058D01*
X041496Y006003D01*
X041496Y005728D02*
X041716Y005728D01*
X034108Y004878D02*
X033888Y004878D01*
X033888Y005208D01*
X033739Y005208D02*
X033519Y005208D01*
X033519Y004878D01*
X033739Y004878D01*
X033371Y004933D02*
X033316Y004878D01*
X033206Y004878D01*
X033151Y004933D01*
X033206Y005043D02*
X033316Y005043D01*
X033371Y004988D01*
X033371Y004933D01*
X033519Y005043D02*
X033629Y005043D01*
X033371Y005153D02*
X033316Y005208D01*
X033206Y005208D01*
X033151Y005153D01*
X033151Y005098D01*
X033206Y005043D01*
X033003Y004823D02*
X032783Y004823D01*
X032634Y004878D02*
X032524Y004988D01*
X032579Y004988D02*
X032414Y004988D01*
X032414Y004878D02*
X032414Y005208D01*
X032579Y005208D01*
X032634Y005153D01*
X032634Y005043D01*
X032579Y004988D01*
X032266Y004878D02*
X032266Y005208D01*
X032046Y005208D02*
X032046Y004878D01*
X032156Y004988D01*
X032266Y004878D01*
X031898Y005043D02*
X031843Y004988D01*
X031678Y004988D01*
X031678Y004878D02*
X031678Y005208D01*
X031843Y005208D01*
X031898Y005153D01*
X031898Y005043D01*
X027121Y006628D02*
X026901Y006628D01*
X027121Y006848D01*
X026901Y006848D01*
X026753Y006793D02*
X026533Y006793D01*
X026533Y006628D02*
X026533Y006958D01*
X026384Y006958D02*
X026164Y006738D01*
X026219Y006793D02*
X026384Y006628D01*
X026164Y006628D02*
X026164Y006958D01*
X026016Y006903D02*
X025961Y006958D01*
X025851Y006958D01*
X025796Y006903D01*
X025648Y006903D02*
X025648Y006848D01*
X025593Y006793D01*
X025648Y006738D01*
X025648Y006683D01*
X025593Y006628D01*
X025483Y006628D01*
X025428Y006683D01*
X025538Y006793D02*
X025593Y006793D01*
X025648Y006903D02*
X025593Y006958D01*
X025483Y006958D01*
X025428Y006903D01*
X025796Y006628D02*
X026016Y006848D01*
X026016Y006903D01*
X026016Y006628D02*
X025796Y006628D01*
X026753Y006628D02*
X026753Y006958D01*
X023558Y005103D02*
X023558Y004883D01*
X023338Y005103D01*
X023338Y004883D01*
X023393Y004734D02*
X023393Y004514D01*
X023558Y004514D02*
X023227Y004514D01*
X023227Y004366D02*
X023558Y004366D01*
X023338Y004256D02*
X023227Y004366D01*
X023338Y004256D02*
X023227Y004146D01*
X023558Y004146D01*
X023503Y003998D02*
X023558Y003943D01*
X023558Y003833D01*
X023503Y003778D01*
X023448Y003778D01*
X023393Y003833D01*
X023393Y003943D01*
X023448Y003998D01*
X023503Y003998D01*
X023393Y003943D02*
X023338Y003998D01*
X023282Y003998D01*
X023227Y003943D01*
X023227Y003833D01*
X023282Y003778D01*
X023338Y003778D01*
X023393Y003833D01*
X023558Y004734D02*
X023227Y004734D01*
D11*
X021261Y003424D02*
X017424Y003424D01*
X017424Y007045D01*
X017641Y007261D01*
X021261Y007261D01*
X021261Y003424D01*
X020963Y002236D02*
X020963Y002036D01*
X020763Y002236D01*
X020712Y002236D01*
X020662Y002186D01*
X020662Y002086D01*
X020712Y002036D01*
X019963Y002086D02*
X019963Y002186D01*
X019913Y002236D01*
X019863Y002236D01*
X019813Y002186D01*
X019813Y002136D01*
X019813Y002186D02*
X019763Y002236D01*
X019712Y002236D01*
X019662Y002186D01*
X019662Y002086D01*
X019712Y002036D01*
X019913Y002036D02*
X019963Y002086D01*
X019963Y001904D02*
X019963Y001704D01*
X019963Y001804D02*
X019662Y001804D01*
X019763Y001704D01*
X019662Y001573D02*
X019662Y001373D01*
X019963Y001373D01*
X019813Y001373D02*
X019813Y001473D01*
X020662Y001373D02*
X020662Y001573D01*
X020763Y001704D02*
X020662Y001804D01*
X020963Y001804D01*
X020963Y001704D02*
X020963Y001904D01*
X020813Y001473D02*
X020813Y001373D01*
X020963Y001373D02*
X020662Y001373D01*
X017963Y001373D02*
X017963Y001523D01*
X017913Y001573D01*
X017863Y001573D01*
X017813Y001523D01*
X017813Y001373D01*
X017963Y001373D02*
X017662Y001373D01*
X017662Y001523D01*
X017712Y001573D01*
X017763Y001573D01*
X017813Y001523D01*
X017763Y001704D02*
X017662Y001804D01*
X017963Y001804D01*
X017963Y001704D02*
X017963Y001904D01*
X017963Y002036D02*
X017963Y002236D01*
X017963Y002136D02*
X017662Y002136D01*
X017763Y002036D01*
X035622Y002143D02*
X035793Y001973D01*
X035793Y002200D01*
X035963Y002143D02*
X035622Y002143D01*
X037004Y001713D02*
X037004Y001543D01*
X037118Y001600D01*
X037174Y001600D01*
X037231Y001543D01*
X037231Y001429D01*
X037174Y001373D01*
X037061Y001373D01*
X037004Y001429D01*
X037004Y001713D02*
X037231Y001713D01*
X017492Y006799D02*
X017494Y006838D01*
X017500Y006877D01*
X017510Y006915D01*
X017523Y006952D01*
X017540Y006987D01*
X017560Y007021D01*
X017584Y007052D01*
X017611Y007081D01*
X017640Y007107D01*
X017672Y007130D01*
X017706Y007150D01*
X017742Y007166D01*
X017779Y007178D01*
X017818Y007187D01*
X017857Y007192D01*
X017896Y007193D01*
X017935Y007190D01*
X017974Y007183D01*
X018011Y007172D01*
X018048Y007158D01*
X018083Y007140D01*
X018116Y007119D01*
X018147Y007094D01*
X018175Y007067D01*
X018200Y007037D01*
X018222Y007004D01*
X018241Y006970D01*
X018256Y006934D01*
X018268Y006896D01*
X018276Y006858D01*
X018280Y006819D01*
X018280Y006779D01*
X018276Y006740D01*
X018268Y006702D01*
X018256Y006664D01*
X018241Y006628D01*
X018222Y006594D01*
X018200Y006561D01*
X018175Y006531D01*
X018147Y006504D01*
X018116Y006479D01*
X018083Y006458D01*
X018048Y006440D01*
X018011Y006426D01*
X017974Y006415D01*
X017935Y006408D01*
X017896Y006405D01*
X017857Y006406D01*
X017818Y006411D01*
X017779Y006420D01*
X017742Y006432D01*
X017706Y006448D01*
X017672Y006468D01*
X017640Y006491D01*
X017611Y006517D01*
X017584Y006546D01*
X017560Y006577D01*
X017540Y006611D01*
X017523Y006646D01*
X017510Y006683D01*
X017500Y006721D01*
X017494Y006760D01*
X017492Y006799D01*
X006973Y008478D02*
X006923Y008428D01*
X006722Y008428D01*
X006672Y008478D01*
X006672Y008578D01*
X006722Y008628D01*
X006823Y008628D02*
X006823Y008528D01*
X006823Y008628D02*
X006923Y008628D01*
X006973Y008578D01*
X006973Y008478D01*
X006973Y008760D02*
X006973Y008960D01*
X006973Y008860D02*
X006672Y008860D01*
X006773Y008760D01*
X006823Y009091D02*
X006773Y009191D01*
X006773Y009241D01*
X006823Y009291D01*
X006923Y009291D01*
X006973Y009241D01*
X006973Y009141D01*
X006923Y009091D01*
X006823Y009091D02*
X006672Y009091D01*
X006672Y009291D01*
X033722Y009191D02*
X033823Y009091D01*
X033722Y009191D02*
X034023Y009191D01*
X034023Y009091D02*
X034023Y009291D01*
X034722Y009241D02*
X034722Y009141D01*
X034772Y009091D01*
X034973Y009091D01*
X034772Y009291D01*
X034973Y009291D01*
X035023Y009241D01*
X035023Y009141D01*
X034973Y009091D01*
X034772Y009291D02*
X034722Y009241D01*
X035023Y008960D02*
X035023Y008760D01*
X035023Y008860D02*
X034722Y008860D01*
X034823Y008760D01*
X034023Y008760D02*
X034023Y008960D01*
X034023Y008860D02*
X033722Y008860D01*
X033823Y008760D01*
X033772Y008628D02*
X033722Y008578D01*
X033722Y008428D01*
X034023Y008428D01*
X034023Y008578D01*
X033973Y008628D01*
X033772Y008628D01*
X034722Y008578D02*
X034722Y008428D01*
X035023Y008428D01*
X035023Y008578D01*
X034973Y008628D01*
X034772Y008628D01*
X034722Y008578D01*
D12*
X013643Y006843D02*
X013343Y006843D01*
X013343Y006793D02*
X013343Y006493D01*
X013493Y006493D01*
X013493Y004343D01*
X013643Y004343D01*
X013643Y006793D01*
X013343Y006793D01*
X013343Y006748D02*
X013643Y006748D01*
X013643Y006649D02*
X013343Y006649D01*
X013343Y006551D02*
X013643Y006551D01*
X013643Y006452D02*
X013493Y006452D01*
X013493Y006354D02*
X013643Y006354D01*
X013643Y006255D02*
X013493Y006255D01*
X013493Y006157D02*
X013643Y006157D01*
X013643Y006058D02*
X013493Y006058D01*
X013493Y005960D02*
X013643Y005960D01*
X013643Y005861D02*
X013493Y005861D01*
X013493Y005763D02*
X013643Y005763D01*
X013643Y005664D02*
X013493Y005664D01*
X013493Y005565D02*
X013643Y005565D01*
X013643Y005467D02*
X013493Y005467D01*
X013493Y005543D02*
X011893Y005543D01*
X010943Y006493D01*
X009993Y005543D01*
X009993Y004343D01*
X011443Y004343D01*
X011893Y004343D01*
X013493Y004343D01*
X013493Y004383D02*
X013643Y004383D01*
X013643Y004481D02*
X013493Y004481D01*
X013493Y004580D02*
X013643Y004580D01*
X013643Y004679D02*
X013493Y004679D01*
X013493Y004777D02*
X013643Y004777D01*
X013643Y004876D02*
X013493Y004876D01*
X013493Y004974D02*
X013643Y004974D01*
X013643Y005073D02*
X013493Y005073D01*
X013493Y005171D02*
X013643Y005171D01*
X013643Y005270D02*
X013493Y005270D01*
X013493Y005368D02*
X013643Y005368D01*
X011893Y005293D02*
X011443Y005293D01*
X011443Y004493D01*
X011893Y004493D01*
X011893Y005293D01*
X011543Y004943D02*
X011543Y004893D01*
X011443Y004493D02*
X011443Y004343D01*
X011893Y004343D02*
X011893Y004493D01*
X009993Y005543D02*
X009993Y006493D01*
X010943Y006493D01*
X013343Y006493D01*
X002743Y007943D02*
X002743Y004893D01*
X002193Y004343D01*
X000343Y004343D01*
X000343Y009343D01*
X002043Y008643D02*
X002743Y007943D01*
D13*
X010053Y008183D02*
X010053Y007603D01*
X010440Y007603D02*
X010440Y008183D01*
X010246Y007990D01*
X010053Y008183D01*
X010697Y008183D02*
X011084Y007603D01*
X010697Y007603D02*
X011084Y008183D01*
X011342Y007893D02*
X011632Y008183D01*
X011632Y007603D01*
X011986Y007699D02*
X012083Y007603D01*
X012276Y007603D01*
X012373Y007699D01*
X012373Y007796D01*
X012276Y007893D01*
X011986Y007893D01*
X011986Y007699D01*
X011986Y007893D02*
X012180Y008086D01*
X012373Y008183D01*
X012631Y008086D02*
X012728Y008183D01*
X012921Y008183D01*
X013018Y008086D01*
X012631Y007699D01*
X012728Y007603D01*
X012921Y007603D01*
X013018Y007699D01*
X013018Y008086D01*
X012631Y008086D02*
X012631Y007699D01*
X011729Y007893D02*
X011342Y007893D01*
D14*
X000143Y010543D02*
X000143Y000143D01*
X044043Y000143D01*
X044043Y010543D01*
X000143Y010543D01*
X003736Y008343D02*
X004949Y008343D01*
X005343Y007831D02*
X005343Y006843D01*
X006843Y006854D02*
X006843Y007831D01*
X007236Y008343D02*
X008449Y008343D01*
X008843Y007831D02*
X008843Y006843D01*
X007343Y007343D02*
X007345Y007387D01*
X007351Y007431D01*
X007361Y007474D01*
X007374Y007516D01*
X007391Y007557D01*
X007412Y007596D01*
X007436Y007633D01*
X007463Y007668D01*
X007493Y007700D01*
X007526Y007730D01*
X007562Y007756D01*
X007599Y007780D01*
X007639Y007799D01*
X007680Y007816D01*
X007723Y007828D01*
X007766Y007837D01*
X007810Y007842D01*
X007854Y007843D01*
X007898Y007840D01*
X007942Y007833D01*
X007985Y007822D01*
X008027Y007808D01*
X008067Y007790D01*
X008106Y007768D01*
X008142Y007744D01*
X008176Y007716D01*
X008208Y007685D01*
X008237Y007651D01*
X008263Y007615D01*
X008285Y007577D01*
X008304Y007537D01*
X008319Y007495D01*
X008331Y007453D01*
X008339Y007409D01*
X008343Y007365D01*
X008343Y007321D01*
X008339Y007277D01*
X008331Y007233D01*
X008319Y007191D01*
X008304Y007149D01*
X008285Y007109D01*
X008263Y007071D01*
X008237Y007035D01*
X008208Y007001D01*
X008176Y006970D01*
X008142Y006942D01*
X008106Y006918D01*
X008067Y006896D01*
X008027Y006878D01*
X007985Y006864D01*
X007942Y006853D01*
X007898Y006846D01*
X007854Y006843D01*
X007810Y006844D01*
X007766Y006849D01*
X007723Y006858D01*
X007680Y006870D01*
X007639Y006887D01*
X007599Y006906D01*
X007562Y006930D01*
X007526Y006956D01*
X007493Y006986D01*
X007463Y007018D01*
X007436Y007053D01*
X007412Y007090D01*
X007391Y007129D01*
X007374Y007170D01*
X007361Y007212D01*
X007351Y007255D01*
X007345Y007299D01*
X007343Y007343D01*
X003843Y007343D02*
X003845Y007387D01*
X003851Y007431D01*
X003861Y007474D01*
X003874Y007516D01*
X003891Y007557D01*
X003912Y007596D01*
X003936Y007633D01*
X003963Y007668D01*
X003993Y007700D01*
X004026Y007730D01*
X004062Y007756D01*
X004099Y007780D01*
X004139Y007799D01*
X004180Y007816D01*
X004223Y007828D01*
X004266Y007837D01*
X004310Y007842D01*
X004354Y007843D01*
X004398Y007840D01*
X004442Y007833D01*
X004485Y007822D01*
X004527Y007808D01*
X004567Y007790D01*
X004606Y007768D01*
X004642Y007744D01*
X004676Y007716D01*
X004708Y007685D01*
X004737Y007651D01*
X004763Y007615D01*
X004785Y007577D01*
X004804Y007537D01*
X004819Y007495D01*
X004831Y007453D01*
X004839Y007409D01*
X004843Y007365D01*
X004843Y007321D01*
X004839Y007277D01*
X004831Y007233D01*
X004819Y007191D01*
X004804Y007149D01*
X004785Y007109D01*
X004763Y007071D01*
X004737Y007035D01*
X004708Y007001D01*
X004676Y006970D01*
X004642Y006942D01*
X004606Y006918D01*
X004567Y006896D01*
X004527Y006878D01*
X004485Y006864D01*
X004442Y006853D01*
X004398Y006846D01*
X004354Y006843D01*
X004310Y006844D01*
X004266Y006849D01*
X004223Y006858D01*
X004180Y006870D01*
X004139Y006887D01*
X004099Y006906D01*
X004062Y006930D01*
X004026Y006956D01*
X003993Y006986D01*
X003963Y007018D01*
X003936Y007053D01*
X003912Y007090D01*
X003891Y007129D01*
X003874Y007170D01*
X003861Y007212D01*
X003851Y007255D01*
X003845Y007299D01*
X003843Y007343D01*
X003343Y007831D02*
X003343Y006854D01*
X003736Y006343D02*
X004949Y006343D01*
X007236Y006343D02*
X008449Y006343D01*
X004949Y004343D02*
X003736Y004343D01*
X003343Y003831D02*
X003343Y002854D01*
X003736Y002343D02*
X004949Y002343D01*
X005343Y002843D02*
X005343Y003831D01*
X006362Y003410D02*
X006543Y003410D01*
X006665Y003288D01*
X006417Y003288D01*
X006543Y003414D01*
X006543Y003410D02*
X006724Y003410D01*
X007862Y003410D02*
X008043Y003410D01*
X008165Y003288D01*
X007917Y003288D01*
X008043Y003414D01*
X008043Y003410D02*
X008224Y003410D01*
X009362Y003410D02*
X009543Y003410D01*
X009665Y003288D01*
X009417Y003288D01*
X009543Y003414D01*
X009543Y003410D02*
X009724Y003410D01*
X010862Y003410D02*
X011043Y003410D01*
X011165Y003288D01*
X010917Y003288D01*
X011043Y003414D01*
X011043Y003410D02*
X011224Y003410D01*
X012362Y003410D02*
X012543Y003410D01*
X012665Y003288D01*
X012417Y003288D01*
X012543Y003414D01*
X012543Y003410D02*
X012724Y003410D01*
X003843Y003343D02*
X003845Y003387D01*
X003851Y003431D01*
X003861Y003474D01*
X003874Y003516D01*
X003891Y003557D01*
X003912Y003596D01*
X003936Y003633D01*
X003963Y003668D01*
X003993Y003700D01*
X004026Y003730D01*
X004062Y003756D01*
X004099Y003780D01*
X004139Y003799D01*
X004180Y003816D01*
X004223Y003828D01*
X004266Y003837D01*
X004310Y003842D01*
X004354Y003843D01*
X004398Y003840D01*
X004442Y003833D01*
X004485Y003822D01*
X004527Y003808D01*
X004567Y003790D01*
X004606Y003768D01*
X004642Y003744D01*
X004676Y003716D01*
X004708Y003685D01*
X004737Y003651D01*
X004763Y003615D01*
X004785Y003577D01*
X004804Y003537D01*
X004819Y003495D01*
X004831Y003453D01*
X004839Y003409D01*
X004843Y003365D01*
X004843Y003321D01*
X004839Y003277D01*
X004831Y003233D01*
X004819Y003191D01*
X004804Y003149D01*
X004785Y003109D01*
X004763Y003071D01*
X004737Y003035D01*
X004708Y003001D01*
X004676Y002970D01*
X004642Y002942D01*
X004606Y002918D01*
X004567Y002896D01*
X004527Y002878D01*
X004485Y002864D01*
X004442Y002853D01*
X004398Y002846D01*
X004354Y002843D01*
X004310Y002844D01*
X004266Y002849D01*
X004223Y002858D01*
X004180Y002870D01*
X004139Y002887D01*
X004099Y002906D01*
X004062Y002930D01*
X004026Y002956D01*
X003993Y002986D01*
X003963Y003018D01*
X003936Y003053D01*
X003912Y003090D01*
X003891Y003129D01*
X003874Y003170D01*
X003861Y003212D01*
X003851Y003255D01*
X003845Y003299D01*
X003843Y003343D01*
X022858Y007528D02*
X023016Y007370D01*
X023449Y007370D01*
X024236Y007370D02*
X024827Y007370D01*
X024827Y008315D01*
X024236Y008315D01*
X023449Y008315D02*
X023016Y008315D01*
X022858Y008158D01*
X022858Y007528D01*
X029053Y007043D02*
X031633Y007043D01*
X031633Y005643D01*
X029053Y005643D01*
X029053Y007043D01*
X032475Y007632D02*
X032475Y006254D01*
X035310Y006254D01*
X035310Y007632D01*
X032475Y007632D01*
X036343Y007593D02*
X036593Y007343D01*
X036343Y007093D01*
X036343Y006593D01*
X036593Y006343D01*
X036343Y006093D01*
X036343Y005593D01*
X036593Y005343D01*
X036343Y005093D01*
X036343Y004593D01*
X036593Y004343D01*
X036343Y004093D01*
X036343Y003593D01*
X036593Y003343D01*
X037093Y003343D01*
X037343Y003593D01*
X037343Y004093D01*
X037093Y004343D01*
X037343Y004593D01*
X037343Y005093D01*
X037093Y005343D01*
X037343Y005593D01*
X037343Y006093D01*
X037093Y006343D01*
X037343Y006593D01*
X037343Y007093D01*
X037093Y007343D01*
X037343Y007593D01*
X037343Y008093D01*
X037093Y008343D01*
X036593Y008343D01*
X036343Y008093D01*
X036343Y007593D01*
X038343Y007593D02*
X038593Y007843D01*
X038343Y008093D01*
X038343Y008593D01*
X038593Y008843D01*
X039093Y008843D01*
X039343Y008593D01*
X039343Y008093D01*
X039093Y007843D01*
X039343Y007593D01*
X039343Y007093D01*
X039093Y006843D01*
X038593Y006843D01*
X038343Y007093D01*
X038343Y007593D01*
X036098Y005064D02*
X034287Y005064D01*
X034287Y004886D01*
X034799Y004886D02*
X034799Y004099D01*
X034287Y004099D02*
X034287Y003922D01*
X036098Y003922D01*
X036098Y004099D01*
X036093Y003343D02*
X035593Y003343D01*
X035343Y003093D01*
X035093Y003343D01*
X034593Y003343D01*
X034343Y003093D01*
X034343Y002593D01*
X034593Y002343D01*
X035093Y002343D01*
X035343Y002593D01*
X035593Y002343D01*
X036093Y002343D01*
X036343Y002593D01*
X036343Y003093D01*
X036093Y003343D01*
X034343Y003093D02*
X034343Y002593D01*
X034093Y002343D01*
X033593Y002343D01*
X033343Y002593D01*
X033343Y003093D01*
X033593Y003343D01*
X034093Y003343D01*
X034343Y003093D01*
X033343Y003093D02*
X033343Y002593D01*
X033093Y002343D01*
X032593Y002343D01*
X032343Y002593D01*
X032343Y003093D01*
X032093Y003343D01*
X031593Y003343D01*
X031343Y003093D01*
X031343Y002593D01*
X031593Y002343D01*
X032093Y002343D01*
X032343Y002593D01*
X032343Y003093D01*
X032593Y003343D01*
X033093Y003343D01*
X033343Y003093D01*
X029927Y003158D02*
X029927Y002528D01*
X029769Y002370D01*
X029336Y002370D01*
X028549Y002370D02*
X027958Y002370D01*
X027958Y003315D01*
X028549Y003315D01*
X029336Y003315D02*
X029769Y003315D01*
X029927Y003158D01*
X028283Y003643D02*
X025703Y003643D01*
X025703Y005043D01*
X028283Y005043D01*
X028283Y003643D01*
X024973Y004106D02*
X024973Y004579D01*
X023713Y004579D02*
X023713Y004106D01*
X024225Y003358D02*
X024461Y003358D01*
X024461Y005327D02*
X024225Y005327D01*
X036098Y005064D02*
X036098Y004886D01*
D15*
X040543Y004063D02*
X040543Y003669D01*
X041449Y004339D02*
X042433Y004339D01*
X040543Y002016D02*
X040543Y001543D01*
X041488Y001347D02*
X042433Y001347D01*
X029593Y007343D02*
X027093Y007343D01*
X027093Y008343D01*
X029593Y008343D01*
X029593Y007343D01*
D16*
X033135Y006943D02*
X033137Y006968D01*
X033143Y006993D01*
X033152Y007017D01*
X033165Y007039D01*
X033182Y007059D01*
X033201Y007076D01*
X033222Y007090D01*
X033246Y007100D01*
X033270Y007107D01*
X033296Y007110D01*
X033321Y007109D01*
X033346Y007104D01*
X033370Y007095D01*
X033393Y007083D01*
X033413Y007068D01*
X033431Y007049D01*
X033446Y007028D01*
X033457Y007005D01*
X033465Y006981D01*
X033469Y006956D01*
X033469Y006930D01*
X033465Y006905D01*
X033457Y006881D01*
X033446Y006858D01*
X033431Y006837D01*
X033413Y006818D01*
X033393Y006803D01*
X033370Y006791D01*
X033346Y006782D01*
X033321Y006777D01*
X033296Y006776D01*
X033270Y006779D01*
X033246Y006786D01*
X033222Y006796D01*
X033201Y006810D01*
X033182Y006827D01*
X033165Y006847D01*
X033152Y006869D01*
X033143Y006893D01*
X033137Y006918D01*
X033135Y006943D01*
X034316Y006943D02*
X034318Y006968D01*
X034324Y006993D01*
X034333Y007017D01*
X034346Y007039D01*
X034363Y007059D01*
X034382Y007076D01*
X034403Y007090D01*
X034427Y007100D01*
X034451Y007107D01*
X034477Y007110D01*
X034502Y007109D01*
X034527Y007104D01*
X034551Y007095D01*
X034574Y007083D01*
X034594Y007068D01*
X034612Y007049D01*
X034627Y007028D01*
X034638Y007005D01*
X034646Y006981D01*
X034650Y006956D01*
X034650Y006930D01*
X034646Y006905D01*
X034638Y006881D01*
X034627Y006858D01*
X034612Y006837D01*
X034594Y006818D01*
X034574Y006803D01*
X034551Y006791D01*
X034527Y006782D01*
X034502Y006777D01*
X034477Y006776D01*
X034451Y006779D01*
X034427Y006786D01*
X034403Y006796D01*
X034382Y006810D01*
X034363Y006827D01*
X034346Y006847D01*
X034333Y006869D01*
X034324Y006893D01*
X034318Y006918D01*
X034316Y006943D01*
X038193Y005343D02*
X038195Y005393D01*
X038201Y005443D01*
X038211Y005493D01*
X038224Y005541D01*
X038241Y005589D01*
X038262Y005635D01*
X038286Y005679D01*
X038314Y005721D01*
X038345Y005761D01*
X038379Y005798D01*
X038416Y005833D01*
X038455Y005864D01*
X038496Y005893D01*
X038540Y005918D01*
X038586Y005940D01*
X038633Y005958D01*
X038681Y005972D01*
X038730Y005983D01*
X038780Y005990D01*
X038830Y005993D01*
X038881Y005992D01*
X038931Y005987D01*
X038981Y005978D01*
X039029Y005966D01*
X039077Y005949D01*
X039123Y005929D01*
X039168Y005906D01*
X039211Y005879D01*
X039251Y005849D01*
X039289Y005816D01*
X039324Y005780D01*
X039357Y005741D01*
X039386Y005700D01*
X039412Y005657D01*
X039435Y005612D01*
X039454Y005565D01*
X039469Y005517D01*
X039481Y005468D01*
X039489Y005418D01*
X039493Y005368D01*
X039493Y005318D01*
X039489Y005268D01*
X039481Y005218D01*
X039469Y005169D01*
X039454Y005121D01*
X039435Y005074D01*
X039412Y005029D01*
X039386Y004986D01*
X039357Y004945D01*
X039324Y004906D01*
X039289Y004870D01*
X039251Y004837D01*
X039211Y004807D01*
X039168Y004780D01*
X039123Y004757D01*
X039077Y004737D01*
X039029Y004720D01*
X038981Y004708D01*
X038931Y004699D01*
X038881Y004694D01*
X038830Y004693D01*
X038780Y004696D01*
X038730Y004703D01*
X038681Y004714D01*
X038633Y004728D01*
X038586Y004746D01*
X038540Y004768D01*
X038496Y004793D01*
X038455Y004822D01*
X038416Y004853D01*
X038379Y004888D01*
X038345Y004925D01*
X038314Y004965D01*
X038286Y005007D01*
X038262Y005051D01*
X038241Y005097D01*
X038224Y005145D01*
X038211Y005193D01*
X038201Y005243D01*
X038195Y005293D01*
X038193Y005343D01*
X041666Y003709D02*
X041668Y003735D01*
X041674Y003761D01*
X041684Y003786D01*
X041697Y003809D01*
X041713Y003829D01*
X041733Y003847D01*
X041755Y003862D01*
X041778Y003874D01*
X041804Y003882D01*
X041830Y003886D01*
X041856Y003886D01*
X041882Y003882D01*
X041908Y003874D01*
X041932Y003862D01*
X041953Y003847D01*
X041973Y003829D01*
X041989Y003809D01*
X042002Y003786D01*
X042012Y003761D01*
X042018Y003735D01*
X042020Y003709D01*
X042018Y003683D01*
X042012Y003657D01*
X042002Y003632D01*
X041989Y003609D01*
X041973Y003589D01*
X041953Y003571D01*
X041931Y003556D01*
X041908Y003544D01*
X041882Y003536D01*
X041856Y003532D01*
X041830Y003532D01*
X041804Y003536D01*
X041778Y003544D01*
X041754Y003556D01*
X041733Y003571D01*
X041713Y003589D01*
X041697Y003609D01*
X041684Y003632D01*
X041674Y003657D01*
X041668Y003683D01*
X041666Y003709D01*
X041666Y001977D02*
X041668Y002003D01*
X041674Y002029D01*
X041684Y002054D01*
X041697Y002077D01*
X041713Y002097D01*
X041733Y002115D01*
X041755Y002130D01*
X041778Y002142D01*
X041804Y002150D01*
X041830Y002154D01*
X041856Y002154D01*
X041882Y002150D01*
X041908Y002142D01*
X041932Y002130D01*
X041953Y002115D01*
X041973Y002097D01*
X041989Y002077D01*
X042002Y002054D01*
X042012Y002029D01*
X042018Y002003D01*
X042020Y001977D01*
X042018Y001951D01*
X042012Y001925D01*
X042002Y001900D01*
X041989Y001877D01*
X041973Y001857D01*
X041953Y001839D01*
X041931Y001824D01*
X041908Y001812D01*
X041882Y001804D01*
X041856Y001800D01*
X041830Y001800D01*
X041804Y001804D01*
X041778Y001812D01*
X041754Y001824D01*
X041733Y001839D01*
X041713Y001857D01*
X041697Y001877D01*
X041684Y001900D01*
X041674Y001925D01*
X041668Y001951D01*
X041666Y001977D01*
X008193Y005343D02*
X008195Y005393D01*
X008201Y005443D01*
X008211Y005493D01*
X008224Y005541D01*
X008241Y005589D01*
X008262Y005635D01*
X008286Y005679D01*
X008314Y005721D01*
X008345Y005761D01*
X008379Y005798D01*
X008416Y005833D01*
X008455Y005864D01*
X008496Y005893D01*
X008540Y005918D01*
X008586Y005940D01*
X008633Y005958D01*
X008681Y005972D01*
X008730Y005983D01*
X008780Y005990D01*
X008830Y005993D01*
X008881Y005992D01*
X008931Y005987D01*
X008981Y005978D01*
X009029Y005966D01*
X009077Y005949D01*
X009123Y005929D01*
X009168Y005906D01*
X009211Y005879D01*
X009251Y005849D01*
X009289Y005816D01*
X009324Y005780D01*
X009357Y005741D01*
X009386Y005700D01*
X009412Y005657D01*
X009435Y005612D01*
X009454Y005565D01*
X009469Y005517D01*
X009481Y005468D01*
X009489Y005418D01*
X009493Y005368D01*
X009493Y005318D01*
X009489Y005268D01*
X009481Y005218D01*
X009469Y005169D01*
X009454Y005121D01*
X009435Y005074D01*
X009412Y005029D01*
X009386Y004986D01*
X009357Y004945D01*
X009324Y004906D01*
X009289Y004870D01*
X009251Y004837D01*
X009211Y004807D01*
X009168Y004780D01*
X009123Y004757D01*
X009077Y004737D01*
X009029Y004720D01*
X008981Y004708D01*
X008931Y004699D01*
X008881Y004694D01*
X008830Y004693D01*
X008780Y004696D01*
X008730Y004703D01*
X008681Y004714D01*
X008633Y004728D01*
X008586Y004746D01*
X008540Y004768D01*
X008496Y004793D01*
X008455Y004822D01*
X008416Y004853D01*
X008379Y004888D01*
X008345Y004925D01*
X008314Y004965D01*
X008286Y005007D01*
X008262Y005051D01*
X008241Y005097D01*
X008224Y005145D01*
X008211Y005193D01*
X008201Y005243D01*
X008195Y005293D01*
X008193Y005343D01*
D17*
X013343Y006493D02*
X013343Y006843D01*
X013643Y006843D02*
X013643Y004343D01*
X013493Y004343D01*
X013493Y005543D01*
X013493Y006493D01*
X013343Y006493D01*
M02*
