G75*
G70*
%OFA0B0*%
%FSLAX24Y24*%
%IPPOS*%
%LPD*%
%AMOC8*
5,1,8,0,0,1.08239X$1,22.5*
%
%ADD10C,0.0100*%
%ADD11C,0.0740*%
%ADD12R,0.0740X0.0740*%
%ADD13C,0.1310*%
%ADD14R,0.1181X0.0354*%
%ADD15C,0.0350*%
%ADD16C,0.0160*%
%ADD17C,0.0080*%
D10*
X000343Y000343D02*
X001343Y000343D01*
X001343Y001393D01*
X001309Y001328D02*
X001656Y001328D01*
X001739Y001363D02*
X001548Y001283D01*
X001402Y001137D01*
X001363Y001042D01*
X001363Y001275D01*
X001275Y001363D01*
X001042Y001363D01*
X001137Y001402D01*
X001283Y001548D01*
X001363Y001739D01*
X001363Y001946D01*
X001283Y002137D01*
X001227Y002194D01*
X001326Y002293D01*
X015060Y002293D01*
X015143Y002210D01*
X015260Y002093D01*
X016460Y002093D01*
X016626Y002093D01*
X016881Y002348D01*
X016927Y002367D01*
X017018Y002459D01*
X017068Y002578D01*
X017068Y002707D01*
X017063Y002718D01*
X017157Y002718D01*
X017277Y002767D01*
X017368Y002859D01*
X017418Y002978D01*
X017418Y003072D01*
X017428Y003068D01*
X017557Y003068D01*
X017677Y003117D01*
X017768Y003209D01*
X017818Y003328D01*
X017818Y003457D01*
X017768Y003577D01*
X017677Y003668D01*
X017557Y003718D01*
X017428Y003718D01*
X017309Y003668D01*
X017233Y003593D01*
X015525Y003593D01*
X016726Y004793D01*
X017782Y004793D01*
X017817Y004709D01*
X017909Y004617D01*
X018028Y004568D01*
X018157Y004568D01*
X018277Y004617D01*
X018368Y004709D01*
X018405Y004798D01*
X018510Y004693D01*
X018783Y004693D01*
X018859Y004617D01*
X018978Y004568D01*
X019107Y004568D01*
X019227Y004617D01*
X019318Y004709D01*
X019368Y004828D01*
X019368Y004957D01*
X019318Y005077D01*
X019227Y005168D01*
X019107Y005218D01*
X019013Y005218D01*
X019018Y005228D01*
X019018Y005318D01*
X019107Y005318D01*
X019227Y005367D01*
X019318Y005459D01*
X019368Y005578D01*
X019368Y005707D01*
X019318Y005827D01*
X019227Y005918D01*
X019107Y005968D01*
X018978Y005968D01*
X018968Y005963D01*
X018968Y006057D01*
X018918Y006177D01*
X018827Y006268D01*
X018707Y006318D01*
X018578Y006318D01*
X018459Y006268D01*
X018367Y006177D01*
X018318Y006057D01*
X018318Y006043D01*
X016210Y006043D01*
X016093Y005926D01*
X015718Y005550D01*
X015718Y005607D01*
X015668Y005727D01*
X015577Y005818D01*
X015457Y005868D01*
X015328Y005868D01*
X015209Y005818D01*
X015117Y005727D01*
X015068Y005607D01*
X015068Y005501D01*
X014260Y004693D01*
X009324Y004693D01*
X009521Y004889D01*
X009643Y005184D01*
X009643Y005502D01*
X009521Y005796D01*
X009296Y006021D01*
X009002Y006143D01*
X008684Y006143D01*
X008389Y006021D01*
X008164Y005796D01*
X008043Y005502D01*
X008043Y005184D01*
X008164Y004889D01*
X008361Y004693D01*
X005376Y004693D01*
X005193Y004876D01*
X005192Y004876D02*
X008178Y004876D01*
X008129Y004974D02*
X007484Y004974D01*
X007477Y004967D02*
X007568Y005059D01*
X007618Y005178D01*
X007618Y005268D01*
X007707Y005268D01*
X007827Y005317D01*
X007918Y005409D01*
X007968Y005528D01*
X007968Y005657D01*
X007918Y005777D01*
X007843Y005852D01*
X007843Y006060D01*
X008326Y006543D01*
X013360Y006543D01*
X013743Y006160D01*
X013860Y006043D01*
X017910Y006043D01*
X018076Y006043D01*
X018551Y006518D01*
X018557Y006518D01*
X018677Y006567D01*
X018768Y006659D01*
X018818Y006778D01*
X018818Y006907D01*
X018768Y007027D01*
X018693Y007102D01*
X018693Y007526D01*
X018576Y007643D01*
X017843Y008376D01*
X017726Y008493D01*
X016476Y008493D01*
X015776Y008493D01*
X015043Y009226D01*
X015043Y009363D01*
X015137Y009402D01*
X015283Y009548D01*
X015343Y009691D01*
X015402Y009548D01*
X015548Y009402D01*
X015739Y009323D01*
X015946Y009323D01*
X016041Y009362D01*
X016810Y008593D01*
X016976Y008593D01*
X018218Y008593D01*
X018218Y008528D01*
X018267Y008409D01*
X018359Y008317D01*
X018478Y008268D01*
X018607Y008268D01*
X018727Y008317D01*
X018818Y008409D01*
X018868Y008528D01*
X018868Y008657D01*
X018818Y008777D01*
X018777Y008818D01*
X018818Y008859D01*
X018868Y008978D01*
X018868Y009107D01*
X018818Y009227D01*
X018727Y009318D01*
X018607Y009368D01*
X018478Y009368D01*
X018359Y009318D01*
X018283Y009243D01*
X017726Y009243D01*
X017579Y009389D01*
X017739Y009323D01*
X017946Y009323D01*
X018137Y009402D01*
X018283Y009548D01*
X018343Y009691D01*
X018402Y009548D01*
X018548Y009402D01*
X018739Y009323D01*
X018946Y009323D01*
X019137Y009402D01*
X019283Y009548D01*
X019343Y009691D01*
X019402Y009548D01*
X019434Y009516D01*
X019343Y009426D01*
X019210Y009293D01*
X019210Y009293D01*
X019093Y009176D01*
X019093Y007652D01*
X019017Y007577D01*
X018968Y007457D01*
X018968Y007328D01*
X019017Y007209D01*
X019109Y007117D01*
X019228Y007068D01*
X019357Y007068D01*
X019477Y007117D01*
X019568Y007209D01*
X019618Y007328D01*
X019618Y007457D01*
X019568Y007577D01*
X019493Y007652D01*
X019493Y009010D01*
X019626Y009143D01*
X020010Y009143D01*
X020176Y009143D01*
X020491Y009459D01*
X020548Y009402D01*
X020739Y009323D01*
X020946Y009323D01*
X021137Y009402D01*
X021283Y009548D01*
X021343Y009691D01*
X021381Y009599D01*
X019703Y007921D01*
X019703Y007764D01*
X019703Y007062D01*
X019617Y006977D01*
X019568Y006857D01*
X019568Y006728D01*
X019613Y006620D01*
X019609Y006618D01*
X019597Y006607D01*
X019568Y006677D01*
X019477Y006768D01*
X019357Y006818D01*
X019228Y006818D01*
X019109Y006768D01*
X019017Y006677D01*
X018968Y006557D01*
X018968Y006428D01*
X019017Y006309D01*
X019109Y006217D01*
X019228Y006168D01*
X019249Y006168D01*
X019503Y005914D01*
X019614Y005803D01*
X019936Y005803D01*
X019918Y005757D01*
X019918Y005628D01*
X019967Y005509D01*
X020059Y005417D01*
X020178Y005368D01*
X020307Y005368D01*
X020427Y005417D01*
X020493Y005483D01*
X020559Y005417D01*
X020642Y005383D01*
X020464Y005383D01*
X020353Y005271D01*
X020253Y005171D01*
X019219Y005171D01*
X019320Y005073D02*
X020213Y005073D01*
X020253Y005112D02*
X020167Y005027D01*
X020118Y004907D01*
X020118Y004778D01*
X020167Y004659D01*
X020259Y004567D01*
X020378Y004518D01*
X020507Y004518D01*
X020627Y004567D01*
X020693Y004633D01*
X020709Y004617D01*
X020828Y004568D01*
X020868Y004568D01*
X020868Y004478D01*
X020917Y004359D01*
X021009Y004267D01*
X021128Y004218D01*
X021257Y004218D01*
X021377Y004267D01*
X021468Y004359D01*
X021497Y004428D01*
X022171Y005103D01*
X022283Y005214D01*
X022283Y005814D01*
X023021Y006553D01*
X024264Y006553D01*
X025814Y006553D01*
X026093Y006274D01*
X026093Y006260D01*
X026210Y006143D01*
X035260Y006143D01*
X036362Y005041D01*
X036323Y004946D01*
X036323Y004739D01*
X036402Y004548D01*
X036548Y004402D01*
X036691Y004343D01*
X036548Y004283D01*
X036402Y004137D01*
X036375Y004073D01*
X035938Y004073D01*
X035788Y004223D01*
X035573Y004438D01*
X035573Y005263D01*
X035618Y005309D01*
X035668Y005428D01*
X035668Y005557D01*
X035618Y005677D01*
X035527Y005768D01*
X035407Y005818D01*
X035278Y005818D01*
X035159Y005768D01*
X035067Y005677D01*
X035018Y005557D01*
X035018Y005428D01*
X035067Y005309D01*
X035113Y005263D01*
X035113Y004247D01*
X035167Y004193D01*
X027052Y004193D01*
X027118Y004259D01*
X027168Y004378D01*
X027168Y004507D01*
X027118Y004627D01*
X027073Y004672D01*
X027073Y004747D01*
X027438Y005113D01*
X028424Y005113D01*
X028467Y005009D01*
X028559Y004917D01*
X028678Y004868D01*
X028807Y004868D01*
X028927Y004917D01*
X029018Y005009D01*
X029068Y005128D01*
X029068Y005257D01*
X029018Y005377D01*
X028927Y005468D01*
X028807Y005518D01*
X028743Y005518D01*
X028688Y005573D01*
X028497Y005573D01*
X027247Y005573D01*
X027113Y005438D01*
X026613Y004938D01*
X026613Y004747D01*
X026613Y004672D01*
X026567Y004627D01*
X026518Y004507D01*
X026518Y004378D01*
X026567Y004259D01*
X026633Y004193D01*
X026576Y004193D01*
X026276Y004493D01*
X026110Y004493D01*
X025326Y004493D01*
X024193Y005626D01*
X024193Y006026D01*
X024076Y006143D01*
X023826Y006393D01*
X023660Y006393D01*
X022960Y006393D01*
X022843Y006276D01*
X022443Y005876D01*
X022443Y005710D01*
X022443Y005076D01*
X021435Y004068D01*
X021328Y004068D01*
X021209Y004018D01*
X021117Y003927D01*
X021068Y003807D01*
X021068Y003678D01*
X021117Y003559D01*
X021209Y003467D01*
X021328Y003418D01*
X021457Y003418D01*
X021577Y003467D01*
X021668Y003559D01*
X021718Y003678D01*
X021718Y003785D01*
X022726Y004793D01*
X022729Y004796D01*
X022733Y004793D01*
X022667Y004727D01*
X022618Y004607D01*
X022618Y004478D01*
X022667Y004359D01*
X022683Y004343D01*
X022617Y004277D01*
X022568Y004157D01*
X022568Y004028D01*
X022617Y003909D01*
X022709Y003817D01*
X022828Y003768D01*
X022935Y003768D01*
X023010Y003693D01*
X023083Y003693D01*
X023067Y003677D01*
X023018Y003557D01*
X023018Y003543D01*
X022957Y003568D01*
X022828Y003568D01*
X022709Y003518D01*
X022617Y003427D01*
X022603Y003392D01*
X022577Y003418D01*
X022457Y003468D01*
X022328Y003468D01*
X022209Y003418D01*
X022117Y003327D01*
X022068Y003207D01*
X022068Y003078D01*
X022117Y002959D01*
X022209Y002867D01*
X022328Y002818D01*
X022435Y002818D01*
X022543Y002710D01*
X022660Y002593D01*
X023610Y002593D01*
X024260Y001943D01*
X023026Y001943D01*
X021968Y003001D01*
X021968Y003107D01*
X021918Y003227D01*
X021827Y003318D01*
X021707Y003368D01*
X021578Y003368D01*
X021459Y003318D01*
X021367Y003227D01*
X021330Y003138D01*
X020939Y003529D01*
X020968Y003559D01*
X021018Y003678D01*
X021018Y003807D01*
X020968Y003927D01*
X020877Y004018D01*
X020757Y004068D01*
X020628Y004068D01*
X020555Y004037D01*
X020518Y004127D01*
X020427Y004218D01*
X020307Y004268D01*
X020178Y004268D01*
X020059Y004218D01*
X019967Y004127D01*
X019918Y004007D01*
X019918Y003878D01*
X019937Y003831D01*
X019926Y003843D01*
X019837Y003931D01*
X019818Y003977D01*
X019727Y004068D01*
X019607Y004118D01*
X019478Y004118D01*
X019359Y004068D01*
X019267Y003977D01*
X019218Y003857D01*
X019218Y003728D01*
X019267Y003609D01*
X019333Y003543D01*
X019267Y003477D01*
X019218Y003357D01*
X019218Y003228D01*
X019267Y003109D01*
X019359Y003017D01*
X019478Y002968D01*
X019607Y002968D01*
X019697Y003005D01*
X020643Y002060D01*
X020643Y001323D01*
X020548Y001283D01*
X020402Y001137D01*
X020343Y000994D01*
X020283Y001137D01*
X020137Y001283D01*
X019946Y001363D01*
X019739Y001363D01*
X019548Y001283D01*
X019402Y001137D01*
X019343Y000994D01*
X019283Y001137D01*
X019137Y001283D01*
X018946Y001363D01*
X018739Y001363D01*
X018548Y001283D01*
X018402Y001137D01*
X018343Y000994D01*
X018283Y001137D01*
X018137Y001283D01*
X018043Y001323D01*
X018043Y002210D01*
X018875Y003043D01*
X018876Y003043D01*
X018993Y003160D01*
X018993Y003676D01*
X018876Y003793D01*
X018768Y003901D01*
X018768Y004007D01*
X018718Y004127D01*
X018627Y004218D01*
X018507Y004268D01*
X018378Y004268D01*
X018259Y004218D01*
X018167Y004127D01*
X018118Y004007D01*
X018118Y003878D01*
X018167Y003759D01*
X018233Y003693D01*
X018167Y003627D01*
X018118Y003507D01*
X018118Y003378D01*
X018155Y003288D01*
X016643Y001776D01*
X016643Y001610D01*
X016643Y001323D01*
X016548Y001283D01*
X016402Y001137D01*
X016343Y000994D01*
X016283Y001137D01*
X016137Y001283D01*
X015946Y001363D01*
X015739Y001363D01*
X015548Y001283D01*
X015402Y001137D01*
X015343Y000994D01*
X015283Y001137D01*
X015137Y001283D01*
X014946Y001363D01*
X014739Y001363D01*
X014548Y001283D01*
X014402Y001137D01*
X014343Y000994D01*
X014283Y001137D01*
X014137Y001283D01*
X013946Y001363D01*
X013739Y001363D01*
X013548Y001283D01*
X013402Y001137D01*
X013343Y000994D01*
X013283Y001137D01*
X013137Y001283D01*
X012946Y001363D01*
X012739Y001363D01*
X012548Y001283D01*
X012402Y001137D01*
X012343Y000994D01*
X012283Y001137D01*
X012137Y001283D01*
X011946Y001363D01*
X011739Y001363D01*
X011548Y001283D01*
X011402Y001137D01*
X011343Y000994D01*
X011283Y001137D01*
X011137Y001283D01*
X010946Y001363D01*
X010739Y001363D01*
X010548Y001283D01*
X010402Y001137D01*
X010343Y000994D01*
X010283Y001137D01*
X010137Y001283D01*
X009946Y001363D01*
X009739Y001363D01*
X009548Y001283D01*
X009402Y001137D01*
X009343Y000994D01*
X009283Y001137D01*
X009137Y001283D01*
X008946Y001363D01*
X008739Y001363D01*
X008548Y001283D01*
X008402Y001137D01*
X008343Y000994D01*
X008283Y001137D01*
X008137Y001283D01*
X007946Y001363D01*
X007739Y001363D01*
X007548Y001283D01*
X007402Y001137D01*
X007343Y000994D01*
X007283Y001137D01*
X007137Y001283D01*
X006946Y001363D01*
X006739Y001363D01*
X006548Y001283D01*
X006402Y001137D01*
X006343Y000994D01*
X006283Y001137D01*
X006137Y001283D01*
X005946Y001363D01*
X005739Y001363D01*
X005548Y001283D01*
X005402Y001137D01*
X005343Y000994D01*
X005283Y001137D01*
X005137Y001283D01*
X004946Y001363D01*
X004739Y001363D01*
X004548Y001283D01*
X004402Y001137D01*
X004343Y000994D01*
X004283Y001137D01*
X004137Y001283D01*
X003946Y001363D01*
X003739Y001363D01*
X003548Y001283D01*
X003402Y001137D01*
X003343Y000994D01*
X003283Y001137D01*
X003137Y001283D01*
X002946Y001363D01*
X002739Y001363D01*
X002548Y001283D01*
X002402Y001137D01*
X002343Y000994D01*
X002283Y001137D01*
X002137Y001283D01*
X001946Y001363D01*
X001739Y001363D01*
X001494Y001230D02*
X001363Y001230D01*
X001363Y001131D02*
X001399Y001131D01*
X002191Y001230D02*
X002494Y001230D01*
X002399Y001131D02*
X002286Y001131D01*
X002327Y001032D02*
X002359Y001032D01*
X003191Y001230D02*
X003494Y001230D01*
X003399Y001131D02*
X003286Y001131D01*
X003327Y001032D02*
X003359Y001032D01*
X004191Y001230D02*
X004494Y001230D01*
X004399Y001131D02*
X004286Y001131D01*
X004327Y001032D02*
X004359Y001032D01*
X005191Y001230D02*
X005494Y001230D01*
X005399Y001131D02*
X005286Y001131D01*
X005327Y001032D02*
X005359Y001032D01*
X006191Y001230D02*
X006494Y001230D01*
X006399Y001131D02*
X006286Y001131D01*
X006327Y001032D02*
X006359Y001032D01*
X007191Y001230D02*
X007494Y001230D01*
X007399Y001131D02*
X007286Y001131D01*
X007327Y001032D02*
X007359Y001032D01*
X008191Y001230D02*
X008494Y001230D01*
X008399Y001131D02*
X008286Y001131D01*
X008327Y001032D02*
X008359Y001032D01*
X009191Y001230D02*
X009494Y001230D01*
X009399Y001131D02*
X009286Y001131D01*
X009327Y001032D02*
X009358Y001032D01*
X010191Y001230D02*
X010494Y001230D01*
X010399Y001131D02*
X010286Y001131D01*
X010327Y001032D02*
X010358Y001032D01*
X011191Y001230D02*
X011494Y001230D01*
X011399Y001131D02*
X011286Y001131D01*
X011327Y001032D02*
X011358Y001032D01*
X012191Y001230D02*
X012494Y001230D01*
X012399Y001131D02*
X012286Y001131D01*
X012327Y001032D02*
X012358Y001032D01*
X013191Y001230D02*
X013494Y001230D01*
X013399Y001131D02*
X013286Y001131D01*
X013327Y001032D02*
X013358Y001032D01*
X014191Y001230D02*
X014494Y001230D01*
X014399Y001131D02*
X014286Y001131D01*
X014327Y001032D02*
X014358Y001032D01*
X015191Y001230D02*
X015494Y001230D01*
X015399Y001131D02*
X015286Y001131D01*
X015327Y001032D02*
X015358Y001032D01*
X016191Y001230D02*
X016494Y001230D01*
X016399Y001131D02*
X016286Y001131D01*
X016327Y001032D02*
X016358Y001032D01*
X016843Y000843D02*
X016843Y001693D01*
X018443Y003293D01*
X018443Y003443D01*
X018154Y003595D02*
X017750Y003595D01*
X017802Y003496D02*
X018118Y003496D01*
X018118Y003398D02*
X017818Y003398D01*
X017806Y003299D02*
X018150Y003299D01*
X018068Y003200D02*
X017760Y003200D01*
X017640Y003102D02*
X017969Y003102D01*
X017871Y003003D02*
X017418Y003003D01*
X017387Y002905D02*
X017772Y002905D01*
X017673Y002806D02*
X017316Y002806D01*
X017067Y002708D02*
X017575Y002708D01*
X017476Y002609D02*
X017068Y002609D01*
X017040Y002511D02*
X017378Y002511D01*
X017279Y002412D02*
X016972Y002412D01*
X016846Y002314D02*
X017181Y002314D01*
X017082Y002215D02*
X016748Y002215D01*
X016649Y002116D02*
X016984Y002116D01*
X016885Y002018D02*
X008943Y002018D01*
X008943Y002026D02*
X008893Y002076D01*
X008775Y002193D01*
X008675Y002193D01*
X008510Y002193D01*
X008460Y002143D01*
X008460Y002143D01*
X008433Y002117D01*
X008357Y002193D01*
X008191Y002193D01*
X008074Y002076D01*
X008074Y001951D01*
X007926Y002173D01*
X007764Y002205D01*
X007700Y002163D01*
X007671Y002193D01*
X007505Y002193D01*
X007405Y002193D01*
X007379Y002167D01*
X007352Y002193D01*
X007187Y002193D01*
X006986Y002193D01*
X006879Y002086D01*
X006821Y002173D01*
X006659Y002205D01*
X006596Y002163D01*
X006566Y002193D01*
X006400Y002193D01*
X006300Y002193D01*
X006249Y002142D01*
X006197Y002193D01*
X006032Y002193D01*
X005932Y002193D01*
X005882Y002143D01*
X005881Y002143D01*
X005855Y002117D01*
X005779Y002193D01*
X005613Y002193D01*
X005537Y002117D01*
X005461Y002193D01*
X005361Y002193D01*
X005195Y002193D01*
X005145Y002143D01*
X005028Y002026D01*
X005028Y001860D01*
X005028Y001826D01*
X005028Y001660D01*
X005078Y001610D01*
X005195Y001493D01*
X005295Y001493D01*
X005461Y001493D01*
X005487Y001519D01*
X005513Y001493D01*
X005879Y001493D01*
X005905Y001519D01*
X005932Y001493D01*
X006032Y001493D01*
X006197Y001493D01*
X006224Y001519D01*
X006250Y001493D01*
X006450Y001493D01*
X006616Y001493D01*
X006723Y001600D01*
X006781Y001513D01*
X006943Y001480D01*
X007007Y001523D01*
X007036Y001493D01*
X007137Y001493D01*
X007302Y001493D01*
X007329Y001519D01*
X007355Y001493D01*
X007555Y001493D01*
X007721Y001493D01*
X007828Y001600D01*
X007886Y001513D01*
X008048Y001480D01*
X008081Y001503D01*
X008091Y001493D01*
X008457Y001493D01*
X008483Y001519D01*
X008510Y001493D01*
X008610Y001493D01*
X008775Y001493D01*
X008826Y001543D01*
X008943Y001660D01*
X008943Y001826D01*
X008943Y001860D01*
X008943Y002026D01*
X008893Y002076D02*
X008893Y002076D01*
X008852Y002116D02*
X015236Y002116D01*
X015137Y002215D02*
X001248Y002215D01*
X001292Y002116D02*
X005119Y002116D01*
X005028Y002018D02*
X001333Y002018D01*
X001363Y001919D02*
X005028Y001919D01*
X005028Y001821D02*
X001363Y001821D01*
X001356Y001722D02*
X005028Y001722D01*
X005064Y001624D02*
X001315Y001624D01*
X001261Y001525D02*
X005162Y001525D01*
X005278Y001693D02*
X005378Y001693D01*
X005428Y001743D01*
X005228Y001943D01*
X005228Y001743D01*
X005278Y001693D01*
X005428Y001743D02*
X005428Y001943D01*
X005378Y001993D01*
X005278Y001993D01*
X005228Y001943D01*
X005696Y001993D02*
X005696Y001693D01*
X005796Y001693D02*
X005596Y001693D01*
X005964Y001743D02*
X006014Y001693D01*
X006114Y001693D01*
X006165Y001743D01*
X005964Y001943D01*
X005964Y001743D01*
X006165Y001743D02*
X006165Y001943D01*
X006114Y001993D01*
X006014Y001993D01*
X005964Y001943D01*
X005796Y001893D02*
X005696Y001993D01*
X006333Y001943D02*
X006333Y001893D01*
X006533Y001693D01*
X006333Y001693D01*
X006648Y001525D02*
X006772Y001525D01*
X006901Y001693D02*
X006701Y001993D01*
X006533Y001943D02*
X006483Y001993D01*
X006383Y001993D01*
X006333Y001943D01*
X006859Y002116D02*
X006910Y002116D01*
X007069Y001993D02*
X007269Y001993D01*
X007269Y001843D01*
X007169Y001893D01*
X007119Y001893D01*
X007069Y001843D01*
X007069Y001743D01*
X007119Y001693D01*
X007219Y001693D01*
X007269Y001743D01*
X007438Y001693D02*
X007638Y001693D01*
X007438Y001893D01*
X007438Y001943D01*
X007488Y001993D01*
X007588Y001993D01*
X007638Y001943D01*
X007806Y001993D02*
X008006Y001693D01*
X008174Y001693D02*
X008374Y001693D01*
X008274Y001693D02*
X008274Y001993D01*
X008374Y001893D01*
X008543Y001943D02*
X008743Y001743D01*
X008693Y001693D01*
X008593Y001693D01*
X008543Y001743D01*
X008543Y001943D01*
X008593Y001993D01*
X008693Y001993D01*
X008743Y001943D01*
X008743Y001743D01*
X008943Y001722D02*
X016643Y001722D01*
X016643Y001624D02*
X008907Y001624D01*
X008808Y001525D02*
X016643Y001525D01*
X016643Y001427D02*
X001162Y001427D01*
X001243Y001343D02*
X000343Y001343D01*
X000343Y007843D01*
X000943Y007843D01*
X000893Y007832D02*
X001571Y007832D01*
X001669Y007733D02*
X001352Y007733D01*
X001350Y007721D02*
X001361Y007793D01*
X000893Y007793D01*
X000893Y007893D01*
X001361Y007893D01*
X001350Y007964D01*
X001325Y008042D01*
X001287Y008115D01*
X002318Y007085D01*
X002318Y006978D01*
X002367Y006859D01*
X002459Y006767D01*
X002578Y006718D01*
X002707Y006718D01*
X002827Y006767D01*
X002918Y006859D01*
X002968Y006978D01*
X002968Y007107D01*
X002918Y007227D01*
X002827Y007318D01*
X002707Y007368D01*
X002601Y007368D01*
X001363Y008606D01*
X001363Y009040D01*
X002810Y007593D01*
X002976Y007593D01*
X003583Y007593D01*
X003567Y007577D01*
X003518Y007457D01*
X003518Y007328D01*
X003567Y007209D01*
X003659Y007117D01*
X003778Y007068D01*
X003835Y007068D01*
X004643Y006260D01*
X004643Y005702D01*
X004567Y005627D01*
X004518Y005507D01*
X004518Y005378D01*
X004567Y005259D01*
X004659Y005167D01*
X004778Y005118D01*
X004907Y005118D01*
X005027Y005167D01*
X005118Y005259D01*
X005168Y005378D01*
X005168Y005507D01*
X005118Y005627D01*
X005043Y005702D01*
X005043Y006426D01*
X004926Y006543D01*
X004275Y007193D01*
X005803Y007193D01*
X005768Y007107D01*
X005768Y006978D01*
X005817Y006859D01*
X005893Y006783D01*
X005893Y006426D01*
X005785Y006318D01*
X005678Y006318D01*
X005559Y006268D01*
X005467Y006177D01*
X005418Y006057D01*
X005418Y005928D01*
X005467Y005809D01*
X005559Y005717D01*
X005678Y005668D01*
X005807Y005668D01*
X005927Y005717D01*
X006018Y005809D01*
X006068Y005928D01*
X006068Y006035D01*
X006293Y006260D01*
X006293Y006426D01*
X006293Y006783D01*
X006368Y006859D01*
X006418Y006978D01*
X006418Y007107D01*
X006382Y007193D01*
X006383Y007193D01*
X006459Y007117D01*
X006578Y007068D01*
X006707Y007068D01*
X006827Y007117D01*
X006918Y007209D01*
X006968Y007328D01*
X006968Y007457D01*
X006918Y007577D01*
X006902Y007593D01*
X007460Y007593D01*
X007585Y007468D01*
X006510Y006393D01*
X006393Y006276D01*
X006393Y005502D01*
X006317Y005427D01*
X006268Y005307D01*
X006268Y005178D01*
X006317Y005059D01*
X006409Y004967D01*
X006528Y004918D01*
X006657Y004918D01*
X006777Y004967D01*
X006868Y005059D01*
X006918Y005178D01*
X006918Y005268D01*
X006968Y005268D01*
X006968Y005178D01*
X007017Y005059D01*
X007109Y004967D01*
X007228Y004918D01*
X007357Y004918D01*
X007477Y004967D01*
X007574Y005073D02*
X008089Y005073D01*
X008048Y005171D02*
X007615Y005171D01*
X007713Y005270D02*
X008043Y005270D01*
X008043Y005368D02*
X007878Y005368D01*
X007942Y005467D02*
X008043Y005467D01*
X008069Y005565D02*
X007968Y005565D01*
X007965Y005664D02*
X008110Y005664D01*
X008151Y005763D02*
X007924Y005763D01*
X007843Y005861D02*
X008230Y005861D01*
X008328Y005960D02*
X007843Y005960D01*
X007843Y006058D02*
X008480Y006058D01*
X009206Y006058D02*
X013844Y006058D01*
X013746Y006157D02*
X007940Y006157D01*
X008038Y006255D02*
X013647Y006255D01*
X013549Y006354D02*
X008137Y006354D01*
X008235Y006452D02*
X013450Y006452D01*
X013543Y006943D02*
X014043Y006443D01*
X017843Y006443D01*
X018143Y006743D01*
X018143Y007243D01*
X017393Y007993D01*
X015693Y007993D01*
X013843Y009843D01*
X013343Y009691D02*
X013402Y009548D01*
X013548Y009402D01*
X013739Y009323D01*
X013946Y009323D01*
X014041Y009362D01*
X015410Y007993D01*
X015226Y007993D01*
X014943Y008276D01*
X014826Y008393D01*
X008576Y008393D01*
X007579Y009389D01*
X007739Y009323D01*
X007946Y009323D01*
X008137Y009402D01*
X008283Y009548D01*
X008343Y009691D01*
X008402Y009548D01*
X008548Y009402D01*
X008739Y009323D01*
X008946Y009323D01*
X009137Y009402D01*
X009283Y009548D01*
X009343Y009691D01*
X009402Y009548D01*
X009548Y009402D01*
X009739Y009323D01*
X009946Y009323D01*
X010137Y009402D01*
X010283Y009548D01*
X010343Y009691D01*
X010402Y009548D01*
X010548Y009402D01*
X010739Y009323D01*
X010946Y009323D01*
X011137Y009402D01*
X011283Y009548D01*
X011343Y009691D01*
X011402Y009548D01*
X011548Y009402D01*
X011739Y009323D01*
X011946Y009323D01*
X012137Y009402D01*
X012283Y009548D01*
X012343Y009691D01*
X012402Y009548D01*
X012548Y009402D01*
X012739Y009323D01*
X012946Y009323D01*
X013137Y009402D01*
X013283Y009548D01*
X013343Y009691D01*
X013378Y009606D02*
X013307Y009606D01*
X013243Y009507D02*
X013443Y009507D01*
X013541Y009409D02*
X013144Y009409D01*
X012541Y009409D02*
X012144Y009409D01*
X012243Y009507D02*
X012443Y009507D01*
X012378Y009606D02*
X012307Y009606D01*
X011541Y009409D02*
X011144Y009409D01*
X011243Y009507D02*
X011443Y009507D01*
X011378Y009606D02*
X011307Y009606D01*
X010541Y009409D02*
X010144Y009409D01*
X010243Y009507D02*
X010443Y009507D01*
X010378Y009606D02*
X010307Y009606D01*
X010343Y009343D02*
X010343Y010343D01*
X012343Y010343D01*
X012343Y009343D01*
X014092Y009310D02*
X007658Y009310D01*
X007757Y009212D02*
X014191Y009212D01*
X014289Y009113D02*
X007855Y009113D01*
X007954Y009014D02*
X014388Y009014D01*
X014487Y008916D02*
X008052Y008916D01*
X008151Y008817D02*
X014585Y008817D01*
X014684Y008719D02*
X008249Y008719D01*
X008348Y008620D02*
X014782Y008620D01*
X014881Y008522D02*
X008446Y008522D01*
X008545Y008423D02*
X014979Y008423D01*
X014893Y008325D02*
X015078Y008325D01*
X014992Y008226D02*
X015176Y008226D01*
X015091Y008128D02*
X015275Y008128D01*
X015189Y008029D02*
X015373Y008029D01*
X015143Y007793D02*
X014743Y008193D01*
X008493Y008193D01*
X006843Y009843D01*
X006345Y010000D02*
X006340Y010000D01*
X006343Y009994D02*
X006283Y010137D01*
X006137Y010283D01*
X005994Y010343D01*
X006691Y010343D01*
X006548Y010283D01*
X006402Y010137D01*
X006343Y009994D01*
X006300Y010098D02*
X006386Y010098D01*
X006462Y010197D02*
X006224Y010197D01*
X006108Y010296D02*
X006577Y010296D01*
X006343Y010343D02*
X006343Y009343D01*
X006541Y009409D02*
X006144Y009409D01*
X006137Y009402D02*
X006283Y009548D01*
X006343Y009691D01*
X006402Y009548D01*
X006548Y009402D01*
X006739Y009323D01*
X006946Y009323D01*
X007041Y009362D01*
X008210Y008193D01*
X008026Y008193D01*
X007943Y008275D01*
X007943Y008276D02*
X007826Y008393D01*
X004410Y008393D01*
X003876Y008393D01*
X003043Y009226D01*
X003043Y009363D01*
X003137Y009402D01*
X003283Y009548D01*
X003343Y009691D01*
X003402Y009548D01*
X003548Y009402D01*
X003739Y009323D01*
X003946Y009323D01*
X004137Y009402D01*
X004283Y009548D01*
X004343Y009691D01*
X004402Y009548D01*
X004548Y009402D01*
X004739Y009323D01*
X004946Y009323D01*
X005137Y009402D01*
X005283Y009548D01*
X005343Y009691D01*
X005402Y009548D01*
X005548Y009402D01*
X005739Y009323D01*
X005946Y009323D01*
X006137Y009402D01*
X006243Y009507D02*
X006443Y009507D01*
X006378Y009606D02*
X006307Y009606D01*
X005541Y009409D02*
X005144Y009409D01*
X005243Y009507D02*
X005443Y009507D01*
X005378Y009606D02*
X005307Y009606D01*
X004541Y009409D02*
X004144Y009409D01*
X004243Y009507D02*
X004443Y009507D01*
X004378Y009606D02*
X004307Y009606D01*
X003541Y009409D02*
X003144Y009409D01*
X003243Y009507D02*
X003443Y009507D01*
X003378Y009606D02*
X003307Y009606D01*
X003343Y009343D02*
X003643Y009043D01*
X003352Y008916D02*
X007487Y008916D01*
X007585Y008817D02*
X003451Y008817D01*
X003549Y008719D02*
X007684Y008719D01*
X007782Y008620D02*
X003648Y008620D01*
X003746Y008522D02*
X007881Y008522D01*
X007979Y008423D02*
X003845Y008423D01*
X003793Y008193D02*
X004493Y008193D01*
X007743Y008193D01*
X007943Y007993D01*
X014593Y007993D01*
X015393Y007193D01*
X014893Y007193D02*
X014293Y007793D01*
X007843Y007793D01*
X007643Y007993D01*
X003693Y007993D01*
X001843Y009843D01*
X002843Y009843D02*
X002843Y009143D01*
X003793Y008193D01*
X002571Y007832D02*
X002136Y007832D01*
X002038Y007931D02*
X002472Y007931D01*
X002373Y008029D02*
X001939Y008029D01*
X001841Y008128D02*
X002275Y008128D01*
X002176Y008226D02*
X001742Y008226D01*
X001643Y008325D02*
X002078Y008325D01*
X001979Y008423D02*
X001545Y008423D01*
X001446Y008522D02*
X001881Y008522D01*
X001782Y008620D02*
X001363Y008620D01*
X001363Y008719D02*
X001684Y008719D01*
X001585Y008817D02*
X001363Y008817D01*
X001363Y008916D02*
X001487Y008916D01*
X001388Y009014D02*
X001363Y009014D01*
X000843Y008843D02*
X002643Y007043D01*
X002968Y007044D02*
X003859Y007044D01*
X003957Y006945D02*
X002954Y006945D01*
X002906Y006847D02*
X004056Y006847D01*
X004154Y006748D02*
X002780Y006748D01*
X002505Y006748D02*
X001363Y006748D01*
X001363Y006739D02*
X001363Y006946D01*
X001283Y007137D01*
X001137Y007283D01*
X000991Y007344D01*
X001042Y007361D01*
X001115Y007398D01*
X001181Y007446D01*
X001239Y007504D01*
X001287Y007570D01*
X001325Y007643D01*
X001350Y007721D01*
X001320Y007635D02*
X001768Y007635D01*
X001866Y007536D02*
X001263Y007536D01*
X001170Y007438D02*
X001965Y007438D01*
X002063Y007339D02*
X001003Y007339D01*
X001180Y007241D02*
X002162Y007241D01*
X002260Y007142D02*
X001279Y007142D01*
X001322Y007044D02*
X002318Y007044D01*
X002331Y006945D02*
X001363Y006945D01*
X001363Y006847D02*
X002379Y006847D01*
X002953Y007142D02*
X003634Y007142D01*
X003554Y007241D02*
X002904Y007241D01*
X002776Y007339D02*
X003518Y007339D01*
X003518Y007438D02*
X002530Y007438D01*
X002432Y007536D02*
X003550Y007536D01*
X003843Y007393D02*
X003843Y007343D01*
X004843Y006343D01*
X004843Y005443D01*
X005168Y005467D02*
X006357Y005467D01*
X006393Y005565D02*
X005144Y005565D01*
X005081Y005664D02*
X006393Y005664D01*
X006393Y005763D02*
X005972Y005763D01*
X006040Y005861D02*
X006393Y005861D01*
X006393Y005960D02*
X006068Y005960D01*
X006091Y006058D02*
X006393Y006058D01*
X006393Y006157D02*
X006190Y006157D01*
X006288Y006255D02*
X006393Y006255D01*
X006471Y006354D02*
X006293Y006354D01*
X006293Y006452D02*
X006570Y006452D01*
X006668Y006551D02*
X006293Y006551D01*
X006293Y006649D02*
X006767Y006649D01*
X006865Y006748D02*
X006293Y006748D01*
X006356Y006847D02*
X006964Y006847D01*
X007062Y006945D02*
X006404Y006945D01*
X006418Y007044D02*
X007161Y007044D01*
X007259Y007142D02*
X006852Y007142D01*
X006931Y007241D02*
X007358Y007241D01*
X007456Y007339D02*
X006968Y007339D01*
X006968Y007438D02*
X007555Y007438D01*
X007516Y007536D02*
X006935Y007536D01*
X006643Y007393D02*
X003843Y007393D01*
X002768Y007635D02*
X002333Y007635D01*
X002235Y007733D02*
X002669Y007733D01*
X002893Y007793D02*
X000843Y009843D01*
X000345Y010000D02*
X000343Y010000D01*
X000343Y009994D02*
X000343Y010343D01*
X003343Y010343D01*
X003343Y009343D01*
X003043Y009310D02*
X007092Y009310D01*
X007191Y009212D02*
X003057Y009212D01*
X003155Y009113D02*
X007289Y009113D01*
X007388Y009014D02*
X003254Y009014D01*
X004343Y009343D02*
X004343Y010343D01*
X006343Y010343D01*
X010343Y010343D01*
X010224Y010197D02*
X010462Y010197D01*
X010402Y010137D02*
X010343Y009994D01*
X010283Y010137D01*
X010137Y010283D01*
X009994Y010343D01*
X010691Y010343D01*
X010548Y010283D01*
X010402Y010137D01*
X010386Y010098D02*
X010300Y010098D01*
X010340Y010000D02*
X010345Y010000D01*
X010577Y010296D02*
X010108Y010296D01*
X011994Y010343D02*
X012691Y010343D01*
X012548Y010283D01*
X012402Y010137D01*
X012343Y009994D01*
X012283Y010137D01*
X012137Y010283D01*
X011994Y010343D01*
X012108Y010296D02*
X012577Y010296D01*
X012462Y010197D02*
X012224Y010197D01*
X012300Y010098D02*
X012386Y010098D01*
X012345Y010000D02*
X012340Y010000D01*
X012343Y010343D02*
X015343Y010343D01*
X015343Y009343D01*
X015643Y009043D01*
X015352Y008916D02*
X016487Y008916D01*
X016585Y008817D02*
X015451Y008817D01*
X015549Y008719D02*
X016684Y008719D01*
X016782Y008620D02*
X015648Y008620D01*
X015746Y008522D02*
X018220Y008522D01*
X018261Y008423D02*
X017795Y008423D01*
X017893Y008325D02*
X018351Y008325D01*
X018091Y008128D02*
X019093Y008128D01*
X019093Y008226D02*
X017992Y008226D01*
X017643Y008293D02*
X016393Y008293D01*
X015693Y008293D01*
X014843Y009143D01*
X014843Y009843D01*
X015340Y010000D02*
X015345Y010000D01*
X015343Y009994D02*
X015283Y010137D01*
X015137Y010283D01*
X014994Y010343D01*
X015691Y010343D01*
X015548Y010283D01*
X015402Y010137D01*
X015343Y009994D01*
X015300Y010098D02*
X015386Y010098D01*
X015462Y010197D02*
X015224Y010197D01*
X015108Y010296D02*
X015577Y010296D01*
X015343Y010343D02*
X017343Y010343D01*
X018343Y010343D01*
X019343Y010343D01*
X019343Y009493D01*
X019424Y009507D02*
X019243Y009507D01*
X019307Y009606D02*
X019378Y009606D01*
X019326Y009409D02*
X019144Y009409D01*
X019227Y009310D02*
X018735Y009310D01*
X018824Y009212D02*
X019129Y009212D01*
X019093Y009113D02*
X018865Y009113D01*
X018868Y009014D02*
X019093Y009014D01*
X019093Y008916D02*
X018842Y008916D01*
X018778Y008817D02*
X019093Y008817D01*
X019093Y008719D02*
X018842Y008719D01*
X018868Y008620D02*
X019093Y008620D01*
X019093Y008522D02*
X018865Y008522D01*
X018824Y008423D02*
X019093Y008423D01*
X019093Y008325D02*
X018734Y008325D01*
X019093Y008029D02*
X018189Y008029D01*
X018288Y007931D02*
X019093Y007931D01*
X019093Y007832D02*
X018386Y007832D01*
X018485Y007733D02*
X019093Y007733D01*
X019075Y007635D02*
X018583Y007635D01*
X018682Y007536D02*
X019000Y007536D01*
X018968Y007438D02*
X018693Y007438D01*
X018693Y007339D02*
X018968Y007339D01*
X019004Y007241D02*
X018693Y007241D01*
X018693Y007142D02*
X019084Y007142D01*
X018802Y006945D02*
X019604Y006945D01*
X019568Y006847D02*
X018818Y006847D01*
X018805Y006748D02*
X019088Y006748D01*
X019006Y006649D02*
X018759Y006649D01*
X018638Y006551D02*
X018968Y006551D01*
X018968Y006452D02*
X018485Y006452D01*
X018387Y006354D02*
X018998Y006354D01*
X019070Y006255D02*
X018840Y006255D01*
X018926Y006157D02*
X019260Y006157D01*
X019358Y006058D02*
X018967Y006058D01*
X019127Y005960D02*
X019457Y005960D01*
X019556Y005861D02*
X019284Y005861D01*
X019345Y005763D02*
X019920Y005763D01*
X019918Y005664D02*
X019368Y005664D01*
X019362Y005565D02*
X019944Y005565D01*
X020009Y005467D02*
X019322Y005467D01*
X019228Y005368D02*
X020176Y005368D01*
X020309Y005368D02*
X020450Y005368D01*
X020477Y005467D02*
X020509Y005467D01*
X020351Y005270D02*
X019018Y005270D01*
X018693Y005293D02*
X018543Y005443D01*
X016493Y005443D01*
X014943Y003893D01*
X004993Y003893D01*
X004693Y004193D01*
X003943Y004193D01*
X003393Y003643D01*
X003943Y003643D02*
X003943Y003843D01*
X004093Y003993D01*
X004593Y003993D01*
X004893Y003693D01*
X015043Y003693D01*
X016593Y005243D01*
X018243Y005243D01*
X018593Y004893D01*
X019043Y004893D01*
X019347Y004777D02*
X020118Y004777D01*
X020118Y004876D02*
X019368Y004876D01*
X019361Y004974D02*
X020145Y004974D01*
X020253Y005112D02*
X020253Y005171D01*
X019043Y005643D02*
X016393Y005643D01*
X014843Y004093D01*
X005093Y004093D01*
X004793Y004393D01*
X003593Y004393D01*
X002843Y003643D01*
X002343Y003643D02*
X003293Y004593D01*
X004893Y004593D01*
X005193Y004293D01*
X014743Y004293D01*
X016293Y005843D01*
X018493Y005843D01*
X018643Y005993D01*
X018359Y006157D02*
X018190Y006157D01*
X018288Y006255D02*
X018446Y006255D01*
X017993Y006243D02*
X018493Y006743D01*
X018493Y006843D01*
X018493Y007443D01*
X017643Y008293D01*
X018343Y008793D02*
X018543Y008593D01*
X018343Y008793D02*
X016893Y008793D01*
X015843Y009843D01*
X015378Y009606D02*
X015307Y009606D01*
X015243Y009507D02*
X015443Y009507D01*
X015541Y009409D02*
X015144Y009409D01*
X015043Y009310D02*
X016092Y009310D01*
X016191Y009212D02*
X015057Y009212D01*
X015155Y009113D02*
X016289Y009113D01*
X016388Y009014D02*
X015254Y009014D01*
X016843Y009843D02*
X017643Y009043D01*
X018543Y009043D01*
X019293Y009093D02*
X019293Y007393D01*
X019585Y007536D02*
X019703Y007536D01*
X019703Y007438D02*
X019618Y007438D01*
X019618Y007339D02*
X019703Y007339D01*
X019703Y007241D02*
X019581Y007241D01*
X019502Y007142D02*
X019703Y007142D01*
X019684Y007044D02*
X018751Y007044D01*
X019497Y006748D02*
X019568Y006748D01*
X019579Y006649D02*
X019600Y006649D01*
X017993Y006243D02*
X013943Y006243D01*
X013443Y006743D01*
X008243Y006743D01*
X007643Y006143D01*
X007643Y005593D01*
X006943Y005593D02*
X006943Y006193D01*
X007893Y007143D01*
X013643Y007143D01*
X014143Y006643D01*
X017543Y006643D01*
X017793Y006893D01*
X017443Y007243D02*
X017043Y006843D01*
X014243Y006843D01*
X013743Y007343D01*
X007743Y007343D01*
X006593Y006193D01*
X006593Y005243D01*
X006293Y005368D02*
X005164Y005368D01*
X005123Y005270D02*
X006268Y005270D01*
X006270Y005171D02*
X005031Y005171D01*
X004654Y005171D02*
X001743Y005171D01*
X001743Y005226D02*
X001323Y005645D01*
X001363Y005739D01*
X001363Y005946D01*
X001283Y006137D01*
X001137Y006283D01*
X000994Y006343D01*
X001137Y006402D01*
X001283Y006548D01*
X001363Y006739D01*
X001325Y006649D02*
X004253Y006649D01*
X004352Y006551D02*
X001285Y006551D01*
X001188Y006452D02*
X004450Y006452D01*
X004549Y006354D02*
X001021Y006354D01*
X001165Y006255D02*
X004643Y006255D01*
X004643Y006157D02*
X001264Y006157D01*
X001316Y006058D02*
X004643Y006058D01*
X004643Y005960D02*
X001357Y005960D01*
X001363Y005861D02*
X004643Y005861D01*
X004643Y005763D02*
X001363Y005763D01*
X001331Y005664D02*
X004604Y005664D01*
X004542Y005565D02*
X001403Y005565D01*
X001501Y005467D02*
X004518Y005467D01*
X004522Y005368D02*
X001600Y005368D01*
X001698Y005270D02*
X004562Y005270D01*
X005076Y004993D02*
X002976Y004993D01*
X002810Y004993D01*
X002485Y004668D01*
X002378Y004668D01*
X002259Y004618D01*
X002167Y004527D01*
X002118Y004407D01*
X002118Y004278D01*
X002167Y004159D01*
X002259Y004067D01*
X002378Y004018D01*
X002435Y004018D01*
X002385Y003968D01*
X002278Y003968D01*
X002159Y003918D01*
X002067Y003827D01*
X002018Y003707D01*
X002018Y003578D01*
X002053Y003493D01*
X001926Y003493D01*
X001743Y003676D01*
X001743Y005060D01*
X001743Y005226D01*
X001743Y005073D02*
X006311Y005073D01*
X006401Y004974D02*
X005094Y004974D01*
X005076Y004993D02*
X005193Y004876D01*
X005291Y004777D02*
X008277Y004777D01*
X007101Y004974D02*
X006784Y004974D01*
X006874Y005073D02*
X007011Y005073D01*
X006970Y005171D02*
X006915Y005171D01*
X007293Y005243D02*
X007293Y006143D01*
X008093Y006943D01*
X013543Y006943D01*
X013993Y007593D02*
X014393Y007193D01*
X013993Y007593D02*
X007743Y007593D01*
X007543Y007793D01*
X002893Y007793D01*
X001472Y007931D02*
X001355Y007931D01*
X001373Y008029D02*
X001329Y008029D01*
X000792Y007893D02*
X000792Y007793D01*
X000343Y007793D01*
X000343Y007893D01*
X000792Y007893D01*
X000792Y007832D02*
X000343Y007832D01*
X000343Y007843D02*
X000343Y010343D01*
X000691Y010343D01*
X000548Y010283D01*
X000402Y010137D01*
X000343Y009994D01*
X000343Y010098D02*
X000386Y010098D01*
X000343Y010197D02*
X000462Y010197D01*
X000577Y010296D02*
X000343Y010296D01*
X002994Y010343D02*
X003691Y010343D01*
X003548Y010283D01*
X003402Y010137D01*
X003343Y009994D01*
X003283Y010137D01*
X003137Y010283D01*
X002994Y010343D01*
X003108Y010296D02*
X003577Y010296D01*
X003462Y010197D02*
X003224Y010197D01*
X003300Y010098D02*
X003386Y010098D01*
X003345Y010000D02*
X003340Y010000D01*
X004137Y010283D02*
X004283Y010137D01*
X004343Y009994D01*
X004402Y010137D01*
X004548Y010283D01*
X004691Y010343D01*
X003994Y010343D01*
X004137Y010283D01*
X004108Y010296D02*
X004577Y010296D01*
X004462Y010197D02*
X004224Y010197D01*
X004300Y010098D02*
X004386Y010098D01*
X004345Y010000D02*
X004340Y010000D01*
X004343Y010343D02*
X003343Y010343D01*
X008144Y009409D02*
X008541Y009409D01*
X008443Y009507D02*
X008243Y009507D01*
X008307Y009606D02*
X008378Y009606D01*
X009144Y009409D02*
X009541Y009409D01*
X009443Y009507D02*
X009243Y009507D01*
X009307Y009606D02*
X009378Y009606D01*
X008078Y008325D02*
X007893Y008325D01*
X007943Y008275D02*
X007943Y008276D01*
X007992Y008226D02*
X008176Y008226D01*
X006434Y007142D02*
X006403Y007142D01*
X006093Y007043D02*
X006093Y006343D01*
X005743Y005993D01*
X005418Y005960D02*
X005043Y005960D01*
X005043Y006058D02*
X005418Y006058D01*
X005459Y006157D02*
X005043Y006157D01*
X005043Y006255D02*
X005546Y006255D01*
X005821Y006354D02*
X005043Y006354D01*
X005016Y006452D02*
X005893Y006452D01*
X005893Y006551D02*
X004917Y006551D01*
X004819Y006649D02*
X005893Y006649D01*
X005893Y006748D02*
X004720Y006748D01*
X004622Y006847D02*
X005829Y006847D01*
X005781Y006945D02*
X004523Y006945D01*
X004425Y007044D02*
X005768Y007044D01*
X005782Y007142D02*
X004326Y007142D01*
X005043Y005861D02*
X005445Y005861D01*
X005513Y005763D02*
X005043Y005763D01*
X002791Y004974D02*
X001743Y004974D01*
X001743Y004876D02*
X002693Y004876D01*
X002594Y004777D02*
X001743Y004777D01*
X001743Y004679D02*
X002496Y004679D01*
X002220Y004580D02*
X001743Y004580D01*
X001743Y004481D02*
X002148Y004481D01*
X002118Y004383D02*
X001743Y004383D01*
X001743Y004284D02*
X002118Y004284D01*
X002156Y004186D02*
X001743Y004186D01*
X001743Y004087D02*
X002238Y004087D01*
X002406Y003989D02*
X001743Y003989D01*
X001743Y003890D02*
X002131Y003890D01*
X002053Y003792D02*
X001743Y003792D01*
X001743Y003693D02*
X002018Y003693D01*
X002018Y003595D02*
X001824Y003595D01*
X001922Y003496D02*
X002052Y003496D01*
X001843Y003293D02*
X001543Y003593D01*
X001543Y005143D01*
X000843Y005843D01*
X000843Y004843D02*
X001343Y004343D01*
X001343Y003493D01*
X001743Y003093D01*
X015343Y003093D01*
X015443Y003193D01*
X016943Y003193D01*
X017093Y003043D01*
X017493Y003393D02*
X015343Y003393D01*
X015243Y003293D01*
X001843Y003293D01*
X001643Y002893D02*
X000843Y003693D01*
X000843Y003843D01*
X002443Y004343D02*
X002893Y004793D01*
X004993Y004793D01*
X005293Y004493D01*
X014343Y004493D01*
X015393Y005543D01*
X015718Y005565D02*
X015733Y005565D01*
X015694Y005664D02*
X015831Y005664D01*
X015930Y005763D02*
X015632Y005763D01*
X015473Y005861D02*
X016028Y005861D01*
X016127Y005960D02*
X009357Y005960D01*
X009456Y005861D02*
X015312Y005861D01*
X015153Y005763D02*
X009535Y005763D01*
X009575Y005664D02*
X015091Y005664D01*
X015068Y005565D02*
X009616Y005565D01*
X009643Y005467D02*
X015034Y005467D01*
X014936Y005368D02*
X009643Y005368D01*
X009643Y005270D02*
X014837Y005270D01*
X014738Y005171D02*
X009638Y005171D01*
X009597Y005073D02*
X014640Y005073D01*
X014541Y004974D02*
X009556Y004974D01*
X009507Y004876D02*
X014443Y004876D01*
X014344Y004777D02*
X009408Y004777D01*
X004593Y003493D02*
X004443Y003643D01*
X004593Y003493D02*
X015143Y003493D01*
X016643Y004993D01*
X017993Y004993D01*
X018093Y004893D01*
X018397Y004777D02*
X018425Y004777D01*
X018338Y004679D02*
X018797Y004679D01*
X018948Y004580D02*
X018187Y004580D01*
X017998Y004580D02*
X016513Y004580D01*
X016611Y004679D02*
X017847Y004679D01*
X017789Y004777D02*
X016710Y004777D01*
X016414Y004481D02*
X020868Y004481D01*
X020907Y004383D02*
X016316Y004383D01*
X016217Y004284D02*
X020991Y004284D01*
X021394Y004284D02*
X021652Y004284D01*
X021750Y004383D02*
X021478Y004383D01*
X021550Y004481D02*
X021849Y004481D01*
X021947Y004580D02*
X021649Y004580D01*
X021747Y004679D02*
X022046Y004679D01*
X022144Y004777D02*
X021846Y004777D01*
X021944Y004876D02*
X022243Y004876D01*
X022341Y004974D02*
X022043Y004974D01*
X022141Y005073D02*
X022440Y005073D01*
X022443Y005171D02*
X022240Y005171D01*
X022171Y005103D02*
X022171Y005103D01*
X022643Y004993D02*
X022643Y005793D01*
X023043Y006193D01*
X023743Y006193D01*
X023993Y005943D01*
X023993Y005543D01*
X025243Y004293D01*
X026193Y004293D01*
X026493Y003993D01*
X035693Y003993D01*
X035923Y004087D02*
X036381Y004087D01*
X036451Y004186D02*
X035825Y004186D01*
X035788Y004223D02*
X035788Y004223D01*
X035726Y004284D02*
X036550Y004284D01*
X036594Y004383D02*
X035628Y004383D01*
X035573Y004481D02*
X036468Y004481D01*
X036389Y004580D02*
X035573Y004580D01*
X035573Y004679D02*
X036348Y004679D01*
X036323Y004777D02*
X035573Y004777D01*
X035573Y004876D02*
X036323Y004876D01*
X036334Y004974D02*
X035573Y004974D01*
X035573Y005073D02*
X036330Y005073D01*
X036231Y005171D02*
X035573Y005171D01*
X035579Y005270D02*
X036133Y005270D01*
X036034Y005368D02*
X035643Y005368D01*
X035668Y005467D02*
X035936Y005467D01*
X035837Y005565D02*
X035664Y005565D01*
X035623Y005664D02*
X035738Y005664D01*
X035640Y005763D02*
X035532Y005763D01*
X035541Y005861D02*
X031923Y005861D01*
X031907Y005868D02*
X031778Y005868D01*
X031659Y005818D01*
X031567Y005727D01*
X031518Y005607D01*
X031518Y005478D01*
X031567Y005359D01*
X031659Y005267D01*
X031778Y005218D01*
X031842Y005218D01*
X032247Y004813D01*
X032438Y004813D01*
X034413Y004813D01*
X034459Y004767D01*
X034578Y004718D01*
X034707Y004718D01*
X034827Y004767D01*
X034918Y004859D01*
X034968Y004978D01*
X034968Y005107D01*
X034918Y005227D01*
X034827Y005318D01*
X034707Y005368D01*
X034578Y005368D01*
X034459Y005318D01*
X034413Y005273D01*
X032438Y005273D01*
X032168Y005543D01*
X032168Y005607D01*
X032118Y005727D01*
X032027Y005818D01*
X031907Y005868D01*
X031762Y005861D02*
X024193Y005861D01*
X024193Y005763D02*
X031603Y005763D01*
X031541Y005664D02*
X024193Y005664D01*
X024253Y005565D02*
X027240Y005565D01*
X027142Y005467D02*
X024351Y005467D01*
X024450Y005368D02*
X027043Y005368D01*
X026945Y005270D02*
X024548Y005270D01*
X024647Y005171D02*
X026846Y005171D01*
X026748Y005073D02*
X024745Y005073D01*
X024844Y004974D02*
X026649Y004974D01*
X026613Y004876D02*
X024942Y004876D01*
X025041Y004777D02*
X026613Y004777D01*
X026613Y004679D02*
X025140Y004679D01*
X025238Y004580D02*
X026548Y004580D01*
X026518Y004481D02*
X026287Y004481D01*
X026385Y004383D02*
X026518Y004383D01*
X026484Y004284D02*
X026556Y004284D01*
X027129Y004284D02*
X035113Y004284D01*
X035113Y004383D02*
X027168Y004383D01*
X027168Y004481D02*
X035113Y004481D01*
X035113Y004580D02*
X027138Y004580D01*
X027073Y004679D02*
X035113Y004679D01*
X035113Y004777D02*
X034837Y004777D01*
X034925Y004876D02*
X035113Y004876D01*
X035113Y004974D02*
X034966Y004974D01*
X034968Y005073D02*
X035113Y005073D01*
X035113Y005171D02*
X034941Y005171D01*
X034875Y005270D02*
X035106Y005270D01*
X035042Y005368D02*
X032342Y005368D01*
X032244Y005467D02*
X035018Y005467D01*
X035021Y005565D02*
X032168Y005565D01*
X032144Y005664D02*
X035062Y005664D01*
X035153Y005763D02*
X032082Y005763D01*
X031518Y005565D02*
X028695Y005565D01*
X028928Y005467D02*
X031522Y005467D01*
X031563Y005368D02*
X029022Y005368D01*
X029062Y005270D02*
X031656Y005270D01*
X031889Y005171D02*
X029068Y005171D01*
X029045Y005073D02*
X031987Y005073D01*
X032086Y004974D02*
X028984Y004974D01*
X028827Y004876D02*
X032184Y004876D01*
X034449Y004777D02*
X027102Y004777D01*
X027201Y004876D02*
X028659Y004876D01*
X028501Y004974D02*
X027299Y004974D01*
X027398Y005073D02*
X028441Y005073D01*
X026196Y006157D02*
X024061Y006157D01*
X023963Y006255D02*
X026097Y006255D01*
X026013Y006354D02*
X023864Y006354D01*
X023020Y006551D02*
X025816Y006551D01*
X025914Y006452D02*
X022921Y006452D01*
X022921Y006354D02*
X022823Y006354D01*
X022822Y006255D02*
X022724Y006255D01*
X022724Y006157D02*
X022625Y006157D01*
X022625Y006058D02*
X022527Y006058D01*
X022527Y005960D02*
X022428Y005960D01*
X022443Y005861D02*
X022330Y005861D01*
X022283Y005763D02*
X022443Y005763D01*
X022443Y005664D02*
X022283Y005664D01*
X022283Y005565D02*
X022443Y005565D01*
X022443Y005467D02*
X022283Y005467D01*
X022283Y005368D02*
X022443Y005368D01*
X022443Y005270D02*
X022283Y005270D01*
X022643Y004993D02*
X021393Y003743D01*
X021102Y003890D02*
X020983Y003890D01*
X021018Y003792D02*
X021068Y003792D01*
X021068Y003693D02*
X021018Y003693D01*
X020983Y003595D02*
X021102Y003595D01*
X021180Y003496D02*
X020972Y003496D01*
X021071Y003398D02*
X022188Y003398D01*
X022106Y003299D02*
X021846Y003299D01*
X021929Y003200D02*
X022068Y003200D01*
X022068Y003102D02*
X021968Y003102D01*
X021968Y003003D02*
X022099Y003003D01*
X022063Y002905D02*
X022171Y002905D01*
X022162Y002806D02*
X022446Y002806D01*
X022545Y002708D02*
X022260Y002708D01*
X022359Y002609D02*
X022643Y002609D01*
X022458Y002511D02*
X023692Y002511D01*
X023790Y002412D02*
X022556Y002412D01*
X022655Y002314D02*
X023889Y002314D01*
X023987Y002215D02*
X022753Y002215D01*
X022852Y002116D02*
X024086Y002116D01*
X024185Y002018D02*
X022950Y002018D01*
X022943Y001743D02*
X026943Y001743D01*
X027843Y000843D01*
X028343Y000691D02*
X028402Y000548D01*
X028548Y000402D01*
X028691Y000343D01*
X027994Y000343D01*
X028691Y000343D01*
X028509Y000441D02*
X028177Y000441D01*
X028137Y000402D02*
X028283Y000548D01*
X028343Y000691D01*
X028321Y000638D02*
X028364Y000638D01*
X028410Y000540D02*
X028275Y000540D01*
X028137Y000402D02*
X027994Y000343D01*
X028343Y000343D02*
X028343Y001343D01*
X028494Y001230D02*
X028191Y001230D01*
X028137Y001283D02*
X027946Y001363D01*
X027739Y001363D01*
X027645Y001323D01*
X027225Y001743D01*
X028660Y001743D01*
X029106Y001296D01*
X028946Y001363D01*
X028739Y001363D01*
X028548Y001283D01*
X028402Y001137D01*
X028343Y000994D01*
X028283Y001137D01*
X028137Y001283D01*
X028029Y001328D02*
X028656Y001328D01*
X028976Y001427D02*
X027541Y001427D01*
X027443Y001525D02*
X028877Y001525D01*
X028779Y001624D02*
X027344Y001624D01*
X027246Y001722D02*
X028680Y001722D01*
X028743Y001943D02*
X029843Y000843D01*
X030843Y000843D02*
X030843Y000943D01*
X029643Y002143D01*
X024643Y002143D01*
X023793Y002993D01*
X023143Y002993D01*
X022893Y003243D01*
X022605Y003398D02*
X022597Y003398D01*
X022686Y003496D02*
X021606Y003496D01*
X021683Y003595D02*
X023033Y003595D01*
X023009Y003693D02*
X021718Y003693D01*
X021725Y003792D02*
X022770Y003792D01*
X022635Y003890D02*
X021823Y003890D01*
X021922Y003989D02*
X022584Y003989D01*
X022568Y004087D02*
X022020Y004087D01*
X022119Y004186D02*
X022580Y004186D01*
X022625Y004284D02*
X022217Y004284D01*
X022316Y004383D02*
X022657Y004383D01*
X022618Y004481D02*
X022414Y004481D01*
X022513Y004580D02*
X022618Y004580D01*
X022611Y004679D02*
X022647Y004679D01*
X022710Y004777D02*
X022718Y004777D01*
X022943Y004543D02*
X023193Y004293D01*
X023893Y004293D01*
X025443Y002743D01*
X029943Y002743D01*
X030943Y001743D01*
X032943Y001743D01*
X033843Y000843D01*
X034093Y001393D02*
X034643Y000843D01*
X034843Y000843D01*
X035343Y000691D02*
X035402Y000548D01*
X035548Y000402D01*
X035691Y000343D01*
X034994Y000343D01*
X035691Y000343D01*
X035509Y000441D02*
X035177Y000441D01*
X035137Y000402D02*
X035283Y000548D01*
X035343Y000691D01*
X035321Y000638D02*
X035364Y000638D01*
X035410Y000540D02*
X035275Y000540D01*
X035137Y000402D02*
X034994Y000343D01*
X035343Y000343D02*
X035343Y001343D01*
X035494Y001230D02*
X035191Y001230D01*
X035137Y001283D02*
X035283Y001137D01*
X035343Y000994D01*
X035402Y001137D01*
X035548Y001283D01*
X035639Y001321D01*
X035613Y001347D01*
X035613Y001347D01*
X034947Y002013D01*
X033538Y002013D01*
X033347Y002013D01*
X033011Y002349D01*
X032946Y002323D01*
X032739Y002323D01*
X032548Y002402D01*
X032402Y002548D01*
X032341Y002694D01*
X032325Y002643D01*
X032287Y002570D01*
X032239Y002504D01*
X032181Y002446D01*
X032115Y002398D01*
X032042Y002361D01*
X031964Y002335D01*
X031893Y002324D01*
X031893Y002792D01*
X031793Y002792D01*
X031793Y002324D01*
X031721Y002335D01*
X031643Y002361D01*
X031570Y002398D01*
X031504Y002446D01*
X031446Y002504D01*
X031398Y002570D01*
X031361Y002643D01*
X031335Y002721D01*
X031324Y002793D01*
X031792Y002793D01*
X031792Y002893D01*
X031324Y002893D01*
X031335Y002964D01*
X031337Y002968D01*
X031278Y002968D01*
X031159Y003017D01*
X031067Y003109D01*
X031018Y003228D01*
X031018Y003293D01*
X030575Y003293D01*
X031176Y002693D01*
X031231Y002637D01*
X031277Y002618D01*
X031368Y002527D01*
X031418Y002407D01*
X031418Y002278D01*
X031368Y002159D01*
X031352Y002143D01*
X033010Y002143D01*
X033176Y002143D01*
X033726Y001593D01*
X034010Y001593D01*
X034176Y001593D01*
X034516Y001252D01*
X034548Y001283D01*
X034739Y001363D01*
X034946Y001363D01*
X035137Y001283D01*
X035029Y001328D02*
X035632Y001328D01*
X035533Y001427D02*
X034341Y001427D01*
X034243Y001525D02*
X035435Y001525D01*
X035336Y001624D02*
X033694Y001624D01*
X033596Y001722D02*
X035238Y001722D01*
X035139Y001821D02*
X033497Y001821D01*
X033399Y001919D02*
X035041Y001919D01*
X034093Y001393D02*
X033643Y001393D01*
X033093Y001943D01*
X031043Y001943D01*
X030043Y002943D01*
X025543Y002943D01*
X023493Y004993D01*
X022993Y004993D01*
X020798Y004580D02*
X020640Y004580D01*
X020246Y004580D02*
X019137Y004580D01*
X019288Y004679D02*
X020159Y004679D01*
X020026Y004186D02*
X018659Y004186D01*
X018735Y004087D02*
X019405Y004087D01*
X019279Y003989D02*
X018768Y003989D01*
X018778Y003890D02*
X019231Y003890D01*
X019218Y003792D02*
X018876Y003792D01*
X018975Y003693D02*
X019232Y003693D01*
X019281Y003595D02*
X018993Y003595D01*
X018993Y003496D02*
X019286Y003496D01*
X019234Y003398D02*
X018993Y003398D01*
X018993Y003299D02*
X019218Y003299D01*
X019229Y003200D02*
X018993Y003200D01*
X018935Y003102D02*
X019274Y003102D01*
X019392Y003003D02*
X018836Y003003D01*
X018738Y002905D02*
X019798Y002905D01*
X019896Y002806D02*
X018639Y002806D01*
X018541Y002708D02*
X019995Y002708D01*
X020093Y002609D02*
X018442Y002609D01*
X018343Y002511D02*
X020192Y002511D01*
X020290Y002412D02*
X018245Y002412D01*
X018146Y002314D02*
X020389Y002314D01*
X020487Y002215D02*
X018048Y002215D01*
X018043Y002116D02*
X020586Y002116D01*
X020643Y002018D02*
X018043Y002018D01*
X018043Y001919D02*
X020643Y001919D01*
X020643Y001821D02*
X018043Y001821D01*
X018043Y001722D02*
X020643Y001722D01*
X020643Y001624D02*
X018043Y001624D01*
X018043Y001525D02*
X020643Y001525D01*
X020643Y001427D02*
X018043Y001427D01*
X018043Y001328D02*
X018656Y001328D01*
X018494Y001230D02*
X018191Y001230D01*
X018286Y001131D02*
X018399Y001131D01*
X018358Y001032D02*
X018327Y001032D01*
X017843Y000843D02*
X017843Y002293D01*
X018793Y003243D01*
X018793Y003593D01*
X018443Y003943D01*
X018153Y003792D02*
X015724Y003792D01*
X015626Y003693D02*
X017369Y003693D01*
X017235Y003595D02*
X015527Y003595D01*
X015823Y003890D02*
X018118Y003890D01*
X018118Y003989D02*
X015922Y003989D01*
X016020Y004087D02*
X018151Y004087D01*
X018226Y004186D02*
X016119Y004186D01*
X017616Y003693D02*
X018233Y003693D01*
X019543Y003793D02*
X019693Y003793D01*
X019843Y003643D01*
X022643Y000843D01*
X022843Y000843D01*
X021548Y001283D02*
X021402Y001137D01*
X021343Y000994D01*
X021283Y001137D01*
X021137Y001283D01*
X021043Y001323D01*
X021043Y002060D01*
X021043Y002160D01*
X021840Y001363D01*
X021739Y001363D01*
X021548Y001283D01*
X021494Y001230D02*
X021191Y001230D01*
X021286Y001131D02*
X021399Y001131D01*
X021358Y001032D02*
X021327Y001032D01*
X020843Y000843D02*
X020843Y002143D01*
X019693Y003293D01*
X019543Y003293D01*
X019693Y003003D02*
X019699Y003003D01*
X021169Y003299D02*
X021439Y003299D01*
X021356Y003200D02*
X021268Y003200D01*
X021643Y003043D02*
X022943Y001743D01*
X022643Y001543D02*
X026143Y001543D01*
X026843Y000843D01*
X025843Y000843D02*
X025343Y001343D01*
X022543Y001343D01*
X020243Y003643D01*
X020243Y003943D01*
X019918Y003989D02*
X019806Y003989D01*
X019878Y003890D02*
X019918Y003890D01*
X020693Y003743D02*
X020693Y003493D01*
X022643Y001543D01*
X021776Y001427D02*
X021043Y001427D01*
X021043Y001525D02*
X021677Y001525D01*
X021579Y001624D02*
X021043Y001624D01*
X021043Y001722D02*
X021480Y001722D01*
X021382Y001821D02*
X021043Y001821D01*
X021043Y001919D02*
X021283Y001919D01*
X021185Y002018D02*
X021043Y002018D01*
X021043Y002116D02*
X021086Y002116D01*
X021043Y001328D02*
X021656Y001328D01*
X021343Y001293D02*
X021343Y000343D01*
X028343Y000343D01*
X035343Y000343D01*
X037843Y000343D01*
X037843Y000843D01*
X037893Y000792D02*
X037893Y000343D01*
X037793Y000343D01*
X037793Y000792D01*
X037893Y000792D01*
X037893Y000737D02*
X037793Y000737D01*
X037793Y000638D02*
X037893Y000638D01*
X037893Y000540D02*
X037793Y000540D01*
X037793Y000441D02*
X037893Y000441D01*
X037893Y000343D02*
X037793Y000343D01*
X037843Y000343D02*
X043843Y000343D01*
X043843Y010343D01*
X037843Y010343D01*
X037843Y009643D01*
X037793Y009606D02*
X037893Y009606D01*
X037893Y009704D02*
X037793Y009704D01*
X037793Y009792D02*
X037893Y009792D01*
X037893Y009324D01*
X037964Y009335D01*
X038042Y009361D01*
X038115Y009398D01*
X038181Y009446D01*
X038239Y009504D01*
X038287Y009570D01*
X038325Y009643D01*
X038341Y009694D01*
X038402Y009548D01*
X038548Y009402D01*
X038739Y009323D01*
X038946Y009323D01*
X039011Y009349D01*
X039297Y009063D01*
X039488Y009063D01*
X041097Y009063D01*
X041463Y008697D01*
X041463Y007497D01*
X041597Y007363D01*
X042206Y006754D01*
X042075Y006754D01*
X042075Y006763D01*
X041987Y006851D01*
X040682Y006851D01*
X040594Y006763D01*
X040594Y006284D01*
X040682Y006197D01*
X041987Y006197D01*
X042075Y006284D01*
X042075Y006294D01*
X042266Y006294D01*
X042563Y005997D01*
X042563Y004188D01*
X042164Y003789D01*
X042120Y003894D01*
X042075Y003939D01*
X042075Y004343D01*
X042176Y004343D01*
X042493Y004660D01*
X042493Y004826D01*
X042493Y005376D01*
X042376Y005493D01*
X042075Y005793D01*
X042075Y005976D01*
X041987Y006064D01*
X040682Y006064D01*
X040594Y005976D01*
X040594Y005497D01*
X040682Y005409D01*
X041893Y005409D01*
X042093Y005210D01*
X042093Y004826D01*
X042075Y004808D01*
X042075Y005188D01*
X041987Y005276D01*
X040682Y005276D01*
X040594Y005188D01*
X040594Y005149D01*
X040132Y005149D01*
X039966Y005149D01*
X039460Y004643D01*
X039343Y004526D01*
X039343Y004182D01*
X039257Y004218D01*
X039128Y004218D01*
X039009Y004168D01*
X038933Y004093D01*
X038726Y004093D01*
X037793Y005026D01*
X037793Y006010D01*
X037793Y006176D01*
X037323Y006645D01*
X037363Y006739D01*
X037363Y006946D01*
X037283Y007137D01*
X037137Y007283D01*
X036994Y007343D01*
X037137Y007402D01*
X037283Y007548D01*
X037363Y007739D01*
X037363Y007946D01*
X037283Y008137D01*
X037137Y008283D01*
X036946Y008363D01*
X036739Y008363D01*
X036548Y008283D01*
X036402Y008137D01*
X036323Y007946D01*
X036323Y007739D01*
X036389Y007579D01*
X036376Y007593D01*
X036210Y007593D01*
X033110Y007593D01*
X032993Y007476D01*
X032560Y007043D01*
X026461Y007043D01*
X026251Y007253D01*
X026094Y007253D01*
X023921Y007253D01*
X023961Y007293D01*
X031710Y007293D01*
X031876Y007293D01*
X033726Y009143D01*
X035260Y009143D01*
X035426Y009143D01*
X035645Y009362D01*
X035739Y009323D01*
X035946Y009323D01*
X036137Y009402D01*
X036283Y009548D01*
X036343Y009691D01*
X036402Y009548D01*
X036548Y009402D01*
X036739Y009323D01*
X036946Y009323D01*
X037137Y009402D01*
X037283Y009548D01*
X037344Y009694D01*
X037361Y009643D01*
X037398Y009570D01*
X037446Y009504D01*
X037504Y009446D01*
X037570Y009398D01*
X037643Y009361D01*
X037721Y009335D01*
X037793Y009324D01*
X037793Y009792D01*
X037793Y009893D02*
X037793Y010343D01*
X037893Y010343D01*
X037893Y009893D01*
X037793Y009893D01*
X037793Y009901D02*
X037893Y009901D01*
X037893Y010000D02*
X037793Y010000D01*
X037793Y010098D02*
X037893Y010098D01*
X037893Y010197D02*
X037793Y010197D01*
X037793Y010296D02*
X037893Y010296D01*
X037843Y010343D02*
X032343Y010343D01*
X032343Y009343D01*
X032541Y009409D02*
X032144Y009409D01*
X032137Y009402D02*
X032283Y009548D01*
X032343Y009691D01*
X032402Y009548D01*
X032548Y009402D01*
X032739Y009323D01*
X032946Y009323D01*
X033106Y009389D01*
X031610Y007893D01*
X030161Y007893D01*
X031635Y009366D01*
X031739Y009323D01*
X031946Y009323D01*
X032137Y009402D01*
X032243Y009507D02*
X032443Y009507D01*
X032378Y009606D02*
X032307Y009606D01*
X033027Y009310D02*
X031579Y009310D01*
X031480Y009212D02*
X032929Y009212D01*
X032830Y009113D02*
X031382Y009113D01*
X031283Y009014D02*
X032732Y009014D01*
X032633Y008916D02*
X031185Y008916D01*
X031086Y008817D02*
X032535Y008817D01*
X032436Y008719D02*
X030988Y008719D01*
X030889Y008620D02*
X032337Y008620D01*
X032239Y008522D02*
X030790Y008522D01*
X030692Y008423D02*
X032140Y008423D01*
X032042Y008325D02*
X030593Y008325D01*
X030495Y008226D02*
X031943Y008226D01*
X031845Y008128D02*
X030396Y008128D01*
X030298Y008029D02*
X031746Y008029D01*
X031648Y007931D02*
X030199Y007931D01*
X029893Y007893D02*
X028143Y007893D01*
X023693Y007893D01*
X023493Y007961D02*
X023264Y007733D01*
X022778Y007733D01*
X022818Y007828D01*
X022818Y007957D01*
X022768Y008077D01*
X022692Y008153D01*
X027421Y008153D01*
X027533Y008264D01*
X028421Y009153D01*
X029171Y009153D01*
X029283Y009264D01*
X029484Y009466D01*
X029548Y009402D01*
X029739Y009323D01*
X029946Y009323D01*
X030137Y009402D01*
X030283Y009548D01*
X030343Y009691D01*
X030402Y009548D01*
X030548Y009402D01*
X030739Y009323D01*
X030946Y009323D01*
X031130Y009399D01*
X029824Y008093D01*
X028453Y008093D01*
X028468Y008128D01*
X028468Y008257D01*
X028418Y008377D01*
X028327Y008468D01*
X028207Y008518D01*
X028078Y008518D01*
X027959Y008468D01*
X027867Y008377D01*
X027818Y008257D01*
X027818Y008128D01*
X027832Y008093D01*
X023610Y008093D01*
X023493Y007976D01*
X023493Y007961D01*
X023462Y007931D02*
X022818Y007931D01*
X022818Y007832D02*
X023363Y007832D01*
X023265Y007733D02*
X022778Y007733D01*
X023793Y007693D02*
X031693Y007693D01*
X033843Y009843D01*
X032548Y010283D02*
X032402Y010137D01*
X032343Y009994D01*
X032283Y010137D01*
X032137Y010283D01*
X031994Y010343D01*
X032691Y010343D01*
X032548Y010283D01*
X032577Y010296D02*
X032108Y010296D01*
X032224Y010197D02*
X032462Y010197D01*
X032386Y010098D02*
X032300Y010098D01*
X032340Y010000D02*
X032345Y010000D01*
X032343Y010343D02*
X030343Y010343D01*
X030343Y009393D01*
X030541Y009409D02*
X030144Y009409D01*
X030243Y009507D02*
X030443Y009507D01*
X030378Y009606D02*
X030307Y009606D01*
X029541Y009409D02*
X029427Y009409D01*
X029329Y009310D02*
X031041Y009310D01*
X030943Y009212D02*
X029230Y009212D01*
X029283Y009264D02*
X029283Y009264D01*
X028382Y009113D02*
X030844Y009113D01*
X030746Y009014D02*
X028283Y009014D01*
X028185Y008916D02*
X030647Y008916D01*
X030549Y008817D02*
X028086Y008817D01*
X027988Y008719D02*
X030450Y008719D01*
X030352Y008620D02*
X027889Y008620D01*
X027790Y008522D02*
X030253Y008522D01*
X030155Y008423D02*
X028372Y008423D01*
X028440Y008325D02*
X030056Y008325D01*
X029957Y008226D02*
X028468Y008226D01*
X028467Y008128D02*
X029859Y008128D01*
X027914Y008423D02*
X027692Y008423D01*
X027593Y008325D02*
X027846Y008325D01*
X027818Y008226D02*
X027495Y008226D01*
X027533Y008264D02*
X027533Y008264D01*
X027818Y008128D02*
X022717Y008128D01*
X022788Y008029D02*
X023546Y008029D01*
X023893Y007493D02*
X031793Y007493D01*
X033643Y009343D01*
X035343Y009343D01*
X035843Y009843D01*
X036307Y009606D02*
X036378Y009606D01*
X036443Y009507D02*
X036243Y009507D01*
X036144Y009409D02*
X036541Y009409D01*
X037144Y009409D02*
X037555Y009409D01*
X037444Y009507D02*
X037243Y009507D01*
X037307Y009606D02*
X037380Y009606D01*
X037793Y009507D02*
X037893Y009507D01*
X037893Y009409D02*
X037793Y009409D01*
X038130Y009409D02*
X038541Y009409D01*
X038443Y009507D02*
X038242Y009507D01*
X038306Y009606D02*
X038378Y009606D01*
X039050Y009310D02*
X035593Y009310D01*
X035494Y009212D02*
X039149Y009212D01*
X039247Y009113D02*
X033696Y009113D01*
X033597Y009014D02*
X041146Y009014D01*
X041244Y008916D02*
X033499Y008916D01*
X033400Y008817D02*
X038630Y008817D01*
X038548Y008783D02*
X038402Y008637D01*
X038323Y008446D01*
X038323Y008239D01*
X038402Y008048D01*
X038548Y007902D01*
X038691Y007843D01*
X038548Y007783D01*
X038402Y007637D01*
X038323Y007446D01*
X038323Y007239D01*
X038402Y007048D01*
X038548Y006902D01*
X038739Y006823D01*
X038946Y006823D01*
X039137Y006902D01*
X039283Y007048D01*
X039363Y007239D01*
X039363Y007446D01*
X039283Y007637D01*
X039137Y007783D01*
X038994Y007843D01*
X039137Y007902D01*
X039283Y008048D01*
X039363Y008239D01*
X039363Y008446D01*
X039283Y008637D01*
X039137Y008783D01*
X038946Y008863D01*
X038739Y008863D01*
X038548Y008783D01*
X038484Y008719D02*
X033302Y008719D01*
X033203Y008620D02*
X038395Y008620D01*
X038354Y008522D02*
X033105Y008522D01*
X033006Y008423D02*
X038323Y008423D01*
X038323Y008325D02*
X037038Y008325D01*
X037195Y008226D02*
X038328Y008226D01*
X038369Y008128D02*
X037287Y008128D01*
X037328Y008029D02*
X038421Y008029D01*
X038519Y007931D02*
X037363Y007931D01*
X037363Y007832D02*
X038665Y007832D01*
X038498Y007733D02*
X037360Y007733D01*
X037319Y007635D02*
X038401Y007635D01*
X038360Y007536D02*
X037272Y007536D01*
X037173Y007438D02*
X038323Y007438D01*
X038323Y007339D02*
X037002Y007339D01*
X037180Y007241D02*
X038323Y007241D01*
X038363Y007142D02*
X037279Y007142D01*
X037322Y007044D02*
X038406Y007044D01*
X038505Y006945D02*
X037363Y006945D01*
X037363Y006847D02*
X038682Y006847D01*
X039004Y006847D02*
X040677Y006847D01*
X040594Y006748D02*
X037363Y006748D01*
X037325Y006649D02*
X040594Y006649D01*
X040594Y006551D02*
X037417Y006551D01*
X037516Y006452D02*
X040594Y006452D01*
X040594Y006354D02*
X037614Y006354D01*
X037713Y006255D02*
X040623Y006255D01*
X040676Y006058D02*
X039206Y006058D01*
X039296Y006021D02*
X039002Y006143D01*
X038684Y006143D01*
X038389Y006021D01*
X038164Y005796D01*
X038043Y005502D01*
X038043Y005184D01*
X038164Y004889D01*
X038389Y004664D01*
X038684Y004543D01*
X039002Y004543D01*
X039296Y004664D01*
X039521Y004889D01*
X039643Y005184D01*
X039643Y005502D01*
X039521Y005796D01*
X039296Y006021D01*
X039357Y005960D02*
X040594Y005960D01*
X040594Y005861D02*
X039456Y005861D01*
X039535Y005763D02*
X040594Y005763D01*
X040594Y005664D02*
X039575Y005664D01*
X039616Y005565D02*
X040594Y005565D01*
X040624Y005467D02*
X039643Y005467D01*
X039643Y005368D02*
X041934Y005368D01*
X041993Y005270D02*
X042033Y005270D01*
X042075Y005171D02*
X042093Y005171D01*
X042093Y005073D02*
X042075Y005073D01*
X042075Y004974D02*
X042093Y004974D01*
X042093Y004876D02*
X042075Y004876D01*
X042293Y004743D02*
X042093Y004543D01*
X040143Y004543D01*
X039843Y004243D01*
X039843Y003593D01*
X039243Y002993D01*
X038693Y002993D01*
X038493Y003193D01*
X036843Y004843D01*
X035343Y006343D01*
X026293Y006343D01*
X026393Y006543D02*
X036143Y006543D01*
X036843Y005843D01*
X037343Y005343D01*
X037343Y004843D01*
X038843Y003343D01*
X038993Y003343D01*
X039193Y003343D01*
X039543Y003693D01*
X039543Y004443D01*
X040049Y004949D01*
X041334Y004949D01*
X040594Y005171D02*
X039638Y005171D01*
X039643Y005270D02*
X040675Y005270D01*
X039890Y005073D02*
X039597Y005073D01*
X039556Y004974D02*
X039791Y004974D01*
X039693Y004876D02*
X039507Y004876D01*
X039594Y004777D02*
X039409Y004777D01*
X039496Y004679D02*
X039310Y004679D01*
X039397Y004580D02*
X039092Y004580D01*
X039343Y004481D02*
X038337Y004481D01*
X038435Y004383D02*
X039343Y004383D01*
X039343Y004284D02*
X038534Y004284D01*
X038632Y004186D02*
X039051Y004186D01*
X039334Y004186D02*
X039343Y004186D01*
X040193Y003893D02*
X040462Y004162D01*
X041334Y004162D01*
X042075Y004186D02*
X042561Y004186D01*
X042563Y004284D02*
X042075Y004284D01*
X042216Y004383D02*
X042563Y004383D01*
X042563Y004481D02*
X042314Y004481D01*
X042413Y004580D02*
X042563Y004580D01*
X042563Y004679D02*
X042493Y004679D01*
X042493Y004777D02*
X042563Y004777D01*
X042563Y004876D02*
X042493Y004876D01*
X042493Y004974D02*
X042563Y004974D01*
X042563Y005073D02*
X042493Y005073D01*
X042493Y005171D02*
X042563Y005171D01*
X042563Y005270D02*
X042493Y005270D01*
X042493Y005368D02*
X042563Y005368D01*
X042563Y005467D02*
X042401Y005467D01*
X042303Y005565D02*
X042563Y005565D01*
X042563Y005664D02*
X042204Y005664D01*
X042106Y005763D02*
X042563Y005763D01*
X042563Y005861D02*
X042075Y005861D01*
X042075Y005960D02*
X042563Y005960D01*
X042502Y006058D02*
X041992Y006058D01*
X042403Y006157D02*
X037793Y006157D01*
X037793Y006058D02*
X038480Y006058D01*
X038328Y005960D02*
X037793Y005960D01*
X037793Y005861D02*
X038230Y005861D01*
X038151Y005763D02*
X037793Y005763D01*
X037793Y005664D02*
X038110Y005664D01*
X038069Y005565D02*
X037793Y005565D01*
X037793Y005467D02*
X038043Y005467D01*
X038043Y005368D02*
X037793Y005368D01*
X037793Y005270D02*
X038043Y005270D01*
X038048Y005171D02*
X037793Y005171D01*
X037793Y005073D02*
X038089Y005073D01*
X038129Y004974D02*
X037844Y004974D01*
X037942Y004876D02*
X038178Y004876D01*
X038277Y004777D02*
X038041Y004777D01*
X038140Y004679D02*
X038375Y004679D01*
X038238Y004580D02*
X038593Y004580D01*
X038643Y003893D02*
X037593Y004943D01*
X037593Y006093D01*
X036843Y006843D01*
X036293Y007393D01*
X033193Y007393D01*
X032643Y006843D01*
X026393Y006843D01*
X026460Y007044D02*
X032561Y007044D01*
X032659Y007142D02*
X026362Y007142D01*
X026263Y007241D02*
X032758Y007241D01*
X032856Y007339D02*
X031922Y007339D01*
X032021Y007438D02*
X032955Y007438D01*
X033054Y007536D02*
X032119Y007536D01*
X032218Y007635D02*
X036366Y007635D01*
X036325Y007733D02*
X032316Y007733D01*
X032415Y007832D02*
X036323Y007832D01*
X036323Y007931D02*
X032513Y007931D01*
X032612Y008029D02*
X036357Y008029D01*
X036398Y008128D02*
X032710Y008128D01*
X032809Y008226D02*
X036491Y008226D01*
X036648Y008325D02*
X032908Y008325D01*
X032993Y007793D02*
X032793Y007593D01*
X032793Y007543D01*
X032993Y007793D02*
X035393Y007793D01*
X039020Y007832D02*
X041463Y007832D01*
X041463Y007931D02*
X039166Y007931D01*
X039264Y008029D02*
X041463Y008029D01*
X041463Y008128D02*
X039316Y008128D01*
X039357Y008226D02*
X041463Y008226D01*
X041463Y008325D02*
X039363Y008325D01*
X039363Y008423D02*
X041463Y008423D01*
X041463Y008522D02*
X039331Y008522D01*
X039290Y008620D02*
X041463Y008620D01*
X041441Y008719D02*
X039202Y008719D01*
X039055Y008817D02*
X041343Y008817D01*
X041895Y008916D02*
X043843Y008916D01*
X043843Y009014D02*
X041796Y009014D01*
X041698Y009113D02*
X043843Y009113D01*
X043843Y009212D02*
X041599Y009212D01*
X041500Y009310D02*
X043843Y009310D01*
X043843Y009409D02*
X041402Y009409D01*
X041423Y009388D02*
X041288Y009523D01*
X040363Y009523D01*
X040363Y010275D01*
X040295Y010343D01*
X043843Y010343D01*
X043843Y000343D01*
X039994Y000343D01*
X040137Y000402D01*
X040283Y000548D01*
X040363Y000739D01*
X040363Y000946D01*
X040283Y001137D01*
X040208Y001213D01*
X042788Y001213D01*
X042923Y001347D01*
X043773Y002197D01*
X043773Y002388D01*
X043773Y003338D01*
X043638Y003473D01*
X043373Y003738D01*
X043373Y006238D01*
X043238Y006373D01*
X042456Y007154D01*
X042533Y007123D01*
X042853Y007123D01*
X043149Y007245D01*
X043375Y007472D01*
X043498Y007768D01*
X043498Y008088D01*
X043375Y008384D01*
X043149Y008610D01*
X042853Y008733D01*
X042533Y008733D01*
X042237Y008610D01*
X042010Y008384D01*
X041923Y008172D01*
X041923Y008697D01*
X041923Y008888D01*
X041423Y009388D01*
X041423Y009388D01*
X041303Y009507D02*
X043843Y009507D01*
X043843Y009606D02*
X040363Y009606D01*
X040363Y009704D02*
X043843Y009704D01*
X043843Y009803D02*
X040363Y009803D01*
X040363Y009901D02*
X043843Y009901D01*
X043843Y010000D02*
X040363Y010000D01*
X040363Y010098D02*
X043843Y010098D01*
X043843Y010197D02*
X040363Y010197D01*
X040342Y010296D02*
X043843Y010296D01*
X043843Y008817D02*
X041923Y008817D01*
X041923Y008719D02*
X042499Y008719D01*
X042261Y008620D02*
X041923Y008620D01*
X041923Y008522D02*
X042148Y008522D01*
X042050Y008423D02*
X041923Y008423D01*
X041923Y008325D02*
X041986Y008325D01*
X041945Y008226D02*
X041923Y008226D01*
X043124Y008620D02*
X043843Y008620D01*
X043843Y008522D02*
X043237Y008522D01*
X043336Y008423D02*
X043843Y008423D01*
X043843Y008325D02*
X043400Y008325D01*
X043440Y008226D02*
X043843Y008226D01*
X043843Y008128D02*
X043481Y008128D01*
X043498Y008029D02*
X043843Y008029D01*
X043843Y007931D02*
X043498Y007931D01*
X043498Y007832D02*
X043843Y007832D01*
X043843Y007733D02*
X043484Y007733D01*
X043443Y007635D02*
X043843Y007635D01*
X043843Y007536D02*
X043402Y007536D01*
X043341Y007438D02*
X043843Y007438D01*
X043843Y007339D02*
X043243Y007339D01*
X043138Y007241D02*
X043843Y007241D01*
X043843Y007142D02*
X042900Y007142D01*
X042665Y006945D02*
X043843Y006945D01*
X043843Y006847D02*
X042764Y006847D01*
X042863Y006748D02*
X043843Y006748D01*
X043843Y006649D02*
X042961Y006649D01*
X043060Y006551D02*
X043843Y006551D01*
X043843Y006452D02*
X043158Y006452D01*
X043238Y006373D02*
X043238Y006373D01*
X043257Y006354D02*
X043843Y006354D01*
X043843Y006255D02*
X043355Y006255D01*
X043373Y006157D02*
X043843Y006157D01*
X043843Y006058D02*
X043373Y006058D01*
X043373Y005960D02*
X043843Y005960D01*
X043843Y005861D02*
X043373Y005861D01*
X043373Y005763D02*
X043843Y005763D01*
X043843Y005664D02*
X043373Y005664D01*
X043373Y005565D02*
X043843Y005565D01*
X043843Y005467D02*
X043373Y005467D01*
X043373Y005368D02*
X043843Y005368D01*
X043843Y005270D02*
X043373Y005270D01*
X043373Y005171D02*
X043843Y005171D01*
X043843Y005073D02*
X043373Y005073D01*
X043373Y004974D02*
X043843Y004974D01*
X043843Y004876D02*
X043373Y004876D01*
X043373Y004777D02*
X043843Y004777D01*
X043843Y004679D02*
X043373Y004679D01*
X043373Y004580D02*
X043843Y004580D01*
X043843Y004481D02*
X043373Y004481D01*
X043373Y004383D02*
X043843Y004383D01*
X043843Y004284D02*
X043373Y004284D01*
X043373Y004186D02*
X043843Y004186D01*
X043843Y004087D02*
X043373Y004087D01*
X043373Y003989D02*
X043843Y003989D01*
X043843Y003890D02*
X043373Y003890D01*
X043373Y003792D02*
X043843Y003792D01*
X043843Y003693D02*
X043417Y003693D01*
X043516Y003595D02*
X043843Y003595D01*
X043843Y003496D02*
X043614Y003496D01*
X043713Y003398D02*
X043843Y003398D01*
X043843Y003299D02*
X043773Y003299D01*
X043773Y003200D02*
X043843Y003200D01*
X043843Y003102D02*
X043773Y003102D01*
X043773Y003003D02*
X043843Y003003D01*
X043843Y002905D02*
X043773Y002905D01*
X043773Y002806D02*
X043843Y002806D01*
X043843Y002708D02*
X043773Y002708D01*
X043773Y002609D02*
X043843Y002609D01*
X043843Y002511D02*
X043773Y002511D01*
X043773Y002412D02*
X043843Y002412D01*
X043843Y002314D02*
X043773Y002314D01*
X043773Y002215D02*
X043843Y002215D01*
X043843Y002116D02*
X043692Y002116D01*
X043593Y002018D02*
X043843Y002018D01*
X043843Y001919D02*
X043495Y001919D01*
X043396Y001821D02*
X043843Y001821D01*
X043843Y001722D02*
X043298Y001722D01*
X043199Y001624D02*
X043843Y001624D01*
X043843Y001525D02*
X043100Y001525D01*
X043002Y001427D02*
X043843Y001427D01*
X043843Y001328D02*
X042903Y001328D01*
X042805Y001230D02*
X043843Y001230D01*
X043843Y001131D02*
X040286Y001131D01*
X040327Y001032D02*
X043843Y001032D01*
X043843Y000934D02*
X040363Y000934D01*
X040363Y000835D02*
X043843Y000835D01*
X043843Y000737D02*
X040362Y000737D01*
X040321Y000638D02*
X043843Y000638D01*
X043843Y000540D02*
X040275Y000540D01*
X040177Y000441D02*
X043843Y000441D01*
X043843Y000343D02*
X039994Y000343D01*
X038893Y001443D02*
X038843Y001393D01*
X035399Y001131D02*
X035286Y001131D01*
X035327Y001032D02*
X035358Y001032D01*
X034656Y001328D02*
X034440Y001328D01*
X032843Y000843D02*
X032143Y001543D01*
X030843Y001543D01*
X029843Y002543D01*
X024843Y002543D01*
X023493Y003893D01*
X023093Y003893D01*
X022893Y004093D01*
X021553Y004186D02*
X020459Y004186D01*
X020535Y004087D02*
X021454Y004087D01*
X021179Y003989D02*
X020906Y003989D01*
X019951Y004087D02*
X019681Y004087D01*
X023343Y003493D02*
X023643Y003193D01*
X023893Y003193D01*
X024743Y002343D01*
X029743Y002343D01*
X030743Y001343D01*
X031343Y001343D01*
X031843Y000843D01*
X029074Y001328D02*
X029029Y001328D01*
X028399Y001131D02*
X028286Y001131D01*
X028327Y001032D02*
X028358Y001032D01*
X027656Y001328D02*
X027640Y001328D01*
X028743Y001943D02*
X024543Y001943D01*
X023693Y002793D01*
X022743Y002793D01*
X022393Y003143D01*
X023143Y005693D02*
X025543Y003293D01*
X030293Y003293D01*
X031093Y002493D01*
X031093Y002343D01*
X031392Y002215D02*
X033145Y002215D01*
X033202Y002116D02*
X033244Y002116D01*
X033300Y002018D02*
X033342Y002018D01*
X033047Y002314D02*
X031418Y002314D01*
X031416Y002412D02*
X031551Y002412D01*
X031441Y002511D02*
X031375Y002511D01*
X031378Y002609D02*
X031286Y002609D01*
X031340Y002708D02*
X031160Y002708D01*
X031062Y002806D02*
X031792Y002806D01*
X031793Y002893D02*
X031793Y003361D01*
X031721Y003350D01*
X031668Y003333D01*
X031668Y003357D01*
X031618Y003477D01*
X031582Y003513D01*
X031847Y003513D01*
X032032Y003328D01*
X031964Y003350D01*
X031893Y003361D01*
X031893Y002893D01*
X031793Y002893D01*
X031793Y002905D02*
X031893Y002905D01*
X031893Y003003D02*
X031793Y003003D01*
X031793Y003102D02*
X031893Y003102D01*
X031893Y003200D02*
X031793Y003200D01*
X031793Y003299D02*
X031893Y003299D01*
X031963Y003398D02*
X031651Y003398D01*
X031599Y003496D02*
X031864Y003496D01*
X031343Y003293D02*
X031143Y003493D01*
X025693Y003493D01*
X023593Y005593D01*
X023593Y005843D01*
X023143Y005843D02*
X023143Y005693D01*
X024193Y005960D02*
X035443Y005960D01*
X035344Y006058D02*
X024160Y006058D01*
X018318Y006058D02*
X018091Y006058D01*
X019510Y007635D02*
X019703Y007635D01*
X019703Y007733D02*
X019493Y007733D01*
X019493Y007832D02*
X019703Y007832D01*
X019712Y007931D02*
X019493Y007931D01*
X019493Y008029D02*
X019810Y008029D01*
X019909Y008128D02*
X019493Y008128D01*
X019493Y008226D02*
X020007Y008226D01*
X020106Y008325D02*
X019493Y008325D01*
X019493Y008423D02*
X020205Y008423D01*
X020303Y008522D02*
X019493Y008522D01*
X019493Y008620D02*
X020402Y008620D01*
X020500Y008719D02*
X019493Y008719D01*
X019493Y008817D02*
X020599Y008817D01*
X020697Y008916D02*
X019493Y008916D01*
X019497Y009014D02*
X020796Y009014D01*
X020894Y009113D02*
X019596Y009113D01*
X019543Y009343D02*
X019293Y009093D01*
X019543Y009343D02*
X020093Y009343D01*
X020593Y009843D01*
X020843Y009843D01*
X021340Y010000D02*
X021345Y010000D01*
X021343Y009994D02*
X021283Y010137D01*
X021137Y010283D01*
X020994Y010343D01*
X021691Y010343D01*
X021548Y010283D01*
X021402Y010137D01*
X021343Y009994D01*
X021300Y010098D02*
X021386Y010098D01*
X021462Y010197D02*
X021224Y010197D01*
X021108Y010296D02*
X021577Y010296D01*
X021343Y010343D02*
X021343Y009593D01*
X020993Y009243D01*
X020993Y009212D02*
X020244Y009212D01*
X020343Y009310D02*
X021091Y009310D01*
X021144Y009409D02*
X021190Y009409D01*
X021243Y009507D02*
X021289Y009507D01*
X021307Y009606D02*
X021378Y009606D01*
X021843Y009793D02*
X021843Y009843D01*
X022843Y009843D02*
X022843Y009543D01*
X022970Y009333D02*
X023137Y009402D01*
X023283Y009548D01*
X023343Y009691D01*
X023402Y009548D01*
X023548Y009402D01*
X023715Y009333D01*
X022970Y009333D01*
X023144Y009409D02*
X023541Y009409D01*
X023443Y009507D02*
X023243Y009507D01*
X023307Y009606D02*
X023378Y009606D01*
X023343Y009393D02*
X023343Y010343D01*
X021343Y010343D01*
X019343Y010343D01*
X019224Y010197D02*
X019462Y010197D01*
X019402Y010137D02*
X019343Y009994D01*
X019283Y010137D01*
X019137Y010283D01*
X018994Y010343D01*
X019691Y010343D01*
X019548Y010283D01*
X019402Y010137D01*
X019386Y010098D02*
X019300Y010098D01*
X019340Y010000D02*
X019345Y010000D01*
X018548Y010283D02*
X018402Y010137D01*
X018343Y009994D01*
X018283Y010137D01*
X018137Y010283D01*
X017994Y010343D01*
X018691Y010343D01*
X018548Y010283D01*
X018577Y010296D02*
X018108Y010296D01*
X018224Y010197D02*
X018462Y010197D01*
X018386Y010098D02*
X018300Y010098D01*
X018340Y010000D02*
X018345Y010000D01*
X017548Y010283D02*
X017402Y010137D01*
X017343Y009994D01*
X017283Y010137D01*
X017137Y010283D01*
X016994Y010343D01*
X017691Y010343D01*
X017548Y010283D01*
X017577Y010296D02*
X017108Y010296D01*
X017224Y010197D02*
X017462Y010197D01*
X017386Y010098D02*
X017300Y010098D01*
X017340Y010000D02*
X017345Y010000D01*
X018243Y009507D02*
X018443Y009507D01*
X018378Y009606D02*
X018307Y009606D01*
X018144Y009409D02*
X018541Y009409D01*
X018351Y009310D02*
X017658Y009310D01*
X020441Y009409D02*
X020541Y009409D01*
X023137Y010283D02*
X023283Y010137D01*
X023343Y009994D01*
X023402Y010137D01*
X023548Y010283D01*
X023691Y010343D01*
X022994Y010343D01*
X023137Y010283D01*
X023108Y010296D02*
X023577Y010296D01*
X023462Y010197D02*
X023224Y010197D01*
X023300Y010098D02*
X023386Y010098D01*
X023345Y010000D02*
X023340Y010000D01*
X024137Y010283D02*
X024283Y010137D01*
X024343Y009994D01*
X024402Y010137D01*
X024548Y010283D01*
X024691Y010343D01*
X023994Y010343D01*
X024137Y010283D01*
X024108Y010296D02*
X024577Y010296D01*
X024462Y010197D02*
X024224Y010197D01*
X024300Y010098D02*
X024386Y010098D01*
X024345Y010000D02*
X024340Y010000D01*
X024343Y009691D02*
X024402Y009548D01*
X024548Y009402D01*
X024715Y009333D01*
X023970Y009333D01*
X024137Y009402D01*
X024283Y009548D01*
X024343Y009691D01*
X024378Y009606D02*
X024307Y009606D01*
X024243Y009507D02*
X024443Y009507D01*
X024541Y009409D02*
X024144Y009409D01*
X024343Y009343D02*
X024343Y010343D01*
X023343Y010343D01*
X024343Y010343D02*
X030343Y010343D01*
X030224Y010197D02*
X030462Y010197D01*
X030402Y010137D02*
X030343Y009994D01*
X030283Y010137D01*
X030137Y010283D01*
X029994Y010343D01*
X030691Y010343D01*
X030548Y010283D01*
X030402Y010137D01*
X030386Y010098D02*
X030300Y010098D01*
X030340Y010000D02*
X030345Y010000D01*
X030577Y010296D02*
X030108Y010296D01*
X039187Y007733D02*
X041463Y007733D01*
X041463Y007635D02*
X039284Y007635D01*
X039325Y007536D02*
X041463Y007536D01*
X041522Y007438D02*
X039363Y007438D01*
X039363Y007339D02*
X041621Y007339D01*
X041719Y007241D02*
X039363Y007241D01*
X039322Y007142D02*
X041818Y007142D01*
X041916Y007044D02*
X039279Y007044D01*
X039180Y006945D02*
X042015Y006945D01*
X041991Y006847D02*
X042114Y006847D01*
X042567Y007044D02*
X043843Y007044D01*
X042485Y007142D02*
X042468Y007142D01*
X042305Y006255D02*
X042046Y006255D01*
X041849Y005736D02*
X041334Y005736D01*
X041849Y005736D02*
X042293Y005293D01*
X042293Y004743D01*
X042462Y004087D02*
X042075Y004087D01*
X042075Y003989D02*
X042364Y003989D01*
X042265Y003890D02*
X042122Y003890D01*
X042162Y003792D02*
X042166Y003792D01*
X039193Y003893D02*
X038643Y003893D01*
X035938Y004073D02*
X035938Y004073D01*
X031326Y002905D02*
X030963Y002905D01*
X030865Y003003D02*
X031192Y003003D01*
X031074Y003102D02*
X030766Y003102D01*
X030668Y003200D02*
X031029Y003200D01*
X031793Y002708D02*
X031893Y002708D01*
X031893Y002609D02*
X031793Y002609D01*
X031793Y002511D02*
X031893Y002511D01*
X031893Y002412D02*
X031793Y002412D01*
X032135Y002412D02*
X032538Y002412D01*
X032439Y002511D02*
X032244Y002511D01*
X032307Y002609D02*
X032377Y002609D01*
X021691Y000343D02*
X020994Y000343D01*
X021691Y000343D01*
X021548Y000402D01*
X021402Y000548D01*
X021343Y000691D01*
X021283Y000548D01*
X021137Y000402D01*
X020994Y000343D01*
X021177Y000441D02*
X021509Y000441D01*
X021410Y000540D02*
X021275Y000540D01*
X021321Y000638D02*
X021364Y000638D01*
X021343Y000343D02*
X020343Y000343D01*
X020343Y001343D01*
X020494Y001230D02*
X020191Y001230D01*
X020286Y001131D02*
X020399Y001131D01*
X020358Y001032D02*
X020327Y001032D01*
X019494Y001230D02*
X019191Y001230D01*
X019286Y001131D02*
X019399Y001131D01*
X019358Y001032D02*
X019327Y001032D01*
X019343Y001243D02*
X019343Y000343D01*
X020343Y000343D01*
X020177Y000441D02*
X020509Y000441D01*
X020548Y000402D02*
X020691Y000343D01*
X019994Y000343D01*
X020691Y000343D01*
X020548Y000402D02*
X020402Y000548D01*
X020343Y000691D01*
X020283Y000548D01*
X020137Y000402D01*
X019994Y000343D01*
X019691Y000343D02*
X018994Y000343D01*
X019691Y000343D01*
X019548Y000402D01*
X019402Y000548D01*
X019343Y000691D01*
X019283Y000548D01*
X019137Y000402D01*
X018994Y000343D01*
X019177Y000441D02*
X019509Y000441D01*
X019410Y000540D02*
X019275Y000540D01*
X019321Y000638D02*
X019364Y000638D01*
X019343Y000343D02*
X018343Y000343D01*
X018343Y001343D01*
X019029Y001328D02*
X019656Y001328D01*
X020029Y001328D02*
X020643Y001328D01*
X018402Y000548D02*
X018343Y000691D01*
X018283Y000548D01*
X018137Y000402D01*
X017994Y000343D01*
X018691Y000343D01*
X017994Y000343D01*
X018177Y000441D02*
X018509Y000441D01*
X018548Y000402D02*
X018691Y000343D01*
X018548Y000402D02*
X018402Y000548D01*
X018410Y000540D02*
X018275Y000540D01*
X018321Y000638D02*
X018364Y000638D01*
X018343Y000343D02*
X017343Y000343D01*
X017343Y001293D01*
X017494Y001230D02*
X017191Y001230D01*
X017137Y001283D02*
X017043Y001323D01*
X017043Y001610D01*
X017643Y002210D01*
X017643Y001323D01*
X017548Y001283D01*
X017402Y001137D01*
X017343Y000994D01*
X017283Y001137D01*
X017137Y001283D01*
X017043Y001328D02*
X017643Y001328D01*
X017643Y001427D02*
X017043Y001427D01*
X017043Y001525D02*
X017643Y001525D01*
X017643Y001624D02*
X017057Y001624D01*
X017155Y001722D02*
X017643Y001722D01*
X017643Y001821D02*
X017254Y001821D01*
X017352Y001919D02*
X017643Y001919D01*
X017643Y002018D02*
X017451Y002018D01*
X017549Y002116D02*
X017643Y002116D01*
X016787Y001919D02*
X008943Y001919D01*
X008943Y001821D02*
X016688Y001821D01*
X016543Y002293D02*
X015343Y002293D01*
X015143Y002493D01*
X001243Y002493D01*
X000843Y002093D01*
X000843Y001843D01*
X000371Y001624D02*
X000343Y001624D01*
X000343Y001691D02*
X000402Y001548D01*
X000548Y001402D01*
X000643Y001363D01*
X000411Y001363D01*
X000343Y001295D01*
X000343Y001691D01*
X000343Y001525D02*
X000425Y001525D01*
X000343Y001427D02*
X000523Y001427D01*
X000376Y001328D02*
X000343Y001328D01*
X000343Y001343D02*
X000343Y000343D01*
X000391Y000343D01*
X000343Y000343D01*
X000343Y000391D01*
X000391Y000343D01*
X001295Y000343D02*
X001691Y000343D01*
X001295Y000343D01*
X001363Y000411D01*
X001363Y000643D01*
X001402Y000548D01*
X001548Y000402D01*
X001691Y000343D01*
X001509Y000441D02*
X001363Y000441D01*
X001363Y000540D02*
X001410Y000540D01*
X001363Y000638D02*
X001364Y000638D01*
X001343Y000343D02*
X005343Y000343D01*
X005343Y001293D01*
X005656Y001328D02*
X005029Y001328D01*
X004656Y001328D02*
X004029Y001328D01*
X003656Y001328D02*
X003029Y001328D01*
X002656Y001328D02*
X002029Y001328D01*
X005137Y000402D02*
X005283Y000548D01*
X005343Y000691D01*
X005402Y000548D01*
X005548Y000402D01*
X005691Y000343D01*
X004994Y000343D01*
X005691Y000343D01*
X005509Y000441D02*
X005177Y000441D01*
X005137Y000402D02*
X004994Y000343D01*
X005343Y000343D02*
X008343Y000343D01*
X008343Y001293D01*
X008656Y001328D02*
X008029Y001328D01*
X007656Y001328D02*
X007029Y001328D01*
X006656Y001328D02*
X006029Y001328D01*
X007753Y001525D02*
X007877Y001525D01*
X009029Y001328D02*
X009656Y001328D01*
X010029Y001328D02*
X010656Y001328D01*
X011029Y001328D02*
X011656Y001328D01*
X011343Y001343D02*
X011343Y000343D01*
X014343Y000343D01*
X014343Y001293D01*
X014393Y001343D01*
X014656Y001328D02*
X014029Y001328D01*
X013656Y001328D02*
X013029Y001328D01*
X012656Y001328D02*
X012029Y001328D01*
X011343Y000691D02*
X011402Y000548D01*
X011548Y000402D01*
X011691Y000343D01*
X010994Y000343D01*
X011691Y000343D01*
X011509Y000441D02*
X011177Y000441D01*
X011137Y000402D02*
X010994Y000343D01*
X011137Y000402D02*
X011283Y000548D01*
X011343Y000691D01*
X011321Y000638D02*
X011364Y000638D01*
X011410Y000540D02*
X011275Y000540D01*
X011343Y000343D02*
X008343Y000343D01*
X008177Y000441D02*
X008509Y000441D01*
X008548Y000402D02*
X008691Y000343D01*
X007994Y000343D01*
X008691Y000343D01*
X008548Y000402D02*
X008402Y000548D01*
X008343Y000691D01*
X008283Y000548D01*
X008137Y000402D01*
X007994Y000343D01*
X008275Y000540D02*
X008410Y000540D01*
X008364Y000638D02*
X008321Y000638D01*
X005410Y000540D02*
X005275Y000540D01*
X005321Y000638D02*
X005364Y000638D01*
X008030Y002018D02*
X008074Y002018D01*
X008115Y002116D02*
X007964Y002116D01*
X014137Y000402D02*
X014283Y000548D01*
X014343Y000691D01*
X014402Y000548D01*
X014548Y000402D01*
X014691Y000343D01*
X013994Y000343D01*
X014691Y000343D01*
X014509Y000441D02*
X014177Y000441D01*
X014137Y000402D02*
X013994Y000343D01*
X014343Y000343D02*
X016343Y000343D01*
X016343Y001293D01*
X016643Y001328D02*
X016029Y001328D01*
X015656Y001328D02*
X015029Y001328D01*
X017286Y001131D02*
X017399Y001131D01*
X017358Y001032D02*
X017327Y001032D01*
X017343Y000691D02*
X017402Y000548D01*
X017548Y000402D01*
X017691Y000343D01*
X016994Y000343D01*
X017691Y000343D01*
X017509Y000441D02*
X017177Y000441D01*
X017137Y000402D02*
X017283Y000548D01*
X017343Y000691D01*
X017321Y000638D02*
X017364Y000638D01*
X017410Y000540D02*
X017275Y000540D01*
X017137Y000402D02*
X016994Y000343D01*
X016691Y000343D02*
X015994Y000343D01*
X016691Y000343D01*
X016548Y000402D01*
X016402Y000548D01*
X016343Y000691D01*
X016283Y000548D01*
X016137Y000402D01*
X015994Y000343D01*
X016177Y000441D02*
X016509Y000441D01*
X016410Y000540D02*
X016275Y000540D01*
X016321Y000638D02*
X016364Y000638D01*
X016343Y000343D02*
X017343Y000343D01*
X020275Y000540D02*
X020410Y000540D01*
X020364Y000638D02*
X020321Y000638D01*
X014410Y000540D02*
X014275Y000540D01*
X014321Y000638D02*
X014364Y000638D01*
X016543Y002293D02*
X016743Y002493D01*
X016743Y002643D01*
X016193Y002643D02*
X016043Y002493D01*
X015543Y002493D01*
X015343Y002693D01*
X000993Y002693D01*
X000843Y002843D01*
X001643Y002893D02*
X015693Y002893D01*
X015743Y002843D01*
X016543Y007593D02*
X016343Y007793D01*
X015143Y007793D01*
X019108Y010296D02*
X019577Y010296D01*
X042886Y008719D02*
X043843Y008719D01*
D11*
X038843Y008343D03*
X036843Y007843D03*
X038843Y007343D03*
X036843Y006843D03*
X036843Y005843D03*
X036843Y004843D03*
X036843Y003843D03*
X035843Y002843D03*
X034843Y002843D03*
X033843Y002843D03*
X032843Y002843D03*
X031843Y002843D03*
X031843Y000843D03*
X032843Y000843D03*
X033843Y000843D03*
X034843Y000843D03*
X035843Y000843D03*
X036843Y000843D03*
X037843Y000843D03*
X038843Y000843D03*
X039843Y000843D03*
X030843Y000843D03*
X029843Y000843D03*
X028843Y000843D03*
X027843Y000843D03*
X026843Y000843D03*
X025843Y000843D03*
X024843Y000843D03*
X023843Y000843D03*
X022843Y000843D03*
X021843Y000843D03*
X020843Y000843D03*
X019843Y000843D03*
X018843Y000843D03*
X017843Y000843D03*
X016843Y000843D03*
X015843Y000843D03*
X014843Y000843D03*
X013843Y000843D03*
X012843Y000843D03*
X011843Y000843D03*
X010843Y000843D03*
X009843Y000843D03*
X008843Y000843D03*
X007843Y000843D03*
X006843Y000843D03*
X005843Y000843D03*
X004843Y000843D03*
X003843Y000843D03*
X002843Y000843D03*
X001843Y000843D03*
X000843Y001843D03*
X000843Y002843D03*
X000843Y003843D03*
X000843Y004843D03*
X000843Y005843D03*
X000843Y006843D03*
X000843Y007843D03*
X000843Y009843D03*
X001843Y009843D03*
X002843Y009843D03*
X003843Y009843D03*
X004843Y009843D03*
X005843Y009843D03*
X006843Y009843D03*
X007843Y009843D03*
X008843Y009843D03*
X009843Y009843D03*
X010843Y009843D03*
X011843Y009843D03*
X012843Y009843D03*
X013843Y009843D03*
X014843Y009843D03*
X015843Y009843D03*
X016843Y009843D03*
X017843Y009843D03*
X018843Y009843D03*
X019843Y009843D03*
X020843Y009843D03*
X021843Y009843D03*
X022843Y009843D03*
X023843Y009843D03*
X024843Y009843D03*
X025843Y009843D03*
X026843Y009843D03*
X027843Y009843D03*
X028843Y009843D03*
X029843Y009843D03*
X030843Y009843D03*
X031843Y009843D03*
X032843Y009843D03*
X033843Y009843D03*
X034843Y009843D03*
X035843Y009843D03*
X036843Y009843D03*
X037843Y009843D03*
X038843Y009843D03*
D12*
X039843Y009843D03*
X000843Y008843D03*
X000843Y000843D03*
D13*
X042693Y002758D03*
X042693Y007928D03*
D14*
X041334Y006524D03*
X041334Y005736D03*
X041334Y004949D03*
X041334Y004162D03*
D15*
X040193Y003893D03*
X039193Y003893D03*
X038993Y003343D03*
X038493Y003193D03*
X039343Y001943D03*
X031343Y003293D03*
X031093Y002343D03*
X026043Y003943D03*
X026843Y004443D03*
X027343Y004843D03*
X028743Y005193D03*
X031843Y005543D03*
X032393Y005843D03*
X035343Y005493D03*
X034643Y005043D03*
X032793Y007543D03*
X028143Y008193D03*
X022493Y007893D03*
X021743Y007843D03*
X021243Y007393D03*
X020443Y007393D03*
X019293Y007393D03*
X018143Y007243D03*
X017443Y007243D03*
X017793Y006893D03*
X018493Y006843D03*
X019293Y006943D03*
X019893Y006793D03*
X020493Y006943D03*
X020493Y006493D03*
X019793Y006343D03*
X019293Y006493D03*
X018843Y006443D03*
X018643Y005993D03*
X020243Y005693D03*
X020743Y005693D03*
X021293Y005743D03*
X023143Y005843D03*
X023593Y005843D03*
X022993Y004993D03*
X022943Y004543D03*
X022893Y004093D03*
X021393Y003743D03*
X020693Y003743D03*
X020243Y003943D03*
X019543Y003793D03*
X018443Y003943D03*
X017668Y003893D03*
X017343Y004293D03*
X018093Y004893D03*
X019043Y004893D03*
X020043Y005093D03*
X020443Y004843D03*
X020893Y004893D03*
X021193Y004543D03*
X020743Y004443D03*
X019643Y004343D03*
X018443Y003443D03*
X017493Y003393D03*
X017093Y003043D03*
X015743Y002843D03*
X016193Y002643D03*
X016743Y002643D03*
X019543Y003293D03*
X021643Y003043D03*
X022393Y003143D03*
X022893Y003243D03*
X023343Y003493D03*
X023393Y002343D03*
X018693Y005293D03*
X019043Y005643D03*
X015393Y005543D03*
X014593Y005543D03*
X014393Y007193D03*
X014893Y007193D03*
X015393Y007193D03*
X016543Y007593D03*
X018543Y008593D03*
X018543Y009043D03*
X006643Y007393D03*
X006093Y007043D03*
X003843Y007393D03*
X002643Y007043D03*
X002993Y006043D03*
X004843Y005443D03*
X006593Y005243D03*
X007293Y005243D03*
X007643Y005593D03*
X006943Y005593D03*
X005743Y005993D03*
X002443Y004343D03*
X002343Y003643D03*
X002843Y003643D03*
X003393Y003643D03*
X003943Y003643D03*
X004443Y003643D03*
D16*
X026043Y003943D02*
X026243Y003743D01*
X031943Y003743D01*
X032843Y002843D01*
X033443Y002243D01*
X035043Y002243D01*
X035843Y001443D01*
X038893Y001443D01*
X042693Y001443D01*
X043543Y002293D01*
X043543Y003243D01*
X043143Y003643D01*
X043143Y006143D01*
X041693Y007593D01*
X041693Y008793D01*
X041193Y009293D01*
X039393Y009293D01*
X038843Y009843D01*
X041334Y006524D02*
X042362Y006524D01*
X042793Y006093D01*
X042793Y004093D01*
X041143Y002443D01*
X039343Y002443D01*
X039343Y001943D01*
X039343Y002443D02*
X038243Y002443D01*
X036843Y003843D01*
X035843Y003843D01*
X035693Y003993D01*
X035343Y004343D01*
X035343Y005493D01*
X034643Y005043D02*
X032343Y005043D01*
X031843Y005543D01*
X028743Y005193D02*
X028593Y005343D01*
X027343Y005343D01*
X026843Y004843D01*
X026843Y004443D01*
X035843Y003843D02*
X035843Y002843D01*
X038843Y001393D02*
X038843Y000843D01*
X043793Y001893D02*
X043793Y003593D01*
D17*
X031843Y009843D02*
X029893Y007893D01*
X028143Y007893D02*
X028143Y008193D01*
X027343Y008343D02*
X022043Y008343D01*
X021743Y008043D01*
X021743Y007843D01*
X021243Y007893D02*
X021893Y008543D01*
X027243Y008543D01*
X028543Y009843D01*
X028843Y009843D01*
X029093Y009343D02*
X029593Y009843D01*
X029843Y009843D01*
X027843Y009843D02*
X026743Y008743D01*
X021843Y008743D01*
X020943Y007843D01*
X020943Y006943D01*
X020493Y006493D01*
X020193Y006643D02*
X019893Y006343D01*
X019793Y006343D01*
X019693Y005993D02*
X019293Y006393D01*
X019293Y006493D01*
X020193Y006643D02*
X020193Y006943D01*
X020143Y006993D01*
X020143Y007793D01*
X021693Y009343D01*
X022643Y009343D01*
X022843Y009543D01*
X021843Y009793D02*
X019893Y007843D01*
X019893Y006793D01*
X020493Y006943D02*
X020743Y007193D01*
X020743Y007893D01*
X021793Y008943D01*
X025943Y008943D01*
X026843Y009843D01*
X025843Y009843D02*
X025143Y009143D01*
X021743Y009143D01*
X020443Y007843D01*
X020443Y007393D01*
X021243Y007393D02*
X021243Y007893D01*
X022493Y007893D02*
X020793Y006193D01*
X020243Y006193D01*
X020043Y005993D01*
X019693Y005993D01*
X020243Y005693D02*
X020543Y005993D01*
X020843Y005993D01*
X022393Y007543D01*
X023343Y007543D01*
X023693Y007893D01*
X023793Y007693D02*
X023483Y007383D01*
X022483Y007383D01*
X020793Y005693D01*
X020743Y005693D01*
X021293Y005743D02*
X021293Y005943D01*
X022573Y007223D01*
X023623Y007223D01*
X023893Y007493D01*
X022663Y007063D02*
X026173Y007063D01*
X026393Y006843D01*
X026393Y006543D02*
X026033Y006903D01*
X022803Y006903D01*
X021893Y005993D01*
X021893Y005393D01*
X021393Y004893D01*
X020893Y004893D01*
X020443Y004843D02*
X020443Y005093D01*
X020543Y005193D01*
X021443Y005193D01*
X021693Y005443D01*
X021693Y006093D01*
X022663Y007063D01*
X022943Y006743D02*
X024343Y006743D01*
X025893Y006743D01*
X026293Y006343D01*
X022943Y006743D02*
X022093Y005893D01*
X022093Y005293D01*
X021343Y004543D01*
X021193Y004543D01*
X027343Y008343D02*
X028343Y009343D01*
X029093Y009343D01*
X018343Y009343D02*
X018343Y010343D01*
X017343Y010343D02*
X017343Y009593D01*
X017543Y009393D01*
M02*
