G75*
G70*
%OFA0B0*%
%FSLAX24Y24*%
%IPPOS*%
%LPD*%
%AMOC8*
5,1,8,0,0,1.08239X$1,22.5*
%
%ADD10C,0.0100*%
%ADD11C,0.0060*%
%ADD12C,0.0080*%
%ADD13C,0.0000*%
%ADD14C,0.0050*%
%ADD15C,0.0010*%
%ADD16R,0.0195X0.0191*%
D10*
X000343Y004343D02*
X000343Y009343D01*
X001343Y009343D01*
X001343Y004343D01*
X000343Y004343D01*
X030343Y003343D02*
X030343Y002343D01*
X031343Y002343D01*
X031343Y003343D01*
X030343Y003343D01*
X031343Y003343D02*
X032343Y003343D01*
X032343Y002343D01*
X033343Y002343D01*
X033343Y003343D01*
X032343Y003343D01*
X033343Y003343D02*
X035343Y003343D01*
X035343Y002343D01*
X033343Y002343D01*
X032343Y002343D02*
X031343Y002343D01*
X036343Y003343D02*
X037343Y003343D01*
X037343Y008343D01*
X036393Y008343D01*
X036343Y008343D02*
X036343Y003343D01*
X038343Y006843D02*
X039343Y006843D01*
X039343Y008843D01*
X038343Y008843D01*
X038343Y006843D01*
D11*
X038013Y007013D02*
X037899Y007013D01*
X037956Y007013D02*
X037956Y006673D01*
X038013Y006673D02*
X037899Y006673D01*
X037767Y006673D02*
X037597Y006673D01*
X037540Y006729D01*
X037540Y006956D01*
X037597Y007013D01*
X037767Y007013D01*
X037767Y006673D01*
X036113Y006368D02*
X036056Y006254D01*
X035943Y006141D01*
X035943Y006311D01*
X035886Y006368D01*
X035829Y006368D01*
X035773Y006311D01*
X035773Y006198D01*
X035829Y006141D01*
X035943Y006141D01*
X036113Y006000D02*
X036113Y005886D01*
X036113Y005943D02*
X035829Y005943D01*
X035773Y005886D01*
X035773Y005829D01*
X035829Y005773D01*
X035886Y005513D02*
X035886Y005173D01*
X035999Y005286D01*
X036113Y005173D01*
X036113Y005513D01*
X035744Y005513D02*
X035744Y005173D01*
X035631Y005286D01*
X035518Y005173D01*
X035518Y005513D01*
X035376Y005513D02*
X035376Y005173D01*
X035263Y005286D01*
X035149Y005173D01*
X035149Y005513D01*
X034824Y005456D02*
X034824Y005400D01*
X034767Y005343D01*
X034654Y005343D01*
X034597Y005286D01*
X034597Y005229D01*
X034654Y005173D01*
X034767Y005173D01*
X034824Y005229D01*
X034951Y005229D02*
X034951Y005173D01*
X035008Y005173D01*
X035008Y005229D01*
X034951Y005229D01*
X034455Y005229D02*
X034399Y005173D01*
X034285Y005173D01*
X034228Y005229D01*
X034087Y005173D02*
X034087Y005513D01*
X034228Y005456D02*
X034285Y005513D01*
X034399Y005513D01*
X034455Y005456D01*
X034455Y005229D01*
X033860Y005173D02*
X033860Y005513D01*
X033719Y005513D02*
X033605Y005400D01*
X033492Y005513D01*
X033492Y005173D01*
X033350Y005173D02*
X033350Y005400D01*
X033237Y005513D01*
X033124Y005400D01*
X033124Y005173D01*
X032982Y005173D02*
X032755Y005173D01*
X032614Y005173D02*
X032387Y005173D01*
X032245Y005173D02*
X032245Y005513D01*
X032387Y005513D02*
X032387Y005456D01*
X032614Y005229D01*
X032614Y005173D01*
X032982Y005173D02*
X032982Y005513D01*
X033124Y005343D02*
X033350Y005343D01*
X033719Y005173D02*
X033719Y005513D01*
X033860Y005343D02*
X034087Y005343D01*
X034597Y005456D02*
X034654Y005513D01*
X034767Y005513D01*
X034824Y005456D01*
X032614Y005513D02*
X032387Y005513D01*
X032245Y005343D02*
X032019Y005343D01*
X031877Y005343D02*
X031650Y005343D01*
X031650Y005400D02*
X031650Y005173D01*
X031509Y005229D02*
X031452Y005173D01*
X031339Y005173D01*
X031282Y005229D01*
X031282Y005513D01*
X031141Y005456D02*
X031141Y005400D01*
X031084Y005343D01*
X030970Y005343D01*
X030914Y005286D01*
X030914Y005229D01*
X030970Y005173D01*
X031084Y005173D01*
X031141Y005229D01*
X031509Y005229D02*
X031509Y005513D01*
X031650Y005400D02*
X031764Y005513D01*
X031877Y005400D01*
X031877Y005173D01*
X032019Y005173D02*
X032019Y005513D01*
X031141Y005456D02*
X031084Y005513D01*
X030970Y005513D01*
X030914Y005456D01*
X030588Y005456D02*
X030588Y005229D01*
X030531Y005173D01*
X030418Y005173D01*
X030361Y005229D01*
X030220Y005229D02*
X030163Y005173D01*
X030050Y005173D01*
X029993Y005229D01*
X029993Y005456D01*
X030050Y005513D01*
X030163Y005513D01*
X030220Y005456D01*
X030220Y005229D01*
X029851Y005173D02*
X029851Y005513D01*
X029738Y005400D01*
X029625Y005513D01*
X029625Y005173D01*
X029483Y005173D02*
X029256Y005513D01*
X029115Y005513D02*
X029115Y005229D01*
X029058Y005173D01*
X028945Y005173D01*
X028888Y005229D01*
X028888Y005513D01*
X028747Y005513D02*
X028576Y005513D01*
X028520Y005456D01*
X028520Y005400D01*
X028576Y005343D01*
X028747Y005343D01*
X028747Y005173D02*
X028747Y005513D01*
X028576Y005343D02*
X028520Y005286D01*
X028520Y005229D01*
X028576Y005173D01*
X028747Y005173D01*
X028378Y005173D02*
X028265Y005286D01*
X028151Y005173D01*
X028151Y005513D01*
X028010Y005456D02*
X027953Y005513D01*
X027840Y005513D01*
X027783Y005456D01*
X027783Y005400D01*
X027840Y005343D01*
X027783Y005286D01*
X027783Y005229D01*
X027840Y005173D01*
X027953Y005173D01*
X028010Y005229D01*
X028378Y005173D02*
X028378Y005513D01*
X027897Y005343D02*
X027840Y005343D01*
X027642Y005456D02*
X027585Y005513D01*
X027472Y005513D01*
X027415Y005456D01*
X027415Y005400D01*
X027642Y005173D01*
X027415Y005173D01*
X030361Y005456D02*
X030418Y005513D01*
X030531Y005513D01*
X030588Y005456D01*
X030716Y005229D02*
X030716Y005173D01*
X030772Y005173D01*
X030772Y005229D01*
X030716Y005229D01*
X030744Y003813D02*
X030518Y003473D01*
X030518Y003813D01*
X030376Y003813D02*
X030206Y003813D01*
X030149Y003756D01*
X030149Y003529D01*
X030206Y003473D01*
X030376Y003473D01*
X030376Y003813D01*
X030744Y003813D02*
X030744Y003473D01*
X030886Y003529D02*
X030886Y003643D01*
X030999Y003643D01*
X030886Y003756D02*
X030943Y003813D01*
X031056Y003813D01*
X031113Y003756D01*
X031113Y003529D01*
X031056Y003473D01*
X030943Y003473D01*
X030886Y003529D01*
X031483Y003529D02*
X031540Y003473D01*
X031654Y003473D01*
X031710Y003529D01*
X031838Y003529D02*
X031838Y003473D01*
X031894Y003473D01*
X031894Y003529D01*
X031838Y003529D01*
X032036Y003529D02*
X032093Y003473D01*
X032206Y003473D01*
X032263Y003529D01*
X032149Y003643D02*
X032093Y003643D01*
X032036Y003586D01*
X032036Y003529D01*
X032093Y003643D02*
X032036Y003700D01*
X032036Y003756D01*
X032093Y003813D01*
X032206Y003813D01*
X032263Y003756D01*
X032736Y003813D02*
X032963Y003813D01*
X032963Y003643D01*
X032849Y003700D01*
X032793Y003700D01*
X032736Y003643D01*
X032736Y003529D01*
X032793Y003473D01*
X032906Y003473D01*
X032963Y003529D01*
X033744Y003473D02*
X033801Y003529D01*
X033801Y003756D01*
X033858Y003700D02*
X033744Y003700D01*
X033999Y003700D02*
X034169Y003700D01*
X034226Y003643D01*
X034169Y003586D01*
X034056Y003586D01*
X033999Y003529D01*
X034056Y003473D01*
X034226Y003473D01*
X034368Y003529D02*
X034424Y003473D01*
X034538Y003473D01*
X034594Y003529D01*
X034594Y003643D01*
X034538Y003700D01*
X034424Y003700D01*
X034368Y003643D01*
X034368Y003529D01*
X034736Y003473D02*
X034736Y003813D01*
X034736Y003643D02*
X034963Y003643D01*
X034963Y003473D02*
X034963Y003813D01*
X035473Y003336D02*
X035473Y003109D01*
X035473Y003223D02*
X035813Y003223D01*
X035700Y003109D01*
X035756Y002968D02*
X035643Y002968D01*
X035586Y002911D01*
X035586Y002741D01*
X035473Y002741D02*
X035813Y002741D01*
X035813Y002911D01*
X035756Y002968D01*
X036354Y002936D02*
X036354Y002879D01*
X036411Y002823D01*
X036581Y002823D01*
X036581Y003163D01*
X036411Y003163D01*
X036354Y003106D01*
X036354Y003050D01*
X036411Y002993D01*
X036581Y002993D01*
X036722Y002936D02*
X036722Y002879D01*
X036779Y002823D01*
X036893Y002823D01*
X036949Y002879D01*
X037091Y002879D02*
X037091Y003163D01*
X036949Y003106D02*
X036949Y003050D01*
X036893Y002993D01*
X036779Y002993D01*
X036722Y002936D01*
X036411Y002993D02*
X036354Y002936D01*
X037091Y002879D02*
X037147Y002823D01*
X037261Y002823D01*
X037318Y002879D01*
X037318Y003163D01*
X036949Y003106D02*
X036893Y003163D01*
X036779Y003163D01*
X036722Y003106D01*
X037531Y003729D02*
X037588Y003673D01*
X037701Y003673D01*
X037758Y003729D01*
X037701Y003843D02*
X037588Y003843D01*
X037531Y003786D01*
X037531Y003729D01*
X037701Y003843D02*
X037758Y003900D01*
X037758Y003956D01*
X037701Y004013D01*
X037588Y004013D01*
X037531Y003956D01*
X037899Y004013D02*
X037899Y003729D01*
X037956Y003673D01*
X038069Y003673D01*
X038126Y003729D01*
X038126Y004013D01*
X038268Y003956D02*
X038268Y003900D01*
X038324Y003843D01*
X038494Y003843D01*
X038636Y003786D02*
X038636Y004013D01*
X038494Y004013D02*
X038324Y004013D01*
X038268Y003956D01*
X038494Y004013D02*
X038494Y003673D01*
X038324Y003673D01*
X038268Y003729D01*
X038268Y003786D01*
X038324Y003843D01*
X038636Y003786D02*
X038749Y003673D01*
X038863Y003786D01*
X038863Y004013D01*
X038118Y004673D02*
X037948Y004673D01*
X037891Y004729D01*
X037891Y004956D01*
X037948Y005013D01*
X038118Y005013D01*
X038118Y004673D01*
X037749Y004843D02*
X037523Y004843D01*
X040273Y005229D02*
X040273Y005286D01*
X040329Y005343D01*
X040613Y005343D01*
X040613Y005286D02*
X040613Y005400D01*
X040613Y005541D02*
X040613Y005768D01*
X040556Y005768D01*
X040329Y005541D01*
X040273Y005541D01*
X040273Y005229D02*
X040329Y005173D01*
X038108Y005693D02*
X037938Y005693D01*
X037881Y005749D01*
X037881Y005976D01*
X037938Y006033D01*
X038108Y006033D01*
X038108Y005693D01*
X037739Y005863D02*
X037513Y005863D01*
X037626Y005976D02*
X037626Y005749D01*
X039599Y007229D02*
X039599Y007456D01*
X039486Y007343D02*
X039713Y007343D01*
X038213Y007686D02*
X038213Y007800D01*
X038213Y007743D02*
X037929Y007743D01*
X037873Y007686D01*
X037873Y007629D01*
X037929Y007573D01*
X037873Y007941D02*
X037873Y008168D01*
X037873Y008054D02*
X038213Y008054D01*
X038100Y007941D01*
X039486Y008343D02*
X039713Y008343D01*
X036213Y008279D02*
X036213Y008109D01*
X035873Y008109D01*
X035873Y008279D01*
X035929Y008336D01*
X036156Y008336D01*
X036213Y008279D01*
X036213Y007968D02*
X035873Y007968D01*
X036213Y007741D01*
X035873Y007741D01*
X035929Y007600D02*
X036043Y007600D01*
X036043Y007486D01*
X036156Y007373D02*
X035929Y007373D01*
X035873Y007429D01*
X035873Y007543D01*
X035929Y007600D01*
X036156Y007600D02*
X036213Y007543D01*
X036213Y007429D01*
X036156Y007373D01*
X031710Y003756D02*
X031654Y003813D01*
X031540Y003813D01*
X031483Y003756D01*
X031483Y003700D01*
X031540Y003643D01*
X031483Y003586D01*
X031483Y003529D01*
X031540Y003643D02*
X031597Y003643D01*
X035813Y002600D02*
X035813Y002486D01*
X035813Y002543D02*
X035529Y002543D01*
X035473Y002486D01*
X035473Y002429D01*
X035529Y002373D01*
X014813Y003223D02*
X014699Y003336D01*
X014586Y003223D01*
X014586Y003563D01*
X014444Y003563D02*
X014444Y003223D01*
X014331Y003336D01*
X014218Y003223D01*
X014218Y003563D01*
X014076Y003563D02*
X014076Y003223D01*
X013963Y003336D01*
X013849Y003223D01*
X013849Y003563D01*
X013524Y003506D02*
X013524Y003450D01*
X013467Y003393D01*
X013354Y003393D01*
X013297Y003336D01*
X013297Y003279D01*
X013354Y003223D01*
X013467Y003223D01*
X013524Y003279D01*
X013651Y003279D02*
X013651Y003223D01*
X013708Y003223D01*
X013708Y003279D01*
X013651Y003279D01*
X013155Y003279D02*
X013099Y003223D01*
X012985Y003223D01*
X012928Y003279D01*
X012787Y003223D02*
X012787Y003563D01*
X012928Y003506D02*
X012985Y003563D01*
X013099Y003563D01*
X013155Y003506D01*
X013155Y003279D01*
X012787Y003393D02*
X012560Y003393D01*
X012560Y003563D02*
X012560Y003223D01*
X012419Y003223D02*
X012419Y003563D01*
X012305Y003450D01*
X012192Y003563D01*
X012192Y003223D01*
X012050Y003223D02*
X012050Y003450D01*
X011937Y003563D01*
X011824Y003450D01*
X011824Y003223D01*
X011682Y003223D02*
X011455Y003223D01*
X011314Y003223D02*
X011087Y003223D01*
X010945Y003223D02*
X010945Y003563D01*
X011087Y003563D02*
X011087Y003506D01*
X011314Y003279D01*
X011314Y003223D01*
X011682Y003223D02*
X011682Y003563D01*
X011314Y003563D02*
X011087Y003563D01*
X010719Y003563D02*
X010719Y003223D01*
X010577Y003223D02*
X010577Y003450D01*
X010464Y003563D01*
X010350Y003450D01*
X010350Y003223D01*
X010209Y003279D02*
X010152Y003223D01*
X010039Y003223D01*
X009982Y003279D01*
X009982Y003563D01*
X009841Y003506D02*
X009784Y003563D01*
X009670Y003563D01*
X009614Y003506D01*
X009670Y003393D02*
X009614Y003336D01*
X009614Y003279D01*
X009670Y003223D01*
X009784Y003223D01*
X009841Y003279D01*
X009784Y003393D02*
X009670Y003393D01*
X009784Y003393D02*
X009841Y003450D01*
X009841Y003506D01*
X010209Y003563D02*
X010209Y003279D01*
X010350Y003393D02*
X010577Y003393D01*
X010719Y003393D02*
X010945Y003393D01*
X011824Y003393D02*
X012050Y003393D01*
X013297Y003506D02*
X013354Y003563D01*
X013467Y003563D01*
X013524Y003506D01*
X014813Y003563D02*
X014813Y003223D01*
X009472Y003223D02*
X009416Y003223D01*
X009416Y003279D01*
X009472Y003279D01*
X009472Y003223D01*
X009288Y003279D02*
X009231Y003223D01*
X009118Y003223D01*
X009061Y003279D01*
X008920Y003279D02*
X008863Y003223D01*
X008750Y003223D01*
X008693Y003279D01*
X008693Y003506D01*
X008750Y003563D01*
X008863Y003563D01*
X008920Y003506D01*
X008920Y003279D01*
X009288Y003279D02*
X009288Y003506D01*
X009231Y003563D01*
X009118Y003563D01*
X009061Y003506D01*
X008551Y003563D02*
X008438Y003450D01*
X008325Y003563D01*
X008325Y003223D01*
X008183Y003223D02*
X007956Y003563D01*
X007815Y003563D02*
X007815Y003279D01*
X007758Y003223D01*
X007645Y003223D01*
X007588Y003279D01*
X007588Y003563D01*
X007447Y003563D02*
X007276Y003563D01*
X007220Y003506D01*
X007220Y003450D01*
X007276Y003393D01*
X007447Y003393D01*
X007447Y003223D02*
X007447Y003563D01*
X007078Y003563D02*
X007078Y003223D01*
X006965Y003336D01*
X006851Y003223D01*
X006851Y003563D01*
X006710Y003506D02*
X006653Y003563D01*
X006540Y003563D01*
X006483Y003506D01*
X006483Y003450D01*
X006540Y003393D01*
X006483Y003336D01*
X006483Y003279D01*
X006540Y003223D01*
X006653Y003223D01*
X006710Y003279D01*
X006597Y003393D02*
X006540Y003393D01*
X006342Y003506D02*
X006285Y003563D01*
X006172Y003563D01*
X006115Y003506D01*
X006115Y003450D01*
X006342Y003223D01*
X006115Y003223D01*
X007220Y003279D02*
X007276Y003223D01*
X007447Y003223D01*
X007220Y003279D02*
X007220Y003336D01*
X007276Y003393D01*
X008551Y003223D02*
X008551Y003563D01*
X001813Y006822D02*
X001813Y006936D01*
X001813Y006879D02*
X001473Y006879D01*
X001473Y006822D02*
X001473Y006936D01*
X001529Y007068D02*
X001473Y007124D01*
X001473Y007238D01*
X001529Y007295D01*
X001529Y007436D02*
X001473Y007493D01*
X001473Y007606D01*
X001529Y007663D01*
X001586Y007663D01*
X001643Y007606D01*
X001643Y007493D01*
X001700Y007436D01*
X001756Y007436D01*
X001813Y007493D01*
X001813Y007606D01*
X001756Y007663D01*
X001813Y007804D02*
X001473Y007804D01*
X001586Y007804D02*
X001586Y007974D01*
X001643Y008031D01*
X001756Y008031D01*
X001813Y007974D01*
X001813Y007804D01*
X001756Y007295D02*
X001813Y007238D01*
X001813Y007124D01*
X001756Y007068D01*
X001529Y007068D01*
D12*
X000143Y010543D02*
X000143Y000143D01*
X044043Y000143D01*
X044043Y010543D01*
X000143Y010543D01*
D13*
X008193Y005343D02*
X008195Y005393D01*
X008201Y005443D01*
X008211Y005493D01*
X008224Y005541D01*
X008241Y005589D01*
X008262Y005635D01*
X008286Y005679D01*
X008314Y005721D01*
X008345Y005761D01*
X008379Y005798D01*
X008416Y005833D01*
X008455Y005864D01*
X008496Y005893D01*
X008540Y005918D01*
X008586Y005940D01*
X008633Y005958D01*
X008681Y005972D01*
X008730Y005983D01*
X008780Y005990D01*
X008830Y005993D01*
X008881Y005992D01*
X008931Y005987D01*
X008981Y005978D01*
X009029Y005966D01*
X009077Y005949D01*
X009123Y005929D01*
X009168Y005906D01*
X009211Y005879D01*
X009251Y005849D01*
X009289Y005816D01*
X009324Y005780D01*
X009357Y005741D01*
X009386Y005700D01*
X009412Y005657D01*
X009435Y005612D01*
X009454Y005565D01*
X009469Y005517D01*
X009481Y005468D01*
X009489Y005418D01*
X009493Y005368D01*
X009493Y005318D01*
X009489Y005268D01*
X009481Y005218D01*
X009469Y005169D01*
X009454Y005121D01*
X009435Y005074D01*
X009412Y005029D01*
X009386Y004986D01*
X009357Y004945D01*
X009324Y004906D01*
X009289Y004870D01*
X009251Y004837D01*
X009211Y004807D01*
X009168Y004780D01*
X009123Y004757D01*
X009077Y004737D01*
X009029Y004720D01*
X008981Y004708D01*
X008931Y004699D01*
X008881Y004694D01*
X008830Y004693D01*
X008780Y004696D01*
X008730Y004703D01*
X008681Y004714D01*
X008633Y004728D01*
X008586Y004746D01*
X008540Y004768D01*
X008496Y004793D01*
X008455Y004822D01*
X008416Y004853D01*
X008379Y004888D01*
X008345Y004925D01*
X008314Y004965D01*
X008286Y005007D01*
X008262Y005051D01*
X008241Y005097D01*
X008224Y005145D01*
X008211Y005193D01*
X008201Y005243D01*
X008195Y005293D01*
X008193Y005343D01*
X033135Y006943D02*
X033137Y006968D01*
X033143Y006993D01*
X033152Y007017D01*
X033165Y007039D01*
X033182Y007059D01*
X033201Y007076D01*
X033222Y007090D01*
X033246Y007100D01*
X033270Y007107D01*
X033296Y007110D01*
X033321Y007109D01*
X033346Y007104D01*
X033370Y007095D01*
X033393Y007083D01*
X033413Y007068D01*
X033431Y007049D01*
X033446Y007028D01*
X033457Y007005D01*
X033465Y006981D01*
X033469Y006956D01*
X033469Y006930D01*
X033465Y006905D01*
X033457Y006881D01*
X033446Y006858D01*
X033431Y006837D01*
X033413Y006818D01*
X033393Y006803D01*
X033370Y006791D01*
X033346Y006782D01*
X033321Y006777D01*
X033296Y006776D01*
X033270Y006779D01*
X033246Y006786D01*
X033222Y006796D01*
X033201Y006810D01*
X033182Y006827D01*
X033165Y006847D01*
X033152Y006869D01*
X033143Y006893D01*
X033137Y006918D01*
X033135Y006943D01*
X034316Y006943D02*
X034318Y006968D01*
X034324Y006993D01*
X034333Y007017D01*
X034346Y007039D01*
X034363Y007059D01*
X034382Y007076D01*
X034403Y007090D01*
X034427Y007100D01*
X034451Y007107D01*
X034477Y007110D01*
X034502Y007109D01*
X034527Y007104D01*
X034551Y007095D01*
X034574Y007083D01*
X034594Y007068D01*
X034612Y007049D01*
X034627Y007028D01*
X034638Y007005D01*
X034646Y006981D01*
X034650Y006956D01*
X034650Y006930D01*
X034646Y006905D01*
X034638Y006881D01*
X034627Y006858D01*
X034612Y006837D01*
X034594Y006818D01*
X034574Y006803D01*
X034551Y006791D01*
X034527Y006782D01*
X034502Y006777D01*
X034477Y006776D01*
X034451Y006779D01*
X034427Y006786D01*
X034403Y006796D01*
X034382Y006810D01*
X034363Y006827D01*
X034346Y006847D01*
X034333Y006869D01*
X034324Y006893D01*
X034318Y006918D01*
X034316Y006943D01*
X038193Y005343D02*
X038195Y005393D01*
X038201Y005443D01*
X038211Y005493D01*
X038224Y005541D01*
X038241Y005589D01*
X038262Y005635D01*
X038286Y005679D01*
X038314Y005721D01*
X038345Y005761D01*
X038379Y005798D01*
X038416Y005833D01*
X038455Y005864D01*
X038496Y005893D01*
X038540Y005918D01*
X038586Y005940D01*
X038633Y005958D01*
X038681Y005972D01*
X038730Y005983D01*
X038780Y005990D01*
X038830Y005993D01*
X038881Y005992D01*
X038931Y005987D01*
X038981Y005978D01*
X039029Y005966D01*
X039077Y005949D01*
X039123Y005929D01*
X039168Y005906D01*
X039211Y005879D01*
X039251Y005849D01*
X039289Y005816D01*
X039324Y005780D01*
X039357Y005741D01*
X039386Y005700D01*
X039412Y005657D01*
X039435Y005612D01*
X039454Y005565D01*
X039469Y005517D01*
X039481Y005468D01*
X039489Y005418D01*
X039493Y005368D01*
X039493Y005318D01*
X039489Y005268D01*
X039481Y005218D01*
X039469Y005169D01*
X039454Y005121D01*
X039435Y005074D01*
X039412Y005029D01*
X039386Y004986D01*
X039357Y004945D01*
X039324Y004906D01*
X039289Y004870D01*
X039251Y004837D01*
X039211Y004807D01*
X039168Y004780D01*
X039123Y004757D01*
X039077Y004737D01*
X039029Y004720D01*
X038981Y004708D01*
X038931Y004699D01*
X038881Y004694D01*
X038830Y004693D01*
X038780Y004696D01*
X038730Y004703D01*
X038681Y004714D01*
X038633Y004728D01*
X038586Y004746D01*
X038540Y004768D01*
X038496Y004793D01*
X038455Y004822D01*
X038416Y004853D01*
X038379Y004888D01*
X038345Y004925D01*
X038314Y004965D01*
X038286Y005007D01*
X038262Y005051D01*
X038241Y005097D01*
X038224Y005145D01*
X038211Y005193D01*
X038201Y005243D01*
X038195Y005293D01*
X038193Y005343D01*
X041666Y003709D02*
X041668Y003735D01*
X041674Y003761D01*
X041684Y003786D01*
X041697Y003809D01*
X041713Y003829D01*
X041733Y003847D01*
X041755Y003862D01*
X041778Y003874D01*
X041804Y003882D01*
X041830Y003886D01*
X041856Y003886D01*
X041882Y003882D01*
X041908Y003874D01*
X041932Y003862D01*
X041953Y003847D01*
X041973Y003829D01*
X041989Y003809D01*
X042002Y003786D01*
X042012Y003761D01*
X042018Y003735D01*
X042020Y003709D01*
X042018Y003683D01*
X042012Y003657D01*
X042002Y003632D01*
X041989Y003609D01*
X041973Y003589D01*
X041953Y003571D01*
X041931Y003556D01*
X041908Y003544D01*
X041882Y003536D01*
X041856Y003532D01*
X041830Y003532D01*
X041804Y003536D01*
X041778Y003544D01*
X041754Y003556D01*
X041733Y003571D01*
X041713Y003589D01*
X041697Y003609D01*
X041684Y003632D01*
X041674Y003657D01*
X041668Y003683D01*
X041666Y003709D01*
X041666Y001977D02*
X041668Y002003D01*
X041674Y002029D01*
X041684Y002054D01*
X041697Y002077D01*
X041713Y002097D01*
X041733Y002115D01*
X041755Y002130D01*
X041778Y002142D01*
X041804Y002150D01*
X041830Y002154D01*
X041856Y002154D01*
X041882Y002150D01*
X041908Y002142D01*
X041932Y002130D01*
X041953Y002115D01*
X041973Y002097D01*
X041989Y002077D01*
X042002Y002054D01*
X042012Y002029D01*
X042018Y002003D01*
X042020Y001977D01*
X042018Y001951D01*
X042012Y001925D01*
X042002Y001900D01*
X041989Y001877D01*
X041973Y001857D01*
X041953Y001839D01*
X041931Y001824D01*
X041908Y001812D01*
X041882Y001804D01*
X041856Y001800D01*
X041830Y001800D01*
X041804Y001804D01*
X041778Y001812D01*
X041754Y001824D01*
X041733Y001839D01*
X041713Y001857D01*
X041697Y001877D01*
X041684Y001900D01*
X041674Y001925D01*
X041668Y001951D01*
X041666Y001977D01*
D14*
X041243Y002743D02*
X043693Y002743D01*
X041243Y002743D02*
X041243Y007943D01*
X043693Y007943D01*
D15*
X023169Y005505D02*
X023174Y005460D01*
X023037Y005460D01*
X023036Y005452D02*
X023173Y005452D01*
X023174Y005460D02*
X023170Y005416D01*
X023164Y005396D01*
X023154Y005379D01*
X023141Y005364D01*
X023114Y005342D01*
X023084Y005326D01*
X023053Y005314D01*
X022910Y005280D01*
X022863Y005268D01*
X022819Y005249D01*
X022804Y005239D01*
X022793Y005226D01*
X022786Y005211D01*
X022782Y005194D01*
X022783Y005177D01*
X022788Y005160D01*
X022796Y005146D01*
X022809Y005134D01*
X022830Y005121D01*
X022853Y005113D01*
X022878Y005110D01*
X022931Y005110D01*
X022954Y005113D01*
X022978Y005122D01*
X022999Y005135D01*
X023041Y005135D01*
X023032Y005135D02*
X023169Y005135D01*
X023166Y005127D02*
X023014Y005127D01*
X023009Y005118D02*
X022969Y005118D01*
X022980Y005110D02*
X023157Y005110D01*
X023154Y005102D02*
X023137Y005082D01*
X023117Y005065D01*
X023070Y005035D01*
X023036Y005019D01*
X023000Y005011D01*
X022899Y005004D01*
X022846Y005005D01*
X022795Y005013D01*
X022755Y005024D01*
X022719Y005042D01*
X022719Y005041D02*
X023080Y005041D01*
X023066Y005033D02*
X022736Y005033D01*
X022719Y005042D02*
X022685Y005065D01*
X022657Y005095D01*
X022642Y005117D01*
X022631Y005141D01*
X022626Y005168D01*
X022623Y005209D01*
X022626Y005250D01*
X022640Y005290D01*
X022650Y005306D01*
X022836Y005306D01*
X022827Y005315D02*
X023056Y005315D01*
X023079Y005323D02*
X022841Y005323D01*
X022852Y005315D02*
X022658Y005315D01*
X022663Y005320D02*
X022690Y005340D01*
X022720Y005356D01*
X022785Y005380D01*
X022853Y005395D01*
X022933Y005411D01*
X022963Y005422D01*
X022991Y005439D01*
X023003Y005451D01*
X023011Y005467D01*
X023014Y005483D01*
X023011Y005499D01*
X023005Y005514D01*
X022995Y005525D01*
X022982Y005534D01*
X022964Y005540D01*
X022946Y005544D01*
X022912Y005545D01*
X022878Y005544D01*
X022857Y005540D01*
X022838Y005532D01*
X022821Y005521D01*
X022809Y005510D01*
X022800Y005496D01*
X022794Y005482D01*
X022791Y005471D01*
X022791Y005461D01*
X022638Y005461D01*
X022641Y005489D01*
X022722Y005540D01*
X022901Y005592D01*
X023066Y005549D01*
X023045Y005429D01*
X022872Y005326D01*
X022705Y005235D01*
X022748Y005107D01*
X022903Y005072D01*
X023188Y005213D01*
X022907Y005065D01*
X022745Y005101D01*
X022701Y005232D01*
X022708Y005246D01*
X023033Y005435D01*
X023052Y005543D01*
X022903Y005588D01*
X022737Y005535D01*
X022660Y005478D01*
X022641Y005492D01*
X022649Y005514D01*
X022663Y005545D01*
X022674Y005562D01*
X022688Y005578D01*
X022725Y005607D01*
X022769Y005629D01*
X022822Y005643D01*
X022877Y005649D01*
X022948Y005649D01*
X023004Y005643D01*
X023058Y005626D01*
X023109Y005601D01*
X023127Y005586D01*
X023143Y005568D01*
X023155Y005548D01*
X023169Y005505D01*
X023169Y005503D02*
X023045Y005503D01*
X023046Y005511D02*
X023167Y005511D01*
X023164Y005520D02*
X023048Y005520D01*
X023049Y005528D02*
X023161Y005528D01*
X023158Y005537D02*
X023051Y005537D01*
X023042Y005546D02*
X023155Y005546D01*
X023151Y005554D02*
X023014Y005554D01*
X023012Y005563D02*
X022801Y005563D01*
X022798Y005554D02*
X022669Y005554D01*
X022674Y005563D02*
X022824Y005563D01*
X022830Y005571D02*
X022979Y005571D01*
X022986Y005563D02*
X023146Y005563D01*
X023140Y005571D02*
X022957Y005571D01*
X022947Y005580D02*
X022859Y005580D01*
X022851Y005571D02*
X022682Y005571D01*
X022690Y005580D02*
X022878Y005580D01*
X022889Y005588D02*
X022914Y005588D01*
X022929Y005580D02*
X023133Y005580D01*
X023125Y005588D02*
X022701Y005588D01*
X022712Y005597D02*
X023114Y005597D01*
X023099Y005605D02*
X022723Y005605D01*
X022739Y005614D02*
X023083Y005614D01*
X023066Y005622D02*
X022756Y005622D01*
X022777Y005631D02*
X023043Y005631D01*
X023014Y005640D02*
X022808Y005640D01*
X022871Y005648D02*
X022953Y005648D01*
X022973Y005537D02*
X023064Y005537D01*
X023065Y005546D02*
X022742Y005546D01*
X022744Y005537D02*
X022659Y005537D01*
X022655Y005528D02*
X022728Y005528D01*
X022717Y005520D02*
X022651Y005520D01*
X022648Y005511D02*
X022705Y005511D01*
X022694Y005503D02*
X022645Y005503D01*
X022642Y005494D02*
X022682Y005494D01*
X022671Y005486D02*
X022649Y005486D01*
X022650Y005494D02*
X022799Y005494D01*
X022795Y005486D02*
X022640Y005486D01*
X022639Y005477D02*
X022793Y005477D01*
X022791Y005469D02*
X022639Y005469D01*
X022663Y005503D02*
X022804Y005503D01*
X022811Y005511D02*
X022677Y005511D01*
X022690Y005520D02*
X022820Y005520D01*
X022833Y005528D02*
X022704Y005528D01*
X022717Y005537D02*
X022851Y005537D01*
X022771Y005546D02*
X022663Y005546D01*
X022771Y005554D02*
X023045Y005554D01*
X023062Y005528D02*
X022990Y005528D01*
X022999Y005520D02*
X023061Y005520D01*
X023059Y005511D02*
X023006Y005511D01*
X023010Y005503D02*
X023058Y005503D01*
X023056Y005494D02*
X023012Y005494D01*
X023013Y005486D02*
X023055Y005486D01*
X023053Y005477D02*
X023013Y005477D01*
X023011Y005469D02*
X023052Y005469D01*
X023050Y005460D02*
X023007Y005460D01*
X023003Y005452D02*
X023049Y005452D01*
X023047Y005443D02*
X022995Y005443D01*
X022984Y005434D02*
X023046Y005434D01*
X023040Y005426D02*
X022970Y005426D01*
X022951Y005417D02*
X023026Y005417D01*
X023018Y005426D02*
X023171Y005426D01*
X023171Y005434D02*
X023032Y005434D01*
X023034Y005443D02*
X023172Y005443D01*
X023170Y005417D02*
X023003Y005417D01*
X023011Y005409D02*
X022924Y005409D01*
X022944Y005383D02*
X023156Y005383D01*
X023150Y005375D02*
X022929Y005375D01*
X022940Y005366D02*
X022748Y005366D01*
X022725Y005358D02*
X022925Y005358D01*
X022915Y005366D02*
X023143Y005366D01*
X023133Y005358D02*
X022900Y005358D01*
X022911Y005349D02*
X022707Y005349D01*
X022691Y005341D02*
X022897Y005341D01*
X022885Y005349D02*
X023122Y005349D01*
X023111Y005341D02*
X022871Y005341D01*
X022882Y005332D02*
X022679Y005332D01*
X022668Y005323D02*
X022868Y005323D01*
X022856Y005332D02*
X023096Y005332D01*
X023022Y005306D02*
X022812Y005306D01*
X022821Y005298D02*
X022645Y005298D01*
X022650Y005306D02*
X022663Y005320D01*
X022640Y005289D02*
X022805Y005289D01*
X022797Y005298D02*
X022986Y005298D01*
X022950Y005289D02*
X022783Y005289D01*
X022789Y005281D02*
X022637Y005281D01*
X022634Y005272D02*
X022774Y005272D01*
X022768Y005281D02*
X022914Y005281D01*
X022881Y005272D02*
X022753Y005272D01*
X022758Y005264D02*
X022631Y005264D01*
X022628Y005255D02*
X022742Y005255D01*
X022739Y005264D02*
X022854Y005264D01*
X022834Y005255D02*
X022724Y005255D01*
X022726Y005247D02*
X022626Y005247D01*
X022625Y005238D02*
X022711Y005238D01*
X022704Y005238D02*
X022804Y005238D01*
X022796Y005229D02*
X022701Y005229D01*
X022706Y005229D02*
X022625Y005229D01*
X022624Y005221D02*
X022709Y005221D01*
X022704Y005221D02*
X022791Y005221D01*
X022786Y005212D02*
X022707Y005212D01*
X022712Y005212D02*
X022623Y005212D01*
X022623Y005204D02*
X022715Y005204D01*
X022710Y005204D02*
X022784Y005204D01*
X022782Y005195D02*
X022713Y005195D01*
X022718Y005195D02*
X022624Y005195D01*
X022624Y005187D02*
X022721Y005187D01*
X022716Y005187D02*
X022782Y005187D01*
X022783Y005178D02*
X022719Y005178D01*
X022724Y005178D02*
X022625Y005178D01*
X022626Y005170D02*
X022726Y005170D01*
X022722Y005170D02*
X022785Y005170D01*
X022787Y005161D02*
X022724Y005161D01*
X022729Y005161D02*
X022627Y005161D01*
X022629Y005153D02*
X022732Y005153D01*
X022727Y005153D02*
X022792Y005153D01*
X022798Y005144D02*
X022730Y005144D01*
X022735Y005144D02*
X022631Y005144D01*
X022634Y005135D02*
X022738Y005135D01*
X022733Y005135D02*
X022807Y005135D01*
X022820Y005127D02*
X022736Y005127D01*
X022741Y005127D02*
X022637Y005127D01*
X022641Y005118D02*
X022744Y005118D01*
X022739Y005118D02*
X022837Y005118D01*
X022847Y005084D02*
X022667Y005084D01*
X022675Y005076D02*
X022885Y005076D01*
X022896Y005067D02*
X022911Y005067D01*
X022911Y005076D02*
X023130Y005076D01*
X023139Y005084D02*
X022928Y005084D01*
X022928Y005076D02*
X022857Y005076D01*
X022876Y005110D02*
X022742Y005110D01*
X022747Y005110D02*
X022646Y005110D01*
X022652Y005101D02*
X022772Y005101D01*
X022780Y005093D02*
X022960Y005093D01*
X022963Y005101D02*
X023153Y005101D01*
X023154Y005102D02*
X023166Y005126D01*
X023183Y005176D01*
X023187Y005199D01*
X023188Y005213D01*
X023036Y005213D01*
X023036Y005211D01*
X023034Y005190D01*
X023028Y005171D01*
X023018Y005154D01*
X022999Y005135D01*
X023008Y005144D02*
X023057Y005144D01*
X023049Y005144D02*
X023172Y005144D01*
X023175Y005153D02*
X023066Y005153D01*
X023074Y005153D02*
X023017Y005153D01*
X023022Y005161D02*
X023090Y005161D01*
X023083Y005161D02*
X023178Y005161D01*
X023181Y005170D02*
X023101Y005170D01*
X023106Y005170D02*
X023028Y005170D01*
X023031Y005178D02*
X023122Y005178D01*
X023118Y005178D02*
X023183Y005178D01*
X023185Y005187D02*
X023135Y005187D01*
X023138Y005187D02*
X023033Y005187D01*
X023035Y005195D02*
X023155Y005195D01*
X023152Y005195D02*
X023186Y005195D01*
X023187Y005204D02*
X023170Y005204D01*
X023171Y005204D02*
X023035Y005204D01*
X023036Y005212D02*
X023187Y005212D01*
X023188Y005212D01*
X023162Y005118D02*
X022997Y005118D01*
X022992Y005110D02*
X022932Y005110D01*
X022945Y005093D02*
X023146Y005093D01*
X023120Y005067D02*
X022684Y005067D01*
X022695Y005059D02*
X023107Y005059D01*
X023094Y005050D02*
X022707Y005050D01*
X022754Y005024D02*
X023048Y005024D01*
X023022Y005016D02*
X022783Y005016D01*
X022833Y005007D02*
X022951Y005007D01*
X022944Y005084D02*
X022819Y005084D01*
X022809Y005093D02*
X022659Y005093D01*
X022744Y005101D02*
X022976Y005101D01*
X022986Y005127D02*
X023025Y005127D01*
X022816Y005247D02*
X022709Y005247D01*
X022771Y005375D02*
X022954Y005375D01*
X022968Y005383D02*
X022801Y005383D01*
X022839Y005392D02*
X022983Y005392D01*
X022974Y005400D02*
X023165Y005400D01*
X023161Y005392D02*
X022959Y005392D01*
X022988Y005409D02*
X023168Y005409D01*
X023173Y005469D02*
X023039Y005469D01*
X023040Y005477D02*
X023172Y005477D01*
X023171Y005486D02*
X023042Y005486D01*
X023043Y005494D02*
X023170Y005494D01*
X022997Y005400D02*
X022881Y005400D01*
X022541Y005400D02*
X022381Y005400D01*
X022383Y005392D02*
X022541Y005392D01*
X022541Y005383D02*
X022384Y005383D01*
X022385Y005376D02*
X022384Y005275D01*
X022379Y005244D01*
X022370Y005217D01*
X022370Y005215D01*
X022370Y005214D01*
X022371Y005213D01*
X022373Y005213D01*
X022378Y005213D01*
X022378Y005091D01*
X022378Y004650D01*
X022541Y004797D01*
X022541Y005604D01*
X022541Y005607D01*
X022388Y005636D01*
X022389Y005557D01*
X022386Y005554D01*
X022541Y005554D01*
X022541Y005546D02*
X021982Y005546D01*
X021980Y005543D02*
X021957Y005502D01*
X021930Y005419D01*
X021919Y005332D01*
X022082Y005332D01*
X022082Y005341D02*
X021920Y005341D01*
X021921Y005349D02*
X022082Y005349D01*
X022082Y005358D02*
X021922Y005358D01*
X021923Y005366D02*
X022082Y005366D01*
X022082Y005375D02*
X021925Y005375D01*
X021926Y005383D02*
X022083Y005383D01*
X022082Y005379D02*
X022089Y005418D01*
X022106Y005454D01*
X022130Y005486D01*
X022161Y005512D01*
X022181Y005522D01*
X022204Y005529D01*
X022227Y005531D01*
X022270Y005529D01*
X022285Y005526D01*
X022300Y005519D01*
X022329Y005496D01*
X022353Y005469D01*
X022541Y005469D01*
X022541Y005477D02*
X022345Y005477D01*
X022353Y005469D02*
X022369Y005440D01*
X022380Y005409D01*
X022541Y005409D01*
X022541Y005417D02*
X022377Y005417D01*
X022380Y005409D02*
X022385Y005376D01*
X022385Y005375D02*
X022541Y005375D01*
X022541Y005366D02*
X022385Y005366D01*
X022385Y005358D02*
X022541Y005358D01*
X022541Y005349D02*
X022384Y005349D01*
X022384Y005341D02*
X022541Y005341D01*
X022541Y005332D02*
X022384Y005332D01*
X022384Y005323D02*
X022541Y005323D01*
X022541Y005315D02*
X022384Y005315D01*
X022384Y005306D02*
X022541Y005306D01*
X022541Y005298D02*
X022384Y005298D01*
X022384Y005289D02*
X022541Y005289D01*
X022541Y005281D02*
X022384Y005281D01*
X022383Y005272D02*
X022541Y005272D01*
X022541Y005264D02*
X022382Y005264D01*
X022381Y005255D02*
X022541Y005255D01*
X022541Y005247D02*
X022379Y005247D01*
X022377Y005238D02*
X022541Y005238D01*
X022541Y005229D02*
X022374Y005229D01*
X022371Y005221D02*
X022541Y005221D01*
X022541Y005212D02*
X022378Y005212D01*
X022378Y005204D02*
X022541Y005204D01*
X022541Y005195D02*
X022378Y005195D01*
X022378Y005187D02*
X022541Y005187D01*
X022541Y005178D02*
X022378Y005178D01*
X022378Y005170D02*
X022541Y005170D01*
X022541Y005161D02*
X022378Y005161D01*
X022378Y005153D02*
X022541Y005153D01*
X022541Y005144D02*
X022378Y005144D01*
X022378Y005135D02*
X022541Y005135D01*
X022541Y005127D02*
X022378Y005127D01*
X022378Y005118D02*
X022541Y005118D01*
X022541Y005110D02*
X022378Y005110D01*
X022378Y005101D02*
X022541Y005101D01*
X022541Y005093D02*
X022378Y005093D01*
X022378Y005084D02*
X022541Y005084D01*
X022541Y005076D02*
X022378Y005076D01*
X022378Y005067D02*
X022541Y005067D01*
X022541Y005059D02*
X022378Y005059D01*
X022378Y005050D02*
X022541Y005050D01*
X022541Y005041D02*
X022378Y005041D01*
X022378Y005033D02*
X022541Y005033D01*
X022541Y005024D02*
X022378Y005024D01*
X022378Y005016D02*
X022541Y005016D01*
X022541Y005007D02*
X022378Y005007D01*
X022378Y004999D02*
X022541Y004999D01*
X022541Y004990D02*
X022378Y004990D01*
X022378Y004982D02*
X022541Y004982D01*
X022541Y004973D02*
X022378Y004973D01*
X022378Y004965D02*
X022541Y004965D01*
X022541Y004956D02*
X022378Y004956D01*
X022378Y004948D02*
X022541Y004948D01*
X022541Y004939D02*
X022378Y004939D01*
X022378Y004930D02*
X022541Y004930D01*
X022541Y004922D02*
X022378Y004922D01*
X022378Y004913D02*
X022541Y004913D01*
X022541Y004905D02*
X022378Y004905D01*
X022378Y004896D02*
X022541Y004896D01*
X022541Y004888D02*
X022378Y004888D01*
X022378Y004879D02*
X022541Y004879D01*
X022541Y004871D02*
X022378Y004871D01*
X022378Y004862D02*
X022541Y004862D01*
X022541Y004854D02*
X022378Y004854D01*
X022378Y004845D02*
X022541Y004845D01*
X022541Y004836D02*
X022378Y004836D01*
X022378Y004828D02*
X022541Y004828D01*
X022541Y004819D02*
X022378Y004819D01*
X022378Y004811D02*
X022541Y004811D01*
X022541Y004802D02*
X022378Y004802D01*
X022378Y004794D02*
X022537Y004794D01*
X022528Y004785D02*
X022378Y004785D01*
X022378Y004777D02*
X022518Y004777D01*
X022509Y004768D02*
X022378Y004768D01*
X022378Y004760D02*
X022499Y004760D01*
X022490Y004751D02*
X022378Y004751D01*
X022378Y004742D02*
X022481Y004742D01*
X022471Y004734D02*
X022378Y004734D01*
X022378Y004725D02*
X022462Y004725D01*
X022452Y004717D02*
X022378Y004717D01*
X022378Y004708D02*
X022443Y004708D01*
X022433Y004700D02*
X022378Y004700D01*
X022378Y004691D02*
X022424Y004691D01*
X022414Y004683D02*
X022378Y004683D01*
X022378Y004674D02*
X022405Y004674D01*
X022395Y004666D02*
X022378Y004666D01*
X022378Y004657D02*
X022386Y004657D01*
X022275Y005016D02*
X022105Y005016D01*
X022115Y005013D02*
X022162Y005005D01*
X022211Y005005D01*
X022259Y005011D01*
X022292Y005021D01*
X022322Y005038D01*
X022348Y005061D01*
X022369Y005090D01*
X022369Y005207D01*
X022366Y005210D01*
X022366Y005208D01*
X022365Y005204D01*
X022369Y005204D01*
X022365Y005204D02*
X022363Y005201D01*
X022361Y005198D01*
X022349Y005175D01*
X022332Y005156D01*
X022311Y005141D01*
X022283Y005129D01*
X022254Y005123D01*
X022217Y005122D01*
X022181Y005130D01*
X022150Y005144D01*
X021956Y005144D01*
X021958Y005139D02*
X021989Y005093D01*
X022369Y005093D01*
X022369Y005101D02*
X021983Y005101D01*
X021989Y005093D02*
X022015Y005065D01*
X022045Y005042D01*
X022079Y005024D01*
X022115Y005013D01*
X022149Y005007D02*
X022232Y005007D01*
X022298Y005024D02*
X022078Y005024D01*
X022062Y005033D02*
X022313Y005033D01*
X022326Y005041D02*
X022045Y005041D01*
X022034Y005050D02*
X022335Y005050D01*
X022345Y005059D02*
X022023Y005059D01*
X022012Y005067D02*
X022352Y005067D01*
X022358Y005076D02*
X022004Y005076D01*
X021997Y005084D02*
X022365Y005084D01*
X022369Y005110D02*
X021977Y005110D01*
X021972Y005118D02*
X022369Y005118D01*
X022369Y005127D02*
X022274Y005127D01*
X022299Y005135D02*
X022369Y005135D01*
X022369Y005144D02*
X022315Y005144D01*
X022327Y005153D02*
X022369Y005153D01*
X022369Y005161D02*
X022336Y005161D01*
X022344Y005170D02*
X022369Y005170D01*
X022369Y005178D02*
X022350Y005178D01*
X022355Y005187D02*
X022369Y005187D01*
X022369Y005195D02*
X022359Y005195D01*
X022194Y005127D02*
X021966Y005127D01*
X021961Y005135D02*
X022168Y005135D01*
X022150Y005144D02*
X022125Y005165D01*
X022105Y005192D01*
X022094Y005223D01*
X022082Y005300D01*
X022082Y005379D01*
X022084Y005392D02*
X021927Y005392D01*
X021928Y005400D02*
X022086Y005400D01*
X022088Y005409D02*
X021929Y005409D01*
X021930Y005417D02*
X022089Y005417D01*
X022093Y005426D02*
X021933Y005426D01*
X021935Y005434D02*
X022097Y005434D01*
X022101Y005443D02*
X021938Y005443D01*
X021941Y005452D02*
X022104Y005452D01*
X022110Y005460D02*
X021943Y005460D01*
X021946Y005469D02*
X022117Y005469D01*
X022123Y005477D02*
X021949Y005477D01*
X021952Y005486D02*
X022130Y005486D01*
X022140Y005494D02*
X021954Y005494D01*
X021957Y005503D02*
X022150Y005503D01*
X022160Y005511D02*
X021962Y005511D01*
X021967Y005520D02*
X022177Y005520D01*
X022202Y005528D02*
X021972Y005528D01*
X021976Y005537D02*
X022541Y005537D01*
X022541Y005528D02*
X022271Y005528D01*
X022297Y005520D02*
X022541Y005520D01*
X022541Y005511D02*
X022309Y005511D01*
X022320Y005503D02*
X022541Y005503D01*
X022541Y005494D02*
X022330Y005494D01*
X022338Y005486D02*
X022541Y005486D01*
X022541Y005460D02*
X022358Y005460D01*
X022363Y005452D02*
X022541Y005452D01*
X022541Y005443D02*
X022368Y005443D01*
X022371Y005434D02*
X022541Y005434D01*
X022541Y005426D02*
X022374Y005426D01*
X022384Y005553D02*
X022375Y005563D01*
X021997Y005563D01*
X022005Y005571D02*
X022367Y005571D01*
X022375Y005563D02*
X022340Y005601D01*
X022326Y005613D01*
X022311Y005622D01*
X022259Y005643D01*
X022240Y005647D01*
X022162Y005648D01*
X022119Y005640D01*
X022079Y005625D01*
X022043Y005603D01*
X022011Y005578D01*
X021980Y005543D01*
X021990Y005554D02*
X022382Y005554D01*
X022384Y005553D02*
X022386Y005554D01*
X022389Y005563D02*
X022541Y005563D01*
X022541Y005571D02*
X022388Y005571D01*
X022388Y005580D02*
X022541Y005580D01*
X022541Y005588D02*
X022388Y005588D01*
X022388Y005597D02*
X022541Y005597D01*
X022541Y005605D02*
X022388Y005605D01*
X022388Y005614D02*
X022503Y005614D01*
X022458Y005622D02*
X022388Y005622D01*
X022388Y005631D02*
X022412Y005631D01*
X022359Y005580D02*
X022013Y005580D01*
X022024Y005588D02*
X022351Y005588D01*
X022343Y005597D02*
X022035Y005597D01*
X022046Y005605D02*
X022334Y005605D01*
X022324Y005614D02*
X022061Y005614D01*
X022075Y005622D02*
X022309Y005622D01*
X022288Y005631D02*
X022095Y005631D01*
X022117Y005640D02*
X022266Y005640D01*
X021836Y005486D02*
X021667Y005486D01*
X021665Y005491D02*
X021653Y005509D01*
X021637Y005524D01*
X021618Y005535D01*
X021595Y005541D01*
X021571Y005544D01*
X021517Y005542D01*
X021501Y005539D01*
X021487Y005534D01*
X021474Y005526D01*
X021463Y005516D01*
X021455Y005504D01*
X021449Y005491D01*
X021444Y005469D01*
X021444Y005447D01*
X021449Y005426D01*
X021284Y005426D01*
X021284Y005434D02*
X021447Y005434D01*
X021449Y005426D02*
X021451Y005421D01*
X021454Y005417D01*
X021466Y005406D01*
X021483Y005395D01*
X021503Y005389D01*
X021555Y005380D01*
X021642Y005371D01*
X021702Y005360D01*
X021761Y005341D01*
X021788Y005326D01*
X021812Y005307D01*
X021832Y005283D01*
X021849Y005249D01*
X021857Y005212D01*
X021857Y005170D01*
X021849Y005129D01*
X021835Y005090D01*
X021823Y005071D01*
X021808Y005054D01*
X021791Y005041D01*
X021741Y005017D01*
X021687Y005005D01*
X021622Y005003D01*
X021559Y005013D01*
X021518Y005027D01*
X021480Y005048D01*
X021448Y005076D01*
X021826Y005076D01*
X021831Y005084D02*
X021280Y005084D01*
X021280Y005078D02*
X021284Y005132D01*
X021283Y005303D01*
X021444Y005303D01*
X021444Y005270D01*
X021446Y005226D01*
X021455Y005184D01*
X021457Y005177D01*
X021461Y005166D01*
X021468Y005157D01*
X021498Y005128D01*
X021510Y005120D01*
X021524Y005115D01*
X021566Y005109D01*
X021627Y005111D01*
X021646Y005115D01*
X021664Y005123D01*
X021679Y005136D01*
X021687Y005146D01*
X021693Y005159D01*
X021696Y005172D01*
X021696Y005196D01*
X021692Y005219D01*
X021683Y005242D01*
X021674Y005254D01*
X021663Y005265D01*
X021643Y005276D01*
X021622Y005284D01*
X021600Y005289D01*
X021543Y005295D01*
X021504Y005301D01*
X021466Y005313D01*
X021458Y005317D01*
X021451Y005323D01*
X021446Y005331D01*
X021444Y005331D01*
X021444Y005307D01*
X021284Y005307D01*
X021284Y005497D01*
X021287Y005526D01*
X021298Y005553D01*
X021315Y005577D01*
X021337Y005596D01*
X021388Y005623D01*
X021444Y005640D01*
X021512Y005649D01*
X021581Y005649D01*
X021650Y005641D01*
X021698Y005627D01*
X021744Y005607D01*
X021776Y005584D01*
X021803Y005555D01*
X021823Y005522D01*
X021836Y005485D01*
X021842Y005446D01*
X021843Y005447D01*
X021678Y005447D01*
X021676Y005447D01*
X021676Y005449D01*
X021673Y005470D01*
X021665Y005491D01*
X021663Y005494D02*
X021833Y005494D01*
X021830Y005503D02*
X021658Y005503D01*
X021651Y005511D02*
X021827Y005511D01*
X021824Y005520D02*
X021642Y005520D01*
X021629Y005528D02*
X021819Y005528D01*
X021814Y005537D02*
X021610Y005537D01*
X021671Y005477D02*
X021837Y005477D01*
X021839Y005469D02*
X021673Y005469D01*
X021674Y005460D02*
X021840Y005460D01*
X021841Y005452D02*
X021675Y005452D01*
X021667Y005366D02*
X021284Y005366D01*
X021284Y005358D02*
X021709Y005358D01*
X021735Y005349D02*
X021284Y005349D01*
X021284Y005341D02*
X021761Y005341D01*
X021777Y005332D02*
X021284Y005332D01*
X021284Y005323D02*
X021444Y005323D01*
X021450Y005323D02*
X021792Y005323D01*
X021802Y005315D02*
X021461Y005315D01*
X021444Y005315D02*
X021284Y005315D01*
X021283Y005298D02*
X021444Y005298D01*
X021444Y005289D02*
X021283Y005289D01*
X021283Y005281D02*
X021444Y005281D01*
X021444Y005272D02*
X021283Y005272D01*
X021283Y005264D02*
X021444Y005264D01*
X021445Y005255D02*
X021283Y005255D01*
X021283Y005247D02*
X021445Y005247D01*
X021446Y005238D02*
X021283Y005238D01*
X021283Y005229D02*
X021446Y005229D01*
X021447Y005221D02*
X021283Y005221D01*
X021283Y005212D02*
X021449Y005212D01*
X021451Y005204D02*
X021283Y005204D01*
X021283Y005195D02*
X021452Y005195D01*
X021454Y005187D02*
X021283Y005187D01*
X021283Y005178D02*
X021456Y005178D01*
X021460Y005170D02*
X021283Y005170D01*
X021284Y005161D02*
X021465Y005161D01*
X021472Y005153D02*
X021284Y005153D01*
X021284Y005144D02*
X021481Y005144D01*
X021490Y005135D02*
X021284Y005135D01*
X021283Y005127D02*
X021499Y005127D01*
X021514Y005118D02*
X021283Y005118D01*
X021282Y005110D02*
X021557Y005110D01*
X021602Y005110D02*
X021842Y005110D01*
X021845Y005118D02*
X021653Y005118D01*
X021668Y005127D02*
X021849Y005127D01*
X021851Y005135D02*
X021678Y005135D01*
X021685Y005144D02*
X021852Y005144D01*
X021854Y005153D02*
X021690Y005153D01*
X021693Y005161D02*
X021855Y005161D01*
X021857Y005170D02*
X021695Y005170D01*
X021696Y005178D02*
X021857Y005178D01*
X021857Y005187D02*
X021696Y005187D01*
X021696Y005195D02*
X021857Y005195D01*
X021857Y005204D02*
X021695Y005204D01*
X021693Y005212D02*
X021857Y005212D01*
X021855Y005221D02*
X021691Y005221D01*
X021688Y005229D02*
X021853Y005229D01*
X021851Y005238D02*
X021684Y005238D01*
X021679Y005247D02*
X021849Y005247D01*
X021845Y005255D02*
X021673Y005255D01*
X021664Y005264D02*
X021841Y005264D01*
X021837Y005272D02*
X021650Y005272D01*
X021632Y005281D02*
X021833Y005281D01*
X021826Y005289D02*
X021594Y005289D01*
X021524Y005298D02*
X021819Y005298D01*
X021812Y005306D02*
X021487Y005306D01*
X021494Y005392D02*
X021284Y005392D01*
X021284Y005400D02*
X021475Y005400D01*
X021462Y005409D02*
X021284Y005409D01*
X021284Y005417D02*
X021453Y005417D01*
X021445Y005443D02*
X021284Y005443D01*
X021284Y005452D02*
X021444Y005452D01*
X021444Y005460D02*
X021284Y005460D01*
X021284Y005469D02*
X021444Y005469D01*
X021446Y005477D02*
X021284Y005477D01*
X021284Y005486D02*
X021448Y005486D01*
X021450Y005494D02*
X021284Y005494D01*
X021284Y005503D02*
X021454Y005503D01*
X021460Y005511D02*
X021285Y005511D01*
X021287Y005520D02*
X021467Y005520D01*
X021478Y005528D02*
X021288Y005528D01*
X021292Y005537D02*
X021496Y005537D01*
X021507Y005648D02*
X021589Y005648D01*
X021654Y005640D02*
X021443Y005640D01*
X021415Y005631D02*
X021685Y005631D01*
X021709Y005622D02*
X021387Y005622D01*
X021371Y005614D02*
X021728Y005614D01*
X021746Y005605D02*
X021355Y005605D01*
X021339Y005597D02*
X021758Y005597D01*
X021770Y005588D02*
X021328Y005588D01*
X021318Y005580D02*
X021780Y005580D01*
X021788Y005571D02*
X021311Y005571D01*
X021305Y005563D02*
X021796Y005563D01*
X021804Y005554D02*
X021299Y005554D01*
X021295Y005546D02*
X021809Y005546D01*
X021603Y005375D02*
X021284Y005375D01*
X021284Y005383D02*
X021534Y005383D01*
X021176Y005383D02*
X021004Y005383D01*
X021006Y005375D02*
X021176Y005375D01*
X021176Y005366D02*
X021008Y005366D01*
X021010Y005361D02*
X021013Y005327D01*
X021013Y005019D01*
X021177Y005019D01*
X021176Y005605D01*
X021024Y005632D01*
X021024Y005519D01*
X021020Y005517D01*
X021014Y005519D01*
X021006Y005531D01*
X020979Y005572D01*
X020966Y005587D01*
X020951Y005599D01*
X020916Y005622D01*
X020892Y005636D01*
X020865Y005644D01*
X020838Y005648D01*
X020784Y005645D01*
X020784Y005493D01*
X020785Y005493D01*
X020791Y005494D01*
X020815Y005499D01*
X020876Y005499D01*
X020898Y005495D01*
X020919Y005488D01*
X020939Y005477D01*
X020966Y005454D01*
X020987Y005426D01*
X021176Y005426D01*
X021176Y005434D02*
X020980Y005434D01*
X020974Y005443D02*
X021176Y005443D01*
X021176Y005452D02*
X020968Y005452D01*
X020958Y005460D02*
X021176Y005460D01*
X021176Y005469D02*
X020948Y005469D01*
X020938Y005477D02*
X021176Y005477D01*
X021176Y005486D02*
X020922Y005486D01*
X020900Y005494D02*
X021176Y005494D01*
X021176Y005503D02*
X020784Y005503D01*
X020784Y005511D02*
X021176Y005511D01*
X021176Y005520D02*
X021024Y005520D01*
X021024Y005528D02*
X021176Y005528D01*
X021176Y005537D02*
X021024Y005537D01*
X021024Y005546D02*
X021176Y005546D01*
X021176Y005554D02*
X021024Y005554D01*
X021024Y005563D02*
X021176Y005563D01*
X021176Y005571D02*
X021024Y005571D01*
X021024Y005580D02*
X021176Y005580D01*
X021176Y005588D02*
X021024Y005588D01*
X021024Y005597D02*
X021176Y005597D01*
X021172Y005605D02*
X021024Y005605D01*
X021024Y005614D02*
X021124Y005614D01*
X021076Y005622D02*
X021024Y005622D01*
X021024Y005631D02*
X021028Y005631D01*
X020972Y005580D02*
X020784Y005580D01*
X020784Y005588D02*
X020964Y005588D01*
X020953Y005597D02*
X020784Y005597D01*
X020784Y005605D02*
X020941Y005605D01*
X020928Y005614D02*
X020784Y005614D01*
X020784Y005622D02*
X020914Y005622D01*
X020900Y005631D02*
X020784Y005631D01*
X020784Y005640D02*
X020880Y005640D01*
X020784Y005571D02*
X020979Y005571D01*
X020985Y005563D02*
X020784Y005563D01*
X020784Y005554D02*
X020990Y005554D01*
X020996Y005546D02*
X020784Y005546D01*
X020784Y005537D02*
X021002Y005537D01*
X021007Y005528D02*
X020784Y005528D01*
X020784Y005520D02*
X021013Y005520D01*
X020987Y005426D02*
X021002Y005394D01*
X021010Y005361D01*
X021010Y005358D02*
X021176Y005358D01*
X021176Y005349D02*
X021011Y005349D01*
X021011Y005341D02*
X021176Y005341D01*
X021176Y005332D02*
X021012Y005332D01*
X021013Y005323D02*
X021176Y005323D01*
X021176Y005315D02*
X021013Y005315D01*
X021013Y005306D02*
X021176Y005306D01*
X021176Y005298D02*
X021013Y005298D01*
X021013Y005289D02*
X021176Y005289D01*
X021176Y005281D02*
X021013Y005281D01*
X021013Y005272D02*
X021176Y005272D01*
X021176Y005264D02*
X021013Y005264D01*
X021013Y005255D02*
X021176Y005255D01*
X021176Y005247D02*
X021013Y005247D01*
X021013Y005238D02*
X021176Y005238D01*
X021176Y005229D02*
X021013Y005229D01*
X021013Y005221D02*
X021176Y005221D01*
X021176Y005212D02*
X021013Y005212D01*
X021013Y005204D02*
X021176Y005204D01*
X021176Y005195D02*
X021013Y005195D01*
X021013Y005187D02*
X021176Y005187D01*
X021176Y005178D02*
X021013Y005178D01*
X021013Y005170D02*
X021176Y005170D01*
X021176Y005161D02*
X021013Y005161D01*
X021013Y005153D02*
X021176Y005153D01*
X021176Y005144D02*
X021013Y005144D01*
X021013Y005135D02*
X021176Y005135D01*
X021177Y005127D02*
X021013Y005127D01*
X021013Y005118D02*
X021177Y005118D01*
X021177Y005110D02*
X021013Y005110D01*
X021013Y005101D02*
X021177Y005101D01*
X021177Y005093D02*
X021013Y005093D01*
X021013Y005084D02*
X021177Y005084D01*
X021177Y005076D02*
X021013Y005076D01*
X021013Y005067D02*
X021177Y005067D01*
X021177Y005059D02*
X021013Y005059D01*
X021013Y005050D02*
X021177Y005050D01*
X021177Y005041D02*
X021013Y005041D01*
X021013Y005033D02*
X021177Y005033D01*
X021177Y005024D02*
X021013Y005024D01*
X021263Y005019D02*
X021266Y005027D01*
X021280Y005078D01*
X021279Y005076D02*
X021439Y005076D01*
X021439Y005075D02*
X021438Y005073D01*
X021429Y005032D01*
X021426Y005021D01*
X021425Y005019D01*
X021423Y005019D01*
X021422Y005019D01*
X021263Y005019D01*
X021265Y005024D02*
X021427Y005024D01*
X021429Y005033D02*
X021267Y005033D01*
X021270Y005041D02*
X021431Y005041D01*
X021433Y005050D02*
X021272Y005050D01*
X021274Y005059D02*
X021435Y005059D01*
X021436Y005067D02*
X021277Y005067D01*
X021281Y005093D02*
X021836Y005093D01*
X021839Y005101D02*
X021281Y005101D01*
X021439Y005075D02*
X021441Y005077D01*
X021443Y005077D01*
X021446Y005077D01*
X021448Y005076D01*
X021458Y005067D02*
X021820Y005067D01*
X021812Y005059D02*
X021468Y005059D01*
X021478Y005050D02*
X021803Y005050D01*
X021792Y005041D02*
X021492Y005041D01*
X021507Y005033D02*
X021775Y005033D01*
X021757Y005024D02*
X021524Y005024D01*
X021549Y005016D02*
X021737Y005016D01*
X021698Y005007D02*
X021595Y005007D01*
X021949Y005161D02*
X022129Y005161D01*
X022121Y005170D02*
X021945Y005170D01*
X021942Y005178D02*
X022115Y005178D01*
X022109Y005187D02*
X021938Y005187D01*
X021936Y005191D02*
X021958Y005139D01*
X021953Y005153D02*
X022140Y005153D01*
X022104Y005195D02*
X021935Y005195D01*
X021936Y005191D02*
X021924Y005245D01*
X021919Y005332D01*
X021919Y005323D02*
X022082Y005323D01*
X022082Y005315D02*
X021920Y005315D01*
X021920Y005306D02*
X022082Y005306D01*
X022082Y005298D02*
X021921Y005298D01*
X021921Y005289D02*
X022083Y005289D01*
X022085Y005281D02*
X021922Y005281D01*
X021922Y005272D02*
X022086Y005272D01*
X022087Y005264D02*
X021923Y005264D01*
X021923Y005255D02*
X022089Y005255D01*
X022090Y005247D02*
X021924Y005247D01*
X021925Y005238D02*
X022091Y005238D01*
X022093Y005229D02*
X021927Y005229D01*
X021929Y005221D02*
X022094Y005221D01*
X022098Y005212D02*
X021931Y005212D01*
X021933Y005204D02*
X022101Y005204D01*
X021176Y005392D02*
X021002Y005392D01*
X020999Y005400D02*
X021176Y005400D01*
X021176Y005409D02*
X020995Y005409D01*
X020991Y005417D02*
X021176Y005417D01*
X020794Y005494D02*
X020784Y005494D01*
X020710Y005494D02*
X020547Y005494D01*
X020547Y005486D02*
X020710Y005486D01*
X020710Y005477D02*
X020547Y005477D01*
X020547Y005469D02*
X020710Y005469D01*
X020710Y005460D02*
X020547Y005460D01*
X020547Y005452D02*
X020710Y005452D01*
X020710Y005443D02*
X020547Y005443D01*
X020547Y005434D02*
X020710Y005434D01*
X020710Y005426D02*
X020547Y005426D01*
X020547Y005417D02*
X020710Y005417D01*
X020710Y005409D02*
X020547Y005409D01*
X020547Y005408D02*
X020323Y005632D01*
X020139Y005632D01*
X020366Y005410D01*
X020104Y005017D01*
X020304Y005018D01*
X020472Y005295D01*
X020474Y005298D01*
X020545Y005229D01*
X020545Y005019D01*
X020545Y005014D01*
X020708Y005014D01*
X020710Y005016D01*
X020545Y005016D01*
X020545Y005024D02*
X020710Y005024D01*
X020710Y005016D02*
X020710Y005777D01*
X020547Y005870D01*
X020547Y005408D01*
X020546Y005409D02*
X020365Y005409D01*
X020359Y005400D02*
X020710Y005400D01*
X020710Y005392D02*
X020354Y005392D01*
X020348Y005383D02*
X020710Y005383D01*
X020710Y005375D02*
X020342Y005375D01*
X020337Y005366D02*
X020710Y005366D01*
X020710Y005358D02*
X020331Y005358D01*
X020325Y005349D02*
X020710Y005349D01*
X020710Y005341D02*
X020320Y005341D01*
X020314Y005332D02*
X020710Y005332D01*
X020710Y005323D02*
X020308Y005323D01*
X020302Y005315D02*
X020710Y005315D01*
X020710Y005306D02*
X020297Y005306D01*
X020291Y005298D02*
X020710Y005298D01*
X020710Y005289D02*
X020482Y005289D01*
X020491Y005281D02*
X020710Y005281D01*
X020710Y005272D02*
X020500Y005272D01*
X020509Y005264D02*
X020710Y005264D01*
X020710Y005255D02*
X020517Y005255D01*
X020526Y005247D02*
X020710Y005247D01*
X020710Y005238D02*
X020535Y005238D01*
X020544Y005229D02*
X020710Y005229D01*
X020710Y005221D02*
X020545Y005221D01*
X020545Y005212D02*
X020710Y005212D01*
X020710Y005204D02*
X020545Y005204D01*
X020545Y005195D02*
X020710Y005195D01*
X020710Y005187D02*
X020545Y005187D01*
X020545Y005178D02*
X020710Y005178D01*
X020710Y005170D02*
X020545Y005170D01*
X020545Y005161D02*
X020710Y005161D01*
X020710Y005153D02*
X020545Y005153D01*
X020545Y005144D02*
X020710Y005144D01*
X020710Y005135D02*
X020545Y005135D01*
X020545Y005127D02*
X020710Y005127D01*
X020710Y005118D02*
X020545Y005118D01*
X020545Y005110D02*
X020710Y005110D01*
X020710Y005101D02*
X020545Y005101D01*
X020545Y005093D02*
X020710Y005093D01*
X020710Y005084D02*
X020545Y005084D01*
X020545Y005076D02*
X020710Y005076D01*
X020710Y005067D02*
X020545Y005067D01*
X020545Y005059D02*
X020710Y005059D01*
X020710Y005050D02*
X020545Y005050D01*
X020545Y005041D02*
X020710Y005041D01*
X020710Y005033D02*
X020545Y005033D01*
X020375Y005135D02*
X020183Y005135D01*
X020177Y005127D02*
X020370Y005127D01*
X020365Y005118D02*
X020171Y005118D01*
X020166Y005110D02*
X020360Y005110D01*
X020354Y005101D02*
X020160Y005101D01*
X020154Y005093D02*
X020349Y005093D01*
X020344Y005084D02*
X020149Y005084D01*
X020143Y005076D02*
X020339Y005076D01*
X020334Y005067D02*
X020137Y005067D01*
X020132Y005059D02*
X020328Y005059D01*
X020323Y005050D02*
X020126Y005050D01*
X020120Y005041D02*
X020318Y005041D01*
X020313Y005033D02*
X020115Y005033D01*
X020109Y005024D02*
X020308Y005024D01*
X020380Y005144D02*
X020189Y005144D01*
X020194Y005153D02*
X020385Y005153D01*
X020391Y005161D02*
X020200Y005161D01*
X020206Y005170D02*
X020396Y005170D01*
X020401Y005178D02*
X020211Y005178D01*
X020217Y005187D02*
X020406Y005187D01*
X020411Y005195D02*
X020223Y005195D01*
X020228Y005204D02*
X020417Y005204D01*
X020422Y005212D02*
X020234Y005212D01*
X020240Y005221D02*
X020427Y005221D01*
X020432Y005229D02*
X020246Y005229D01*
X020251Y005238D02*
X020437Y005238D01*
X020442Y005247D02*
X020257Y005247D01*
X020263Y005255D02*
X020448Y005255D01*
X020453Y005264D02*
X020268Y005264D01*
X020274Y005272D02*
X020458Y005272D01*
X020463Y005281D02*
X020280Y005281D01*
X020285Y005289D02*
X020468Y005289D01*
X020537Y005417D02*
X020358Y005417D01*
X020349Y005426D02*
X020528Y005426D01*
X020520Y005434D02*
X020340Y005434D01*
X020332Y005443D02*
X020511Y005443D01*
X020503Y005452D02*
X020323Y005452D01*
X020314Y005460D02*
X020494Y005460D01*
X020486Y005469D02*
X020305Y005469D01*
X020297Y005477D02*
X020477Y005477D01*
X020469Y005486D02*
X020288Y005486D01*
X020279Y005494D02*
X020460Y005494D01*
X020452Y005503D02*
X020270Y005503D01*
X020262Y005511D02*
X020443Y005511D01*
X020434Y005520D02*
X020253Y005520D01*
X020244Y005528D02*
X020426Y005528D01*
X020417Y005537D02*
X020235Y005537D01*
X020227Y005546D02*
X020409Y005546D01*
X020400Y005554D02*
X020218Y005554D01*
X020209Y005563D02*
X020392Y005563D01*
X020383Y005571D02*
X020201Y005571D01*
X020192Y005580D02*
X020375Y005580D01*
X020366Y005588D02*
X020183Y005588D01*
X020174Y005597D02*
X020358Y005597D01*
X020349Y005605D02*
X020166Y005605D01*
X020157Y005614D02*
X020340Y005614D01*
X020332Y005622D02*
X020148Y005622D01*
X020139Y005631D02*
X020323Y005631D01*
X020148Y005528D02*
X020043Y005633D01*
X019989Y005633D01*
X019989Y005651D01*
X019982Y005735D01*
X019976Y005757D01*
X019966Y005778D01*
X019953Y005797D01*
X019923Y005825D01*
X019889Y005846D01*
X019852Y005861D01*
X019812Y005868D01*
X019751Y005868D01*
X019699Y005865D01*
X019698Y005865D01*
X019698Y005746D01*
X019701Y005746D01*
X019712Y005747D01*
X019748Y005750D01*
X019785Y005747D01*
X019797Y005742D01*
X019808Y005735D01*
X019816Y005725D01*
X019823Y005707D01*
X019826Y005688D01*
X019826Y005633D01*
X019782Y005633D01*
X019709Y005633D01*
X019709Y005528D01*
X019827Y005528D01*
X019827Y005015D01*
X019991Y005015D01*
X019991Y005519D01*
X019991Y005527D01*
X020148Y005528D01*
X020147Y005528D02*
X019709Y005528D01*
X019709Y005537D02*
X020138Y005537D01*
X020130Y005546D02*
X019709Y005546D01*
X019709Y005554D02*
X020121Y005554D01*
X020113Y005563D02*
X019709Y005563D01*
X019709Y005571D02*
X020104Y005571D01*
X020096Y005580D02*
X019709Y005580D01*
X019709Y005588D02*
X020087Y005588D01*
X020079Y005597D02*
X019709Y005597D01*
X019709Y005605D02*
X020070Y005605D01*
X020061Y005614D02*
X019709Y005614D01*
X019709Y005622D02*
X020053Y005622D01*
X020044Y005631D02*
X019709Y005631D01*
X019651Y005631D02*
X019488Y005631D01*
X019488Y005635D02*
X019651Y005635D01*
X019651Y005210D01*
X019647Y005166D01*
X019635Y005125D01*
X019616Y005086D01*
X019590Y005051D01*
X019580Y005042D01*
X019544Y005021D01*
X019505Y005008D01*
X019465Y005002D01*
X019406Y005003D01*
X019348Y005012D01*
X019337Y005015D01*
X019328Y005020D01*
X019291Y005046D01*
X019259Y005077D01*
X019231Y005112D01*
X019230Y005112D01*
X019230Y005018D01*
X019072Y005018D01*
X019072Y005633D01*
X019238Y005633D01*
X019238Y005306D01*
X019241Y005257D01*
X019250Y005209D01*
X019258Y005186D01*
X019272Y005166D01*
X019290Y005150D01*
X019311Y005138D01*
X019339Y005129D01*
X019368Y005126D01*
X019398Y005130D01*
X019426Y005139D01*
X019442Y005148D01*
X019456Y005161D01*
X019468Y005176D01*
X019482Y005207D01*
X019488Y005241D01*
X019488Y005635D01*
X019488Y005622D02*
X019651Y005622D01*
X019651Y005614D02*
X019488Y005614D01*
X019488Y005605D02*
X019651Y005605D01*
X019651Y005597D02*
X019488Y005597D01*
X019488Y005588D02*
X019651Y005588D01*
X019651Y005580D02*
X019488Y005580D01*
X019488Y005571D02*
X019651Y005571D01*
X019651Y005563D02*
X019488Y005563D01*
X019488Y005554D02*
X019651Y005554D01*
X019651Y005546D02*
X019488Y005546D01*
X019488Y005537D02*
X019651Y005537D01*
X019651Y005528D02*
X019488Y005528D01*
X019488Y005520D02*
X019651Y005520D01*
X019651Y005511D02*
X019488Y005511D01*
X019488Y005503D02*
X019651Y005503D01*
X019651Y005494D02*
X019488Y005494D01*
X019488Y005486D02*
X019651Y005486D01*
X019651Y005477D02*
X019488Y005477D01*
X019488Y005469D02*
X019651Y005469D01*
X019651Y005460D02*
X019488Y005460D01*
X019488Y005452D02*
X019651Y005452D01*
X019651Y005443D02*
X019488Y005443D01*
X019488Y005434D02*
X019651Y005434D01*
X019651Y005426D02*
X019488Y005426D01*
X019488Y005417D02*
X019651Y005417D01*
X019651Y005409D02*
X019488Y005409D01*
X019488Y005400D02*
X019651Y005400D01*
X019651Y005392D02*
X019488Y005392D01*
X019488Y005383D02*
X019651Y005383D01*
X019651Y005375D02*
X019488Y005375D01*
X019488Y005366D02*
X019651Y005366D01*
X019651Y005358D02*
X019488Y005358D01*
X019488Y005349D02*
X019651Y005349D01*
X019651Y005341D02*
X019488Y005341D01*
X019488Y005332D02*
X019651Y005332D01*
X019651Y005323D02*
X019488Y005323D01*
X019488Y005315D02*
X019651Y005315D01*
X019651Y005306D02*
X019488Y005306D01*
X019488Y005298D02*
X019651Y005298D01*
X019651Y005289D02*
X019488Y005289D01*
X019488Y005281D02*
X019651Y005281D01*
X019651Y005272D02*
X019488Y005272D01*
X019488Y005264D02*
X019651Y005264D01*
X019651Y005255D02*
X019488Y005255D01*
X019488Y005247D02*
X019651Y005247D01*
X019651Y005238D02*
X019487Y005238D01*
X019486Y005229D02*
X019651Y005229D01*
X019651Y005221D02*
X019484Y005221D01*
X019483Y005212D02*
X019651Y005212D01*
X019650Y005204D02*
X019480Y005204D01*
X019476Y005195D02*
X019649Y005195D01*
X019649Y005187D02*
X019473Y005187D01*
X019469Y005178D02*
X019648Y005178D01*
X019647Y005170D02*
X019463Y005170D01*
X019457Y005161D02*
X019645Y005161D01*
X019643Y005153D02*
X019447Y005153D01*
X019435Y005144D02*
X019640Y005144D01*
X019638Y005135D02*
X019416Y005135D01*
X019374Y005127D02*
X019636Y005127D01*
X019632Y005118D02*
X019072Y005118D01*
X019072Y005110D02*
X019230Y005110D01*
X019232Y005110D02*
X019628Y005110D01*
X019623Y005101D02*
X019239Y005101D01*
X019230Y005101D02*
X019072Y005101D01*
X019072Y005093D02*
X019230Y005093D01*
X019230Y005084D02*
X019072Y005084D01*
X019072Y005076D02*
X019230Y005076D01*
X019230Y005067D02*
X019072Y005067D01*
X019072Y005059D02*
X019230Y005059D01*
X019230Y005050D02*
X019072Y005050D01*
X019072Y005041D02*
X019230Y005041D01*
X019230Y005033D02*
X019072Y005033D01*
X019072Y005024D02*
X019230Y005024D01*
X019268Y005067D02*
X019602Y005067D01*
X019596Y005059D02*
X019277Y005059D01*
X019286Y005050D02*
X019589Y005050D01*
X019579Y005041D02*
X019297Y005041D01*
X019309Y005033D02*
X019565Y005033D01*
X019550Y005024D02*
X019321Y005024D01*
X019335Y005016D02*
X019529Y005016D01*
X019504Y005007D02*
X019377Y005007D01*
X019259Y005076D02*
X019608Y005076D01*
X019615Y005084D02*
X019252Y005084D01*
X019246Y005093D02*
X019619Y005093D01*
X019827Y005093D02*
X019991Y005093D01*
X019991Y005101D02*
X019827Y005101D01*
X019827Y005110D02*
X019991Y005110D01*
X019991Y005118D02*
X019827Y005118D01*
X019827Y005127D02*
X019991Y005127D01*
X019991Y005135D02*
X019827Y005135D01*
X019827Y005144D02*
X019991Y005144D01*
X019991Y005153D02*
X019827Y005153D01*
X019827Y005161D02*
X019991Y005161D01*
X019991Y005170D02*
X019827Y005170D01*
X019827Y005178D02*
X019991Y005178D01*
X019991Y005187D02*
X019827Y005187D01*
X019827Y005195D02*
X019991Y005195D01*
X019991Y005204D02*
X019827Y005204D01*
X019827Y005212D02*
X019991Y005212D01*
X019991Y005221D02*
X019827Y005221D01*
X019827Y005229D02*
X019991Y005229D01*
X019991Y005238D02*
X019827Y005238D01*
X019827Y005247D02*
X019991Y005247D01*
X019991Y005255D02*
X019827Y005255D01*
X019827Y005264D02*
X019991Y005264D01*
X019991Y005272D02*
X019827Y005272D01*
X019827Y005281D02*
X019991Y005281D01*
X019991Y005289D02*
X019827Y005289D01*
X019827Y005298D02*
X019991Y005298D01*
X019991Y005306D02*
X019827Y005306D01*
X019827Y005315D02*
X019991Y005315D01*
X019991Y005323D02*
X019827Y005323D01*
X019827Y005332D02*
X019991Y005332D01*
X019991Y005341D02*
X019827Y005341D01*
X019827Y005349D02*
X019991Y005349D01*
X019991Y005358D02*
X019827Y005358D01*
X019827Y005366D02*
X019991Y005366D01*
X019991Y005375D02*
X019827Y005375D01*
X019827Y005383D02*
X019991Y005383D01*
X019991Y005392D02*
X019827Y005392D01*
X019827Y005400D02*
X019991Y005400D01*
X019991Y005409D02*
X019827Y005409D01*
X019827Y005417D02*
X019991Y005417D01*
X019991Y005426D02*
X019827Y005426D01*
X019827Y005434D02*
X019991Y005434D01*
X019991Y005443D02*
X019827Y005443D01*
X019827Y005452D02*
X019991Y005452D01*
X019991Y005460D02*
X019827Y005460D01*
X019827Y005469D02*
X019991Y005469D01*
X019991Y005477D02*
X019827Y005477D01*
X019827Y005486D02*
X019991Y005486D01*
X019991Y005494D02*
X019827Y005494D01*
X019827Y005503D02*
X019991Y005503D01*
X019991Y005511D02*
X019827Y005511D01*
X019827Y005520D02*
X019991Y005520D01*
X019989Y005640D02*
X019826Y005640D01*
X019826Y005648D02*
X019989Y005648D01*
X019988Y005657D02*
X019826Y005657D01*
X019826Y005665D02*
X019987Y005665D01*
X019987Y005674D02*
X019826Y005674D01*
X019826Y005682D02*
X019986Y005682D01*
X019985Y005691D02*
X019825Y005691D01*
X019824Y005699D02*
X019985Y005699D01*
X019984Y005708D02*
X019823Y005708D01*
X019819Y005716D02*
X019983Y005716D01*
X019983Y005725D02*
X019815Y005725D01*
X019809Y005734D02*
X019982Y005734D01*
X019980Y005742D02*
X019798Y005742D01*
X019698Y005751D02*
X019978Y005751D01*
X019975Y005759D02*
X019698Y005759D01*
X019698Y005768D02*
X019971Y005768D01*
X019967Y005776D02*
X019698Y005776D01*
X019698Y005785D02*
X019961Y005785D01*
X019955Y005793D02*
X019698Y005793D01*
X019698Y005802D02*
X019947Y005802D01*
X019938Y005810D02*
X019698Y005810D01*
X019698Y005819D02*
X019929Y005819D01*
X019919Y005827D02*
X019698Y005827D01*
X019698Y005836D02*
X019905Y005836D01*
X019892Y005845D02*
X019698Y005845D01*
X019698Y005853D02*
X019871Y005853D01*
X019847Y005862D02*
X019698Y005862D01*
X020174Y005981D02*
X020354Y005981D01*
X020354Y005973D02*
X020181Y005973D01*
X020189Y005964D02*
X020354Y005964D01*
X020354Y005956D02*
X020196Y005956D01*
X020204Y005947D02*
X020354Y005947D01*
X020354Y005939D02*
X020212Y005939D01*
X020219Y005930D02*
X020354Y005930D01*
X020354Y005921D02*
X020227Y005921D01*
X020234Y005913D02*
X020354Y005913D01*
X020354Y005904D02*
X020242Y005904D01*
X020250Y005896D02*
X020354Y005896D01*
X020354Y005887D02*
X020257Y005887D01*
X020265Y005879D02*
X020354Y005879D01*
X020354Y005870D02*
X020272Y005870D01*
X020280Y005862D02*
X020354Y005862D01*
X020354Y005853D02*
X020288Y005853D01*
X020295Y005845D02*
X020354Y005845D01*
X020354Y005836D02*
X020303Y005836D01*
X020310Y005827D02*
X020354Y005827D01*
X020354Y005819D02*
X020318Y005819D01*
X020325Y005810D02*
X020354Y005810D01*
X020354Y005802D02*
X020333Y005802D01*
X020341Y005793D02*
X020354Y005793D01*
X020354Y005785D02*
X020348Y005785D01*
X020354Y005779D02*
X020162Y005995D01*
X020128Y006026D01*
X020088Y006050D01*
X020354Y006050D01*
X020354Y006058D02*
X019963Y006058D01*
X019968Y006058D02*
X019914Y006063D01*
X019862Y006077D01*
X019814Y006101D01*
X019768Y006133D01*
X019727Y006171D01*
X019693Y006215D01*
X019655Y006281D01*
X019631Y006353D01*
X019619Y006428D01*
X019622Y006504D01*
X019630Y006545D01*
X020019Y006545D01*
X020015Y006541D02*
X020000Y006523D01*
X019990Y006502D01*
X019622Y006502D01*
X019621Y006494D02*
X019988Y006494D01*
X019990Y006502D02*
X019985Y006479D01*
X019987Y006456D01*
X019995Y006434D01*
X020008Y006415D01*
X020026Y006400D01*
X020048Y006388D01*
X020072Y006380D01*
X020097Y006376D01*
X020126Y006377D01*
X020154Y006386D01*
X020179Y006401D01*
X020192Y006415D01*
X020201Y006432D01*
X020205Y006449D01*
X020205Y006467D01*
X020201Y006485D01*
X020197Y006491D01*
X020192Y006497D01*
X020159Y006521D01*
X020152Y006524D01*
X020146Y006525D01*
X020139Y006525D01*
X020158Y006528D01*
X020195Y006531D01*
X020232Y006528D01*
X020259Y006520D01*
X020285Y006508D01*
X020307Y006490D01*
X020326Y006469D01*
X020341Y006440D01*
X020351Y006408D01*
X020354Y006376D01*
X020354Y005779D01*
X020547Y005776D02*
X020710Y005776D01*
X020710Y005768D02*
X020547Y005768D01*
X020547Y005759D02*
X020710Y005759D01*
X020710Y005751D02*
X020547Y005751D01*
X020547Y005742D02*
X020710Y005742D01*
X020710Y005734D02*
X020547Y005734D01*
X020547Y005725D02*
X020710Y005725D01*
X020710Y005716D02*
X020547Y005716D01*
X020547Y005708D02*
X020710Y005708D01*
X020710Y005699D02*
X020547Y005699D01*
X020547Y005691D02*
X020710Y005691D01*
X020710Y005682D02*
X020547Y005682D01*
X020547Y005674D02*
X020710Y005674D01*
X020710Y005665D02*
X020547Y005665D01*
X020547Y005657D02*
X020710Y005657D01*
X020710Y005648D02*
X020547Y005648D01*
X020547Y005640D02*
X020710Y005640D01*
X020710Y005631D02*
X020547Y005631D01*
X020547Y005622D02*
X020710Y005622D01*
X020710Y005614D02*
X020547Y005614D01*
X020547Y005605D02*
X020710Y005605D01*
X020710Y005597D02*
X020547Y005597D01*
X020547Y005588D02*
X020710Y005588D01*
X020710Y005580D02*
X020547Y005580D01*
X020547Y005571D02*
X020710Y005571D01*
X020710Y005563D02*
X020547Y005563D01*
X020547Y005554D02*
X020710Y005554D01*
X020710Y005546D02*
X020547Y005546D01*
X020547Y005537D02*
X020710Y005537D01*
X020710Y005528D02*
X020547Y005528D01*
X020547Y005520D02*
X020710Y005520D01*
X020710Y005511D02*
X020547Y005511D01*
X020547Y005503D02*
X020710Y005503D01*
X020696Y005785D02*
X020547Y005785D01*
X020547Y005793D02*
X020681Y005793D01*
X020666Y005802D02*
X020547Y005802D01*
X020547Y005810D02*
X020651Y005810D01*
X020636Y005819D02*
X020547Y005819D01*
X020547Y005827D02*
X020621Y005827D01*
X020606Y005836D02*
X020547Y005836D01*
X020547Y005845D02*
X020591Y005845D01*
X020576Y005853D02*
X020547Y005853D01*
X020547Y005862D02*
X020561Y005862D01*
X020354Y005990D02*
X020166Y005990D01*
X020158Y005998D02*
X020354Y005998D01*
X020354Y006007D02*
X020148Y006007D01*
X020139Y006015D02*
X020354Y006015D01*
X020354Y006024D02*
X020130Y006024D01*
X020117Y006033D02*
X020354Y006033D01*
X020354Y006041D02*
X020102Y006041D01*
X020088Y006050D02*
X020073Y006055D01*
X020058Y006058D01*
X019968Y006058D01*
X019899Y006067D02*
X020354Y006067D01*
X020354Y006075D02*
X019869Y006075D01*
X019848Y006084D02*
X020354Y006084D01*
X020354Y006092D02*
X019831Y006092D01*
X019813Y006101D02*
X020354Y006101D01*
X020354Y006109D02*
X019801Y006109D01*
X019789Y006118D02*
X020354Y006118D01*
X020354Y006126D02*
X019777Y006126D01*
X019766Y006135D02*
X020354Y006135D01*
X020354Y006144D02*
X019757Y006144D01*
X019748Y006152D02*
X020354Y006152D01*
X020354Y006161D02*
X019739Y006161D01*
X019729Y006169D02*
X020354Y006169D01*
X020354Y006178D02*
X019722Y006178D01*
X019715Y006186D02*
X020354Y006186D01*
X020354Y006195D02*
X019709Y006195D01*
X019702Y006203D02*
X020354Y006203D01*
X020354Y006212D02*
X019695Y006212D01*
X019689Y006220D02*
X020354Y006220D01*
X020354Y006229D02*
X019685Y006229D01*
X019680Y006238D02*
X020354Y006238D01*
X020354Y006246D02*
X019675Y006246D01*
X019670Y006255D02*
X020354Y006255D01*
X020354Y006263D02*
X019665Y006263D01*
X019661Y006272D02*
X020354Y006272D01*
X020354Y006280D02*
X019656Y006280D01*
X019653Y006289D02*
X020354Y006289D01*
X020354Y006297D02*
X019650Y006297D01*
X019647Y006306D02*
X020354Y006306D01*
X020354Y006314D02*
X019644Y006314D01*
X019641Y006323D02*
X020354Y006323D01*
X020354Y006332D02*
X019638Y006332D01*
X019635Y006340D02*
X020354Y006340D01*
X020354Y006349D02*
X019632Y006349D01*
X019630Y006357D02*
X020354Y006357D01*
X020354Y006366D02*
X019629Y006366D01*
X019627Y006374D02*
X020354Y006374D01*
X020353Y006383D02*
X020144Y006383D01*
X020163Y006391D02*
X020352Y006391D01*
X020352Y006400D02*
X020177Y006400D01*
X020186Y006408D02*
X020351Y006408D01*
X020348Y006417D02*
X020193Y006417D01*
X020197Y006426D02*
X020346Y006426D01*
X020343Y006434D02*
X020201Y006434D01*
X020203Y006443D02*
X020340Y006443D01*
X020335Y006451D02*
X020205Y006451D01*
X020205Y006460D02*
X020331Y006460D01*
X020326Y006468D02*
X020204Y006468D01*
X020202Y006477D02*
X020319Y006477D01*
X020311Y006485D02*
X020200Y006485D01*
X020195Y006494D02*
X020303Y006494D01*
X020292Y006502D02*
X020184Y006502D01*
X020172Y006511D02*
X020278Y006511D01*
X020261Y006519D02*
X020160Y006519D01*
X020162Y006528D02*
X020227Y006528D01*
X020086Y006622D02*
X019665Y006622D01*
X019664Y006621D02*
X019699Y006665D01*
X019744Y006665D01*
X019744Y006667D02*
X019744Y006661D01*
X019747Y006656D01*
X019758Y006641D01*
X019774Y006631D01*
X019672Y006631D01*
X019678Y006639D02*
X019761Y006639D01*
X019753Y006648D02*
X019685Y006648D01*
X019692Y006656D02*
X019746Y006656D01*
X019744Y006667D02*
X019744Y006702D01*
X019699Y006665D01*
X019709Y006673D02*
X019744Y006673D01*
X019744Y006682D02*
X019719Y006682D01*
X019730Y006690D02*
X019744Y006690D01*
X019740Y006699D02*
X019744Y006699D01*
X019774Y006631D02*
X019782Y006628D01*
X019804Y006625D01*
X019826Y006629D01*
X019847Y006640D01*
X019883Y006666D01*
X019899Y006680D01*
X019914Y006697D01*
X019925Y006715D01*
X019934Y006736D01*
X019936Y006749D01*
X019936Y006762D01*
X019929Y006783D01*
X019917Y006803D01*
X019901Y006818D01*
X019881Y006829D01*
X019861Y006834D01*
X019840Y006837D01*
X019816Y006837D01*
X019817Y006838D01*
X019834Y006851D01*
X019854Y006860D01*
X019868Y006866D01*
X019877Y006870D01*
X020014Y006870D01*
X020045Y006855D01*
X020075Y006833D01*
X020103Y006807D01*
X020120Y006783D01*
X020130Y006756D01*
X020134Y006727D01*
X020130Y006698D01*
X020119Y006671D01*
X020072Y006601D01*
X020015Y006541D01*
X020011Y006537D02*
X019628Y006537D01*
X019630Y006545D02*
X019644Y006584D01*
X019664Y006621D01*
X019660Y006613D02*
X020080Y006613D01*
X020074Y006605D02*
X019655Y006605D01*
X019651Y006596D02*
X020067Y006596D01*
X020059Y006588D02*
X019646Y006588D01*
X019642Y006579D02*
X020051Y006579D01*
X020043Y006571D02*
X019639Y006571D01*
X019636Y006562D02*
X020035Y006562D01*
X020027Y006554D02*
X019633Y006554D01*
X019627Y006528D02*
X020004Y006528D01*
X019998Y006519D02*
X019625Y006519D01*
X019623Y006511D02*
X019994Y006511D01*
X019987Y006485D02*
X019621Y006485D01*
X019621Y006477D02*
X019986Y006477D01*
X019986Y006468D02*
X019621Y006468D01*
X019620Y006460D02*
X019987Y006460D01*
X019989Y006451D02*
X019620Y006451D01*
X019620Y006443D02*
X019992Y006443D01*
X019995Y006434D02*
X019619Y006434D01*
X019620Y006426D02*
X020001Y006426D01*
X020007Y006417D02*
X019621Y006417D01*
X019622Y006408D02*
X020015Y006408D01*
X020025Y006400D02*
X019624Y006400D01*
X019625Y006391D02*
X020041Y006391D01*
X020062Y006383D02*
X019626Y006383D01*
X019829Y006631D02*
X020092Y006631D01*
X020097Y006639D02*
X019846Y006639D01*
X019858Y006648D02*
X020103Y006648D01*
X020109Y006656D02*
X019870Y006656D01*
X019881Y006665D02*
X020115Y006665D01*
X020120Y006673D02*
X019891Y006673D01*
X019901Y006682D02*
X020123Y006682D01*
X020127Y006690D02*
X019908Y006690D01*
X019915Y006699D02*
X020130Y006699D01*
X020131Y006707D02*
X019920Y006707D01*
X019925Y006716D02*
X020132Y006716D01*
X020133Y006725D02*
X019929Y006725D01*
X019933Y006733D02*
X020133Y006733D01*
X020132Y006742D02*
X019935Y006742D01*
X019936Y006750D02*
X020131Y006750D01*
X020129Y006759D02*
X019936Y006759D01*
X019934Y006767D02*
X020126Y006767D01*
X020122Y006776D02*
X019931Y006776D01*
X019929Y006784D02*
X020119Y006784D01*
X020113Y006793D02*
X019923Y006793D01*
X019918Y006801D02*
X020106Y006801D01*
X020099Y006810D02*
X019909Y006810D01*
X019900Y006819D02*
X020090Y006819D01*
X020081Y006827D02*
X019884Y006827D01*
X019849Y006836D02*
X020071Y006836D01*
X020059Y006844D02*
X019825Y006844D01*
X019816Y006837D02*
X019816Y006837D01*
X019838Y006853D02*
X020047Y006853D01*
X020032Y006861D02*
X019857Y006861D01*
X019877Y006870D02*
X019911Y006878D01*
X019984Y006878D01*
X019981Y006879D02*
X020014Y006870D01*
X019981Y006879D02*
X019947Y006882D01*
X019911Y006878D01*
X017847Y005654D02*
X017787Y005667D01*
X017727Y005668D01*
X017670Y005660D01*
X017615Y005648D01*
X017569Y005630D01*
X017529Y005602D01*
X017495Y005567D01*
X017470Y005525D01*
X017453Y005479D01*
X017444Y005432D01*
X017609Y005432D01*
X017609Y005433D01*
X017611Y005456D01*
X017619Y005479D01*
X017632Y005499D01*
X017649Y005515D01*
X017670Y005528D01*
X017702Y005538D01*
X017736Y005542D01*
X017770Y005539D01*
X017803Y005532D01*
X017820Y005524D01*
X017835Y005512D01*
X017862Y005475D01*
X017883Y005434D01*
X017895Y005389D01*
X017899Y005344D01*
X017894Y005281D01*
X017893Y005281D02*
X018061Y005281D01*
X018062Y005289D02*
X017894Y005289D01*
X017894Y005281D02*
X017880Y005221D01*
X018051Y005221D01*
X018053Y005229D02*
X017882Y005229D01*
X017880Y005221D02*
X017867Y005191D01*
X017847Y005166D01*
X017823Y005146D01*
X017794Y005133D01*
X017762Y005125D01*
X017730Y005124D01*
X017706Y005127D01*
X017682Y005134D01*
X017661Y005145D01*
X017642Y005159D01*
X017628Y005177D01*
X017615Y005201D01*
X017606Y005227D01*
X017602Y005254D01*
X017442Y005254D01*
X017442Y005252D01*
X017443Y005233D01*
X017447Y005215D01*
X017468Y005160D01*
X017500Y005111D01*
X017542Y005069D01*
X017591Y005037D01*
X017634Y005019D01*
X017679Y005007D01*
X017726Y005004D01*
X017788Y005008D01*
X017850Y005019D01*
X017892Y005033D01*
X017599Y005033D01*
X017583Y005041D02*
X017909Y005041D01*
X017925Y005050D02*
X017570Y005050D01*
X017557Y005059D02*
X017938Y005059D01*
X017931Y005053D02*
X017966Y005080D01*
X017997Y005113D01*
X018024Y005153D01*
X018044Y005196D01*
X018057Y005243D01*
X018063Y005291D01*
X018060Y005389D01*
X018048Y005447D01*
X018025Y005503D01*
X017841Y005503D01*
X017835Y005511D02*
X018020Y005511D01*
X018025Y005503D02*
X017992Y005553D01*
X017951Y005596D01*
X017901Y005630D01*
X017847Y005654D01*
X017859Y005648D02*
X017616Y005648D01*
X017594Y005640D02*
X017879Y005640D01*
X017898Y005631D02*
X017573Y005631D01*
X017559Y005622D02*
X017912Y005622D01*
X017924Y005614D02*
X017546Y005614D01*
X017533Y005605D02*
X017936Y005605D01*
X017949Y005597D02*
X017524Y005597D01*
X017515Y005588D02*
X017958Y005588D01*
X017966Y005580D02*
X017507Y005580D01*
X017499Y005571D02*
X017974Y005571D01*
X017983Y005563D02*
X017492Y005563D01*
X017487Y005554D02*
X017991Y005554D01*
X017997Y005546D02*
X017482Y005546D01*
X017477Y005537D02*
X017698Y005537D01*
X017672Y005528D02*
X017472Y005528D01*
X017468Y005520D02*
X017657Y005520D01*
X017645Y005511D02*
X017465Y005511D01*
X017462Y005503D02*
X017636Y005503D01*
X017629Y005494D02*
X017459Y005494D01*
X017455Y005486D02*
X017624Y005486D01*
X017619Y005477D02*
X017453Y005477D01*
X017451Y005469D02*
X017616Y005469D01*
X017613Y005460D02*
X017449Y005460D01*
X017448Y005452D02*
X017611Y005452D01*
X017610Y005443D02*
X017446Y005443D01*
X017444Y005434D02*
X017609Y005434D01*
X018808Y005383D02*
X018808Y005356D01*
X018808Y005357D02*
X018808Y005015D01*
X018974Y005015D01*
X018974Y005634D01*
X018815Y005634D01*
X018815Y005547D01*
X018812Y005547D01*
X018808Y005547D01*
X018805Y005550D01*
X018800Y005556D01*
X018789Y005571D01*
X018773Y005589D01*
X018755Y005606D01*
X018719Y005628D01*
X018680Y005643D01*
X018639Y005649D01*
X018560Y005647D01*
X018521Y005639D01*
X018486Y005622D01*
X018455Y005598D01*
X018435Y005575D01*
X018420Y005549D01*
X018410Y005522D01*
X018400Y005478D01*
X018397Y005434D01*
X018397Y005019D01*
X018558Y005019D01*
X018558Y005399D01*
X018560Y005428D01*
X018568Y005456D01*
X018581Y005482D01*
X018593Y005498D01*
X018609Y005511D01*
X018627Y005520D01*
X018639Y005523D01*
X018653Y005524D01*
X018697Y005522D01*
X018719Y005518D01*
X018741Y005510D01*
X018760Y005497D01*
X018781Y005473D01*
X018796Y005446D01*
X018804Y005415D01*
X018808Y005384D01*
X018808Y005357D01*
X018808Y005015D01*
X018974Y005015D01*
X018974Y005634D01*
X018815Y005634D01*
X018815Y005547D01*
X018812Y005547D01*
X018815Y005554D02*
X018974Y005554D01*
X018974Y005546D02*
X018419Y005546D01*
X018423Y005554D02*
X018801Y005554D01*
X018795Y005563D02*
X018428Y005563D01*
X018433Y005571D02*
X018788Y005571D01*
X018781Y005580D02*
X018439Y005580D01*
X018447Y005588D02*
X018774Y005588D01*
X018765Y005597D02*
X018454Y005597D01*
X018464Y005605D02*
X018755Y005605D01*
X018742Y005614D02*
X018475Y005614D01*
X018487Y005622D02*
X018728Y005622D01*
X018711Y005631D02*
X018505Y005631D01*
X018526Y005640D02*
X018688Y005640D01*
X018643Y005648D02*
X018615Y005648D01*
X018628Y005520D02*
X018409Y005520D01*
X018407Y005511D02*
X018610Y005511D01*
X018599Y005503D02*
X018406Y005503D01*
X018404Y005494D02*
X018590Y005494D01*
X018584Y005486D02*
X018402Y005486D01*
X018400Y005477D02*
X018578Y005477D01*
X018559Y005646D02*
X018536Y005643D01*
X018514Y005636D01*
X018492Y005626D01*
X018472Y005613D01*
X018455Y005597D01*
X018416Y005537D02*
X018974Y005537D01*
X018974Y005528D02*
X018412Y005528D01*
X018399Y005469D02*
X018574Y005469D01*
X018410Y005521D02*
X018417Y005542D01*
X018427Y005562D01*
X018440Y005581D01*
X018455Y005597D01*
X018399Y005460D02*
X018570Y005460D01*
X018567Y005452D02*
X018398Y005452D01*
X018397Y005443D02*
X018565Y005443D01*
X018562Y005434D02*
X018397Y005434D01*
X018397Y005019D01*
X018558Y005019D01*
X018558Y005399D01*
X018558Y005400D02*
X018397Y005400D01*
X018397Y005392D02*
X018558Y005392D01*
X018558Y005383D02*
X018397Y005383D01*
X018397Y005375D02*
X018558Y005375D01*
X018558Y005366D02*
X018397Y005366D01*
X018397Y005358D02*
X018558Y005358D01*
X018558Y005349D02*
X018397Y005349D01*
X018397Y005341D02*
X018558Y005341D01*
X018558Y005332D02*
X018397Y005332D01*
X018397Y005323D02*
X018558Y005323D01*
X018558Y005315D02*
X018397Y005315D01*
X018397Y005306D02*
X018558Y005306D01*
X018558Y005298D02*
X018397Y005298D01*
X018397Y005289D02*
X018558Y005289D01*
X018558Y005281D02*
X018397Y005281D01*
X018397Y005272D02*
X018558Y005272D01*
X018558Y005264D02*
X018397Y005264D01*
X018397Y005255D02*
X018558Y005255D01*
X018558Y005247D02*
X018397Y005247D01*
X018397Y005238D02*
X018558Y005238D01*
X018558Y005229D02*
X018397Y005229D01*
X018397Y005221D02*
X018558Y005221D01*
X018558Y005212D02*
X018397Y005212D01*
X018397Y005204D02*
X018558Y005204D01*
X018558Y005195D02*
X018397Y005195D01*
X018397Y005187D02*
X018558Y005187D01*
X018558Y005178D02*
X018397Y005178D01*
X018397Y005170D02*
X018558Y005170D01*
X018558Y005161D02*
X018397Y005161D01*
X018397Y005153D02*
X018558Y005153D01*
X018558Y005144D02*
X018397Y005144D01*
X018397Y005135D02*
X018558Y005135D01*
X018558Y005127D02*
X018397Y005127D01*
X018397Y005118D02*
X018558Y005118D01*
X018558Y005110D02*
X018397Y005110D01*
X018397Y005101D02*
X018558Y005101D01*
X018558Y005093D02*
X018397Y005093D01*
X018397Y005084D02*
X018558Y005084D01*
X018558Y005076D02*
X018397Y005076D01*
X018397Y005067D02*
X018558Y005067D01*
X018558Y005059D02*
X018397Y005059D01*
X018397Y005050D02*
X018558Y005050D01*
X018558Y005041D02*
X018397Y005041D01*
X018397Y005033D02*
X018558Y005033D01*
X018558Y005024D02*
X018397Y005024D01*
X018560Y005648D02*
X018599Y005650D01*
X018639Y005649D01*
X018708Y005520D02*
X018974Y005520D01*
X018974Y005511D02*
X018736Y005511D01*
X018751Y005503D02*
X018974Y005503D01*
X018974Y005494D02*
X018762Y005494D01*
X018770Y005486D02*
X018974Y005486D01*
X018974Y005477D02*
X018777Y005477D01*
X018783Y005469D02*
X018974Y005469D01*
X018974Y005460D02*
X018788Y005460D01*
X018792Y005452D02*
X018974Y005452D01*
X018974Y005443D02*
X018796Y005443D01*
X018799Y005434D02*
X018974Y005434D01*
X018974Y005426D02*
X018801Y005426D01*
X018804Y005417D02*
X018974Y005417D01*
X018974Y005409D02*
X018805Y005409D01*
X018806Y005400D02*
X018974Y005400D01*
X018974Y005392D02*
X018807Y005392D01*
X018808Y005383D02*
X018974Y005383D01*
X018974Y005375D02*
X018808Y005375D01*
X018808Y005366D02*
X018974Y005366D01*
X018974Y005358D02*
X018808Y005358D01*
X018808Y005349D02*
X018974Y005349D01*
X018974Y005341D02*
X018808Y005341D01*
X018808Y005332D02*
X018974Y005332D01*
X018974Y005323D02*
X018808Y005323D01*
X018808Y005315D02*
X018974Y005315D01*
X018974Y005306D02*
X018808Y005306D01*
X018808Y005298D02*
X018974Y005298D01*
X018974Y005289D02*
X018808Y005289D01*
X018808Y005281D02*
X018974Y005281D01*
X018974Y005272D02*
X018808Y005272D01*
X018808Y005264D02*
X018974Y005264D01*
X018974Y005255D02*
X018808Y005255D01*
X018808Y005247D02*
X018974Y005247D01*
X018974Y005238D02*
X018808Y005238D01*
X018808Y005229D02*
X018974Y005229D01*
X018974Y005221D02*
X018808Y005221D01*
X018808Y005212D02*
X018974Y005212D01*
X018974Y005204D02*
X018808Y005204D01*
X018808Y005195D02*
X018974Y005195D01*
X018974Y005187D02*
X018808Y005187D01*
X018808Y005178D02*
X018974Y005178D01*
X018974Y005170D02*
X018808Y005170D01*
X018808Y005161D02*
X018974Y005161D01*
X018974Y005153D02*
X018808Y005153D01*
X018808Y005144D02*
X018974Y005144D01*
X018974Y005135D02*
X018808Y005135D01*
X018808Y005127D02*
X018974Y005127D01*
X018974Y005118D02*
X018808Y005118D01*
X018808Y005110D02*
X018974Y005110D01*
X018974Y005101D02*
X018808Y005101D01*
X018808Y005093D02*
X018974Y005093D01*
X018974Y005084D02*
X018808Y005084D01*
X018808Y005076D02*
X018974Y005076D01*
X018974Y005067D02*
X018808Y005067D01*
X018808Y005059D02*
X018974Y005059D01*
X018974Y005050D02*
X018808Y005050D01*
X018808Y005041D02*
X018974Y005041D01*
X018974Y005033D02*
X018808Y005033D01*
X018808Y005024D02*
X018974Y005024D01*
X018974Y005016D02*
X018808Y005016D01*
X019072Y005127D02*
X019362Y005127D01*
X019318Y005135D02*
X019072Y005135D01*
X019072Y005144D02*
X019299Y005144D01*
X019286Y005153D02*
X019072Y005153D01*
X019072Y005161D02*
X019277Y005161D01*
X019269Y005170D02*
X019072Y005170D01*
X019072Y005178D02*
X019264Y005178D01*
X019258Y005187D02*
X019072Y005187D01*
X019072Y005195D02*
X019255Y005195D01*
X019251Y005204D02*
X019072Y005204D01*
X019072Y005212D02*
X019249Y005212D01*
X019247Y005221D02*
X019072Y005221D01*
X019072Y005229D02*
X019246Y005229D01*
X019244Y005238D02*
X019072Y005238D01*
X019072Y005247D02*
X019243Y005247D01*
X019241Y005255D02*
X019072Y005255D01*
X019072Y005264D02*
X019240Y005264D01*
X019240Y005272D02*
X019072Y005272D01*
X019072Y005281D02*
X019239Y005281D01*
X019239Y005289D02*
X019072Y005289D01*
X019072Y005298D02*
X019238Y005298D01*
X019238Y005306D02*
X019072Y005306D01*
X019072Y005315D02*
X019238Y005315D01*
X019238Y005323D02*
X019072Y005323D01*
X019072Y005332D02*
X019238Y005332D01*
X019238Y005341D02*
X019072Y005341D01*
X019072Y005349D02*
X019238Y005349D01*
X019238Y005358D02*
X019072Y005358D01*
X019072Y005366D02*
X019238Y005366D01*
X019238Y005375D02*
X019072Y005375D01*
X019072Y005383D02*
X019238Y005383D01*
X019238Y005392D02*
X019072Y005392D01*
X019072Y005400D02*
X019238Y005400D01*
X019238Y005409D02*
X019072Y005409D01*
X019072Y005417D02*
X019238Y005417D01*
X019238Y005426D02*
X019072Y005426D01*
X019072Y005434D02*
X019238Y005434D01*
X019238Y005443D02*
X019072Y005443D01*
X019072Y005452D02*
X019238Y005452D01*
X019238Y005460D02*
X019072Y005460D01*
X019072Y005469D02*
X019238Y005469D01*
X019238Y005477D02*
X019072Y005477D01*
X019072Y005486D02*
X019238Y005486D01*
X019238Y005494D02*
X019072Y005494D01*
X019072Y005503D02*
X019238Y005503D01*
X019238Y005511D02*
X019072Y005511D01*
X019072Y005520D02*
X019238Y005520D01*
X019238Y005528D02*
X019072Y005528D01*
X019072Y005537D02*
X019238Y005537D01*
X019238Y005546D02*
X019072Y005546D01*
X019072Y005554D02*
X019238Y005554D01*
X019238Y005563D02*
X019072Y005563D01*
X019072Y005571D02*
X019238Y005571D01*
X019238Y005580D02*
X019072Y005580D01*
X019072Y005588D02*
X019238Y005588D01*
X019238Y005597D02*
X019072Y005597D01*
X019072Y005605D02*
X019238Y005605D01*
X019238Y005614D02*
X019072Y005614D01*
X019072Y005622D02*
X019238Y005622D01*
X019238Y005631D02*
X019072Y005631D01*
X018974Y005631D02*
X018815Y005631D01*
X018815Y005622D02*
X018974Y005622D01*
X018974Y005614D02*
X018815Y005614D01*
X018815Y005605D02*
X018974Y005605D01*
X018974Y005597D02*
X018815Y005597D01*
X018815Y005588D02*
X018974Y005588D01*
X018974Y005580D02*
X018815Y005580D01*
X018815Y005571D02*
X018974Y005571D01*
X018974Y005563D02*
X018815Y005563D01*
X018805Y005549D02*
X018808Y005547D01*
X018812Y005546D01*
X018804Y005549D02*
X018799Y005555D01*
X018653Y005524D02*
X018640Y005523D01*
X018627Y005520D01*
X018755Y005606D02*
X018773Y005590D01*
X018789Y005571D01*
X018754Y005606D02*
X018734Y005620D01*
X018711Y005632D01*
X018688Y005640D01*
X018663Y005646D01*
X018638Y005649D01*
X018627Y005520D02*
X018613Y005513D01*
X018600Y005505D01*
X018590Y005494D01*
X018581Y005482D01*
X018560Y005426D02*
X018397Y005426D01*
X018397Y005417D02*
X018559Y005417D01*
X018559Y005409D02*
X018397Y005409D01*
X018796Y005445D02*
X018802Y005425D01*
X018806Y005404D01*
X018808Y005383D01*
X018396Y005433D02*
X018398Y005463D01*
X018402Y005493D01*
X018409Y005522D01*
X018759Y005497D02*
X018774Y005482D01*
X018786Y005465D01*
X018795Y005446D01*
X018581Y005482D02*
X018571Y005462D01*
X018564Y005442D01*
X018559Y005421D01*
X018558Y005399D01*
X018696Y005522D02*
X018714Y005520D01*
X018730Y005515D01*
X018745Y005507D01*
X018759Y005497D01*
X018059Y005392D02*
X017894Y005392D01*
X017892Y005400D02*
X018057Y005400D01*
X018056Y005409D02*
X017889Y005409D01*
X017887Y005417D02*
X018054Y005417D01*
X018052Y005426D02*
X017885Y005426D01*
X017882Y005434D02*
X018051Y005434D01*
X018049Y005443D02*
X017878Y005443D01*
X017874Y005452D02*
X018046Y005452D01*
X018043Y005460D02*
X017870Y005460D01*
X017865Y005469D02*
X018039Y005469D01*
X018036Y005477D02*
X017861Y005477D01*
X017854Y005486D02*
X018032Y005486D01*
X018029Y005494D02*
X017848Y005494D01*
X017825Y005520D02*
X018014Y005520D01*
X018008Y005528D02*
X017810Y005528D01*
X017778Y005537D02*
X018003Y005537D01*
X018060Y005383D02*
X017895Y005383D01*
X017896Y005375D02*
X018060Y005375D01*
X018060Y005366D02*
X017897Y005366D01*
X017897Y005358D02*
X018061Y005358D01*
X018061Y005349D02*
X017898Y005349D01*
X017898Y005341D02*
X018061Y005341D01*
X018061Y005332D02*
X017898Y005332D01*
X017897Y005323D02*
X018062Y005323D01*
X018062Y005315D02*
X017896Y005315D01*
X017896Y005306D02*
X018062Y005306D01*
X018062Y005298D02*
X017895Y005298D01*
X017891Y005272D02*
X018060Y005272D01*
X018059Y005264D02*
X017889Y005264D01*
X017888Y005255D02*
X018058Y005255D01*
X018057Y005247D02*
X017886Y005247D01*
X017884Y005238D02*
X018056Y005238D01*
X018048Y005212D02*
X017876Y005212D01*
X017872Y005204D02*
X018046Y005204D01*
X018043Y005195D02*
X017869Y005195D01*
X017863Y005187D02*
X018039Y005187D01*
X018035Y005178D02*
X017857Y005178D01*
X017850Y005170D02*
X018031Y005170D01*
X018027Y005161D02*
X017841Y005161D01*
X017831Y005153D02*
X018023Y005153D01*
X018018Y005144D02*
X017818Y005144D01*
X017800Y005135D02*
X018012Y005135D01*
X018006Y005127D02*
X017769Y005127D01*
X017705Y005127D02*
X017489Y005127D01*
X017484Y005135D02*
X017679Y005135D01*
X017662Y005144D02*
X017478Y005144D01*
X017473Y005153D02*
X017651Y005153D01*
X017641Y005161D02*
X017468Y005161D01*
X017464Y005170D02*
X017634Y005170D01*
X017627Y005178D02*
X017461Y005178D01*
X017458Y005187D02*
X017622Y005187D01*
X017618Y005195D02*
X017454Y005195D01*
X017451Y005204D02*
X017614Y005204D01*
X017611Y005212D02*
X017448Y005212D01*
X017445Y005221D02*
X017608Y005221D01*
X017605Y005229D02*
X017444Y005229D01*
X017443Y005238D02*
X017604Y005238D01*
X017603Y005247D02*
X017442Y005247D01*
X017375Y005255D02*
X017220Y005255D01*
X017221Y005257D02*
X017206Y005211D01*
X017184Y005169D01*
X017117Y005128D01*
X017046Y005119D01*
X016975Y005143D01*
X016931Y005183D01*
X016909Y005232D01*
X016894Y005294D01*
X016894Y005351D01*
X016904Y005428D01*
X016934Y005493D01*
X016968Y005526D01*
X017007Y005547D01*
X017055Y005551D01*
X017059Y005551D01*
X017057Y005668D01*
X016978Y005658D01*
X016914Y005636D01*
X016836Y005582D01*
X016793Y005532D01*
X016752Y005440D01*
X016741Y005354D01*
X016751Y005271D01*
X016778Y005174D01*
X016810Y005123D01*
X016857Y005078D01*
X016901Y005047D01*
X016974Y005022D01*
X017073Y005012D01*
X017191Y005028D01*
X017303Y005098D01*
X017366Y005196D01*
X017390Y005349D01*
X017226Y005349D01*
X017227Y005341D02*
X017388Y005341D01*
X017390Y005349D02*
X017358Y005489D01*
X017274Y005596D01*
X017141Y005662D01*
X017083Y005669D01*
X017081Y005669D01*
X017076Y005667D01*
X017076Y005552D01*
X017120Y005546D01*
X017313Y005546D01*
X017306Y005554D02*
X017076Y005554D01*
X017076Y005563D02*
X017300Y005563D01*
X017293Y005571D02*
X017076Y005571D01*
X017076Y005580D02*
X017286Y005580D01*
X017279Y005588D02*
X017076Y005588D01*
X017076Y005597D02*
X017271Y005597D01*
X017254Y005605D02*
X017076Y005605D01*
X017076Y005614D02*
X017237Y005614D01*
X017220Y005622D02*
X017076Y005622D01*
X017076Y005631D02*
X017203Y005631D01*
X017185Y005640D02*
X017076Y005640D01*
X017076Y005648D02*
X017168Y005648D01*
X017151Y005657D02*
X017076Y005657D01*
X017076Y005665D02*
X017112Y005665D01*
X017071Y005672D02*
X017071Y005545D01*
X017080Y005545D01*
X017063Y005547D02*
X017063Y005672D01*
X017057Y005672D01*
X017057Y005665D02*
X017037Y005665D01*
X017057Y005657D02*
X016975Y005657D01*
X016950Y005648D02*
X017057Y005648D01*
X017057Y005640D02*
X016925Y005640D01*
X016907Y005631D02*
X017057Y005631D01*
X017057Y005622D02*
X016895Y005622D01*
X016882Y005614D02*
X017058Y005614D01*
X017058Y005605D02*
X016870Y005605D01*
X016858Y005597D02*
X017058Y005597D01*
X017058Y005588D02*
X016845Y005588D01*
X016834Y005580D02*
X017058Y005580D01*
X017058Y005571D02*
X016827Y005571D01*
X016819Y005563D02*
X017058Y005563D01*
X017059Y005554D02*
X016812Y005554D01*
X016805Y005546D02*
X017005Y005546D01*
X016989Y005537D02*
X016797Y005537D01*
X016791Y005528D02*
X016973Y005528D01*
X016962Y005520D02*
X016787Y005520D01*
X016784Y005511D02*
X016953Y005511D01*
X016944Y005503D02*
X016780Y005503D01*
X016776Y005494D02*
X016935Y005494D01*
X016930Y005486D02*
X016772Y005486D01*
X016768Y005477D02*
X016926Y005477D01*
X016923Y005469D02*
X016765Y005469D01*
X016761Y005460D02*
X016919Y005460D01*
X016915Y005452D02*
X016757Y005452D01*
X016753Y005443D02*
X016911Y005443D01*
X016907Y005434D02*
X016751Y005434D01*
X016750Y005426D02*
X016903Y005426D01*
X016902Y005417D02*
X016749Y005417D01*
X016748Y005409D02*
X016901Y005409D01*
X016900Y005400D02*
X016747Y005400D01*
X016746Y005392D02*
X016899Y005392D01*
X016898Y005383D02*
X016744Y005383D01*
X016743Y005375D02*
X016897Y005375D01*
X016896Y005366D02*
X016742Y005366D01*
X016741Y005358D02*
X016895Y005358D01*
X016894Y005349D02*
X016741Y005349D01*
X016742Y005341D02*
X016894Y005341D01*
X016894Y005332D02*
X016743Y005332D01*
X016744Y005323D02*
X016894Y005323D01*
X016894Y005315D02*
X016745Y005315D01*
X016746Y005306D02*
X016894Y005306D01*
X016894Y005298D02*
X016747Y005298D01*
X016748Y005289D02*
X016895Y005289D01*
X016897Y005281D02*
X016749Y005281D01*
X016750Y005272D02*
X016899Y005272D01*
X016901Y005264D02*
X016753Y005264D01*
X016755Y005255D02*
X016903Y005255D01*
X016905Y005247D02*
X016757Y005247D01*
X016760Y005238D02*
X016907Y005238D01*
X016910Y005229D02*
X016762Y005229D01*
X016764Y005221D02*
X016914Y005221D01*
X016917Y005212D02*
X016767Y005212D01*
X016769Y005204D02*
X016921Y005204D01*
X016925Y005195D02*
X016772Y005195D01*
X016774Y005187D02*
X016929Y005187D01*
X016936Y005178D02*
X016776Y005178D01*
X016780Y005170D02*
X016945Y005170D01*
X016954Y005161D02*
X016786Y005161D01*
X016791Y005153D02*
X016964Y005153D01*
X016973Y005144D02*
X016796Y005144D01*
X016802Y005135D02*
X016996Y005135D01*
X017021Y005127D02*
X016807Y005127D01*
X016814Y005118D02*
X017316Y005118D01*
X017310Y005110D02*
X016823Y005110D01*
X016832Y005101D02*
X017305Y005101D01*
X017295Y005093D02*
X016841Y005093D01*
X016850Y005084D02*
X017281Y005084D01*
X017267Y005076D02*
X016860Y005076D01*
X016872Y005067D02*
X017254Y005067D01*
X017240Y005059D02*
X016884Y005059D01*
X016896Y005050D02*
X017226Y005050D01*
X017213Y005041D02*
X016916Y005041D01*
X016941Y005033D02*
X017199Y005033D01*
X017167Y005024D02*
X016966Y005024D01*
X017031Y005016D02*
X017103Y005016D01*
X017495Y005118D02*
X018001Y005118D01*
X017994Y005110D02*
X017501Y005110D01*
X017509Y005101D02*
X017986Y005101D01*
X017978Y005093D02*
X017518Y005093D01*
X017526Y005084D02*
X017970Y005084D01*
X017960Y005076D02*
X017535Y005076D01*
X017544Y005067D02*
X017949Y005067D01*
X017931Y005053D02*
X017892Y005033D01*
X017867Y005024D02*
X017620Y005024D01*
X017644Y005016D02*
X017834Y005016D01*
X017784Y005007D02*
X017680Y005007D01*
X017365Y005195D02*
X017198Y005195D01*
X017193Y005187D02*
X017360Y005187D01*
X017354Y005178D02*
X017189Y005178D01*
X017184Y005170D02*
X017349Y005170D01*
X017343Y005161D02*
X017171Y005161D01*
X017157Y005153D02*
X017338Y005153D01*
X017332Y005144D02*
X017143Y005144D01*
X017129Y005135D02*
X017327Y005135D01*
X017321Y005127D02*
X017111Y005127D01*
X017202Y005204D02*
X017367Y005204D01*
X017368Y005212D02*
X017206Y005212D01*
X017209Y005221D02*
X017370Y005221D01*
X017371Y005229D02*
X017212Y005229D01*
X017215Y005238D02*
X017372Y005238D01*
X017374Y005247D02*
X017217Y005247D01*
X017221Y005257D02*
X017228Y005307D01*
X017226Y005381D01*
X017215Y005440D01*
X017199Y005476D01*
X017167Y005520D01*
X017120Y005546D01*
X017135Y005537D02*
X017320Y005537D01*
X017326Y005528D02*
X017151Y005528D01*
X017166Y005520D02*
X017333Y005520D01*
X017340Y005511D02*
X017173Y005511D01*
X017179Y005503D02*
X017347Y005503D01*
X017353Y005494D02*
X017185Y005494D01*
X017191Y005486D02*
X017358Y005486D01*
X017360Y005477D02*
X017198Y005477D01*
X017202Y005469D02*
X017362Y005469D01*
X017364Y005460D02*
X017206Y005460D01*
X017209Y005452D02*
X017366Y005452D01*
X017368Y005443D02*
X017213Y005443D01*
X017216Y005434D02*
X017370Y005434D01*
X017372Y005426D02*
X017217Y005426D01*
X017219Y005417D02*
X017374Y005417D01*
X017376Y005409D02*
X017220Y005409D01*
X017222Y005400D02*
X017378Y005400D01*
X017380Y005392D02*
X017224Y005392D01*
X017225Y005383D02*
X017382Y005383D01*
X017384Y005375D02*
X017226Y005375D01*
X017226Y005366D02*
X017386Y005366D01*
X017388Y005358D02*
X017226Y005358D01*
X016768Y005180D02*
X016756Y005214D01*
X016747Y005248D01*
X016740Y005283D01*
X016736Y005319D01*
X016734Y005354D01*
X016669Y005358D02*
X016499Y005358D01*
X016499Y005366D02*
X016669Y005366D01*
X016669Y005375D02*
X016499Y005375D01*
X016499Y005383D02*
X016669Y005383D01*
X016669Y005392D02*
X016499Y005392D01*
X016499Y005400D02*
X016669Y005400D01*
X016669Y005409D02*
X016499Y005409D01*
X016499Y005405D02*
X016499Y005019D01*
X016669Y005019D01*
X016669Y005651D01*
X016512Y005651D01*
X016512Y005564D01*
X016503Y005566D01*
X016490Y005583D01*
X016460Y005614D01*
X016430Y005638D01*
X016395Y005654D01*
X016352Y005664D01*
X016298Y005669D01*
X016260Y005666D01*
X016224Y005656D01*
X016193Y005640D01*
X016165Y005618D01*
X016142Y005592D01*
X016125Y005562D01*
X016123Y005562D01*
X016121Y005563D01*
X016118Y005567D01*
X016100Y005586D01*
X016069Y005616D01*
X016034Y005641D01*
X016002Y005656D01*
X015968Y005665D01*
X015933Y005668D01*
X015882Y005663D01*
X015833Y005654D01*
X015799Y005641D01*
X015768Y005621D01*
X015743Y005595D01*
X015720Y005558D01*
X015704Y005517D01*
X015698Y005474D01*
X015698Y005018D01*
X015865Y005018D01*
X015865Y005423D01*
X015869Y005458D01*
X015882Y005492D01*
X015893Y005508D01*
X015907Y005521D01*
X015924Y005530D01*
X015943Y005536D01*
X015979Y005538D01*
X016016Y005535D01*
X016033Y005529D01*
X016048Y005521D01*
X016062Y005509D01*
X016077Y005487D01*
X016089Y005463D01*
X016095Y005437D01*
X016098Y005393D01*
X016098Y005018D01*
X016268Y005018D01*
X016268Y005434D01*
X016271Y005461D01*
X016280Y005486D01*
X016078Y005486D01*
X016082Y005477D02*
X016277Y005477D01*
X016274Y005469D02*
X016086Y005469D01*
X016089Y005460D02*
X016271Y005460D01*
X016270Y005452D02*
X016091Y005452D01*
X016093Y005443D02*
X016269Y005443D01*
X016268Y005434D02*
X016095Y005434D01*
X016095Y005426D02*
X016268Y005426D01*
X016268Y005417D02*
X016096Y005417D01*
X016097Y005409D02*
X016268Y005409D01*
X016268Y005400D02*
X016097Y005400D01*
X016098Y005392D02*
X016268Y005392D01*
X016268Y005383D02*
X016098Y005383D01*
X016098Y005375D02*
X016268Y005375D01*
X016268Y005366D02*
X016098Y005366D01*
X016098Y005358D02*
X016268Y005358D01*
X016268Y005349D02*
X016098Y005349D01*
X016098Y005341D02*
X016268Y005341D01*
X016268Y005332D02*
X016098Y005332D01*
X016098Y005323D02*
X016268Y005323D01*
X016268Y005315D02*
X016098Y005315D01*
X016098Y005306D02*
X016268Y005306D01*
X016268Y005298D02*
X016098Y005298D01*
X016098Y005289D02*
X016268Y005289D01*
X016268Y005281D02*
X016098Y005281D01*
X016098Y005272D02*
X016268Y005272D01*
X016268Y005264D02*
X016098Y005264D01*
X016098Y005255D02*
X016268Y005255D01*
X016268Y005247D02*
X016098Y005247D01*
X016098Y005238D02*
X016268Y005238D01*
X016268Y005229D02*
X016098Y005229D01*
X016098Y005221D02*
X016268Y005221D01*
X016268Y005212D02*
X016098Y005212D01*
X016098Y005204D02*
X016268Y005204D01*
X016268Y005195D02*
X016098Y005195D01*
X016098Y005187D02*
X016268Y005187D01*
X016268Y005178D02*
X016098Y005178D01*
X016098Y005170D02*
X016268Y005170D01*
X016268Y005161D02*
X016098Y005161D01*
X016098Y005153D02*
X016268Y005153D01*
X016268Y005144D02*
X016098Y005144D01*
X016098Y005135D02*
X016268Y005135D01*
X016268Y005127D02*
X016098Y005127D01*
X016098Y005118D02*
X016268Y005118D01*
X016268Y005110D02*
X016098Y005110D01*
X016098Y005101D02*
X016268Y005101D01*
X016268Y005093D02*
X016098Y005093D01*
X016098Y005084D02*
X016268Y005084D01*
X016268Y005076D02*
X016098Y005076D01*
X016098Y005067D02*
X016268Y005067D01*
X016268Y005059D02*
X016098Y005059D01*
X016098Y005050D02*
X016268Y005050D01*
X016268Y005041D02*
X016098Y005041D01*
X016098Y005033D02*
X016268Y005033D01*
X016268Y005024D02*
X016098Y005024D01*
X015865Y005024D02*
X015698Y005024D01*
X015698Y005033D02*
X015865Y005033D01*
X015865Y005041D02*
X015698Y005041D01*
X015698Y005050D02*
X015865Y005050D01*
X015865Y005059D02*
X015698Y005059D01*
X015698Y005067D02*
X015865Y005067D01*
X015865Y005076D02*
X015698Y005076D01*
X015698Y005084D02*
X015865Y005084D01*
X015865Y005093D02*
X015698Y005093D01*
X015698Y005101D02*
X015865Y005101D01*
X015865Y005110D02*
X015698Y005110D01*
X015698Y005118D02*
X015865Y005118D01*
X015865Y005127D02*
X015698Y005127D01*
X015698Y005135D02*
X015865Y005135D01*
X015865Y005144D02*
X015698Y005144D01*
X015698Y005153D02*
X015865Y005153D01*
X015865Y005161D02*
X015698Y005161D01*
X015698Y005170D02*
X015865Y005170D01*
X015865Y005178D02*
X015698Y005178D01*
X015698Y005187D02*
X015865Y005187D01*
X015865Y005195D02*
X015698Y005195D01*
X015698Y005204D02*
X015865Y005204D01*
X015865Y005212D02*
X015698Y005212D01*
X015698Y005221D02*
X015865Y005221D01*
X015865Y005229D02*
X015698Y005229D01*
X015698Y005238D02*
X015865Y005238D01*
X015865Y005247D02*
X015698Y005247D01*
X015698Y005255D02*
X015865Y005255D01*
X015865Y005264D02*
X015698Y005264D01*
X015698Y005272D02*
X015865Y005272D01*
X015865Y005281D02*
X015698Y005281D01*
X015698Y005289D02*
X015865Y005289D01*
X015865Y005298D02*
X015698Y005298D01*
X015698Y005306D02*
X015865Y005306D01*
X015865Y005315D02*
X015698Y005315D01*
X015698Y005323D02*
X015865Y005323D01*
X015865Y005332D02*
X015698Y005332D01*
X015698Y005341D02*
X015865Y005341D01*
X015865Y005349D02*
X015698Y005349D01*
X015698Y005358D02*
X015865Y005358D01*
X015865Y005366D02*
X015698Y005366D01*
X015698Y005375D02*
X015865Y005375D01*
X015865Y005383D02*
X015698Y005383D01*
X015698Y005392D02*
X015865Y005392D01*
X015865Y005400D02*
X015698Y005400D01*
X015698Y005409D02*
X015865Y005409D01*
X015865Y005417D02*
X015698Y005417D01*
X015698Y005426D02*
X015865Y005426D01*
X015866Y005434D02*
X015698Y005434D01*
X015698Y005443D02*
X015867Y005443D01*
X015868Y005452D02*
X015698Y005452D01*
X015698Y005460D02*
X015870Y005460D01*
X015873Y005469D02*
X015698Y005469D01*
X015698Y005477D02*
X015876Y005477D01*
X015879Y005486D02*
X015700Y005486D01*
X015701Y005494D02*
X015883Y005494D01*
X015889Y005503D02*
X015702Y005503D01*
X015703Y005511D02*
X015897Y005511D01*
X015906Y005520D02*
X015705Y005520D01*
X015709Y005528D02*
X015921Y005528D01*
X015960Y005537D02*
X015712Y005537D01*
X015715Y005546D02*
X016669Y005546D01*
X016669Y005554D02*
X015718Y005554D01*
X015723Y005563D02*
X016122Y005563D01*
X016125Y005563D02*
X016669Y005563D01*
X016669Y005571D02*
X016512Y005571D01*
X016512Y005580D02*
X016669Y005580D01*
X016669Y005588D02*
X016512Y005588D01*
X016512Y005597D02*
X016669Y005597D01*
X016669Y005605D02*
X016512Y005605D01*
X016512Y005614D02*
X016669Y005614D01*
X016669Y005622D02*
X016512Y005622D01*
X016512Y005631D02*
X016669Y005631D01*
X016669Y005640D02*
X016512Y005640D01*
X016512Y005648D02*
X016669Y005648D01*
X016669Y005537D02*
X016394Y005537D01*
X016400Y005537D02*
X016418Y005533D01*
X016435Y005526D01*
X016450Y005515D01*
X016483Y005477D01*
X016494Y005454D01*
X016500Y005430D01*
X016499Y005405D01*
X016499Y005417D02*
X016669Y005417D01*
X016669Y005426D02*
X016500Y005426D01*
X016499Y005434D02*
X016669Y005434D01*
X016669Y005443D02*
X016497Y005443D01*
X016495Y005452D02*
X016669Y005452D01*
X016669Y005460D02*
X016491Y005460D01*
X016487Y005469D02*
X016669Y005469D01*
X016669Y005477D02*
X016482Y005477D01*
X016475Y005486D02*
X016669Y005486D01*
X016669Y005494D02*
X016467Y005494D01*
X016460Y005503D02*
X016669Y005503D01*
X016669Y005511D02*
X016453Y005511D01*
X016443Y005520D02*
X016669Y005520D01*
X016669Y005528D02*
X016429Y005528D01*
X016400Y005537D02*
X016366Y005539D01*
X016346Y005537D01*
X016327Y005532D01*
X016310Y005522D01*
X016296Y005509D01*
X016280Y005486D01*
X016286Y005494D02*
X016072Y005494D01*
X016066Y005503D02*
X016292Y005503D01*
X016299Y005511D02*
X016059Y005511D01*
X016049Y005520D02*
X016308Y005520D01*
X016321Y005528D02*
X016034Y005528D01*
X015993Y005537D02*
X016345Y005537D01*
X016382Y005657D02*
X016227Y005657D01*
X016209Y005648D02*
X016407Y005648D01*
X016426Y005640D02*
X016192Y005640D01*
X016181Y005631D02*
X016438Y005631D01*
X016449Y005622D02*
X016170Y005622D01*
X016161Y005614D02*
X016459Y005614D01*
X016468Y005605D02*
X016154Y005605D01*
X016146Y005597D02*
X016476Y005597D01*
X016484Y005588D02*
X016140Y005588D01*
X016135Y005580D02*
X016492Y005580D01*
X016499Y005571D02*
X016130Y005571D01*
X016113Y005571D02*
X015728Y005571D01*
X015733Y005580D02*
X016105Y005580D01*
X016097Y005588D02*
X015739Y005588D01*
X015745Y005597D02*
X016088Y005597D01*
X016079Y005605D02*
X015753Y005605D01*
X015761Y005614D02*
X016070Y005614D01*
X016059Y005622D02*
X015771Y005622D01*
X015784Y005631D02*
X016047Y005631D01*
X016035Y005640D02*
X015797Y005640D01*
X015818Y005648D02*
X016019Y005648D01*
X016000Y005657D02*
X015848Y005657D01*
X015903Y005665D02*
X015968Y005665D01*
X016257Y005665D02*
X016336Y005665D01*
X016499Y005349D02*
X016669Y005349D01*
X016669Y005341D02*
X016499Y005341D01*
X016499Y005332D02*
X016669Y005332D01*
X016669Y005323D02*
X016499Y005323D01*
X016499Y005315D02*
X016669Y005315D01*
X016669Y005306D02*
X016499Y005306D01*
X016499Y005298D02*
X016669Y005298D01*
X016669Y005289D02*
X016499Y005289D01*
X016499Y005281D02*
X016669Y005281D01*
X016669Y005272D02*
X016499Y005272D01*
X016499Y005264D02*
X016669Y005264D01*
X016669Y005255D02*
X016499Y005255D01*
X016499Y005247D02*
X016669Y005247D01*
X016669Y005238D02*
X016499Y005238D01*
X016499Y005229D02*
X016669Y005229D01*
X016669Y005221D02*
X016499Y005221D01*
X016499Y005212D02*
X016669Y005212D01*
X016669Y005204D02*
X016499Y005204D01*
X016499Y005195D02*
X016669Y005195D01*
X016669Y005187D02*
X016499Y005187D01*
X016499Y005178D02*
X016669Y005178D01*
X016669Y005170D02*
X016499Y005170D01*
X016499Y005161D02*
X016669Y005161D01*
X016669Y005153D02*
X016499Y005153D01*
X016499Y005144D02*
X016669Y005144D01*
X016669Y005135D02*
X016499Y005135D01*
X016499Y005127D02*
X016669Y005127D01*
X016669Y005118D02*
X016499Y005118D01*
X016499Y005110D02*
X016669Y005110D01*
X016669Y005101D02*
X016499Y005101D01*
X016499Y005093D02*
X016669Y005093D01*
X016669Y005084D02*
X016499Y005084D01*
X016499Y005076D02*
X016669Y005076D01*
X016669Y005067D02*
X016499Y005067D01*
X016499Y005059D02*
X016669Y005059D01*
X016669Y005050D02*
X016499Y005050D01*
X016499Y005041D02*
X016669Y005041D01*
X016669Y005033D02*
X016499Y005033D01*
X016499Y005024D02*
X016669Y005024D01*
X017385Y005259D02*
X017390Y005297D01*
X017391Y005335D01*
X017389Y005373D01*
X017384Y005410D01*
X017387Y005332D02*
X017227Y005332D01*
X017227Y005323D02*
X017386Y005323D01*
X017384Y005315D02*
X017227Y005315D01*
X017228Y005306D02*
X017383Y005306D01*
X017382Y005298D02*
X017226Y005298D01*
X017225Y005289D02*
X017380Y005289D01*
X017379Y005281D02*
X017224Y005281D01*
X017223Y005272D02*
X017378Y005272D01*
X017376Y005264D02*
X017222Y005264D01*
X017342Y005142D02*
X017328Y005120D01*
X017310Y005101D01*
X017291Y005083D01*
X016899Y005320D02*
X016900Y005353D01*
X016904Y005386D01*
X016910Y005419D01*
X017178Y005497D02*
X017191Y005477D01*
X017203Y005455D01*
X017211Y005433D01*
X017217Y005409D01*
X017220Y005385D01*
X016899Y005320D02*
X016901Y005288D01*
X016907Y005257D01*
X016917Y005226D01*
X016930Y005198D01*
X016769Y005181D02*
X016781Y005154D01*
X016796Y005129D01*
X016813Y005106D01*
X016833Y005085D01*
X016855Y005067D01*
X016879Y005050D01*
X016905Y005037D01*
X016932Y005026D01*
X016987Y005144D02*
X016970Y005154D01*
X016954Y005167D01*
X016941Y005182D01*
X016930Y005198D01*
X017193Y005198D02*
X017203Y005219D01*
X017211Y005241D01*
X017217Y005264D01*
X017220Y005288D01*
X017193Y005197D02*
X017182Y005181D01*
X017169Y005166D01*
X017154Y005153D01*
X017137Y005143D01*
X017119Y005135D01*
X017097Y005129D01*
X017075Y005126D01*
X017052Y005126D01*
X017030Y005129D01*
X017008Y005135D01*
X016987Y005143D01*
X017342Y005142D02*
X017357Y005170D01*
X017369Y005199D01*
X017378Y005229D01*
X017385Y005259D01*
X016959Y005511D02*
X016942Y005490D01*
X016928Y005468D01*
X016917Y005444D01*
X016909Y005419D01*
X016959Y005511D02*
X016972Y005521D01*
X016985Y005530D01*
X017000Y005537D01*
X016932Y005027D02*
X016967Y005017D01*
X017002Y005010D01*
X017038Y005006D01*
X017074Y005005D01*
X016969Y005661D02*
X016998Y005667D01*
X017027Y005671D01*
X017057Y005672D01*
X017654Y005657D02*
X017833Y005657D01*
X017795Y005665D02*
X017708Y005665D01*
X017178Y005497D02*
X017165Y005511D01*
X017151Y005523D01*
X017135Y005532D01*
X017117Y005539D01*
X017099Y005544D01*
X017080Y005545D01*
X016968Y005661D02*
X016941Y005653D01*
X016914Y005642D01*
X016889Y005629D01*
X016864Y005613D01*
X016842Y005595D01*
X016843Y005595D02*
X016819Y005571D01*
X016797Y005545D01*
X016778Y005517D01*
X016763Y005487D01*
X016750Y005455D01*
X016742Y005422D01*
X016737Y005389D01*
X016735Y005355D01*
X017220Y005385D02*
X017222Y005352D01*
X017222Y005320D01*
X017219Y005288D01*
X017384Y005410D02*
X017377Y005443D01*
X017366Y005474D01*
X017351Y005504D01*
X017334Y005533D01*
X017313Y005559D01*
X017290Y005583D01*
X017265Y005604D01*
X017237Y005623D01*
X017291Y005083D02*
X017264Y005063D01*
X017235Y005046D01*
X017205Y005031D01*
X017173Y005020D01*
X017141Y005011D01*
X017108Y005006D01*
X017074Y005004D01*
X017237Y005623D02*
X017206Y005639D01*
X017174Y005652D01*
X017140Y005662D01*
X017106Y005669D01*
X017071Y005672D01*
X017063Y005547D02*
X017042Y005546D01*
X017021Y005543D01*
X017001Y005537D01*
X019827Y005084D02*
X019991Y005084D01*
X019991Y005076D02*
X019827Y005076D01*
X019827Y005067D02*
X019991Y005067D01*
X019991Y005059D02*
X019827Y005059D01*
X019827Y005050D02*
X019991Y005050D01*
X019991Y005041D02*
X019827Y005041D01*
X019827Y005033D02*
X019991Y005033D01*
X019991Y005024D02*
X019827Y005024D01*
X019827Y005016D02*
X019991Y005016D01*
X018800Y005556D02*
X018789Y005571D01*
X018697Y005522D02*
X018653Y005524D01*
D16*
X018203Y005110D03*
M02*
