G75*
G70*
%OFA0B0*%
%FSLAX24Y24*%
%IPPOS*%
%LPD*%
%AMOC8*
5,1,8,0,0,1.08239X$1,22.5*
%
%ADD10C,0.0434*%
%ADD11C,0.0820*%
%ADD12R,0.0820X0.0820*%
%ADD13C,0.1390*%
%ADD14R,0.1261X0.0434*%
%ADD15C,0.1380*%
%ADD16C,0.0415*%
D10*
X041843Y001977D03*
X041843Y003709D03*
D11*
X036843Y003843D03*
X035843Y002843D03*
X034843Y002843D03*
X033843Y002843D03*
X032843Y002843D03*
X031843Y002843D03*
X031843Y000843D03*
X032843Y000843D03*
X033843Y000843D03*
X034843Y000843D03*
X035843Y000843D03*
X036843Y000843D03*
X037843Y000843D03*
X038843Y000843D03*
X039843Y000843D03*
X030843Y000843D03*
X029843Y000843D03*
X028843Y000843D03*
X027843Y000843D03*
X026843Y000843D03*
X025843Y000843D03*
X024843Y000843D03*
X023843Y000843D03*
X022843Y000843D03*
X021843Y000843D03*
X020843Y000843D03*
X019843Y000843D03*
X018843Y000843D03*
X017843Y000843D03*
X016843Y000843D03*
X015843Y000843D03*
X014843Y000843D03*
X013843Y000843D03*
X012843Y000843D03*
X011843Y000843D03*
X010843Y000843D03*
X009843Y000843D03*
X008843Y000843D03*
X007843Y000843D03*
X006843Y000843D03*
X005843Y000843D03*
X004843Y000843D03*
X003843Y000843D03*
X002843Y000843D03*
X001843Y000843D03*
X000843Y001843D03*
X000843Y002843D03*
X000843Y003843D03*
X000843Y004843D03*
X000843Y005843D03*
X000843Y006843D03*
X000843Y007843D03*
X000843Y009843D03*
X001843Y009843D03*
X002843Y009843D03*
X003843Y009843D03*
X004843Y009843D03*
X005843Y009843D03*
X006843Y009843D03*
X007843Y009843D03*
X008843Y009843D03*
X009843Y009843D03*
X010843Y009843D03*
X011843Y009843D03*
X012843Y009843D03*
X013843Y009843D03*
X014843Y009843D03*
X015843Y009843D03*
X016843Y009843D03*
X017843Y009843D03*
X018843Y009843D03*
X019843Y009843D03*
X020843Y009843D03*
X021843Y009843D03*
X022843Y009843D03*
X023843Y009843D03*
X024843Y009843D03*
X025843Y009843D03*
X026843Y009843D03*
X027843Y009843D03*
X028843Y009843D03*
X029843Y009843D03*
X030843Y009843D03*
X031843Y009843D03*
X032843Y009843D03*
X033843Y009843D03*
X034843Y009843D03*
X035843Y009843D03*
X036843Y009843D03*
X037843Y009843D03*
X038843Y009843D03*
X038843Y008343D03*
X036843Y007843D03*
X038843Y007343D03*
X036843Y006843D03*
X036843Y005843D03*
X036843Y004843D03*
D12*
X000843Y000843D03*
X000843Y008843D03*
X039843Y009843D03*
D13*
X042693Y007928D03*
X042693Y002758D03*
D14*
X041334Y004162D03*
X041334Y004949D03*
X041334Y005736D03*
X041334Y006524D03*
D15*
X038843Y005343D03*
X008843Y005343D03*
D16*
X033302Y006943D03*
X034483Y006943D03*
M02*
