%
M48
M72
T01C0.0150
T02C0.0335
T03C0.0354
T04C0.0400
T05C0.0910
T06C0.1300
%
T01
X2343Y3643
X2843Y3643
X3393Y3643
X3943Y3643
X4443Y3643
X2443Y4343
X6593Y5243
X7293Y5243
X7643Y5593
X6943Y5593
X5743Y5993
X4843Y5443
X2993Y6043
X2643Y7043
X3843Y7393
X6093Y7043
X6643Y7393
X14393Y7193
X14893Y7193
X15393Y7193
X16543Y7593
X17443Y7243
X18143Y7243
X19293Y7393
X20443Y7393
X21243Y7393
X21743Y7843
X22493Y7893
X20493Y6943
X19893Y6793
X19293Y6943
X18493Y6843
X17793Y6893
X18843Y6443
X19293Y6493
X19793Y6343
X20493Y6493
X18643Y5993
X20243Y5693
X20743Y5693
X21293Y5743
X23143Y5843
X23593Y5843
X22993Y4993
X22943Y4543
X22893Y4093
X21393Y3743
X20693Y3743
X20243Y3943
X19543Y3793
X18443Y3943
X17668Y3893
X17343Y4293
X18093Y4893
X19043Y4893
X20043Y5093
X20443Y4843
X20893Y4893
X21193Y4543
X20743Y4443
X19643Y4343
X18443Y3443
X17493Y3393
X17093Y3043
X15743Y2843
X16193Y2643
X16743Y2643
X19543Y3293
X21643Y3043
X22393Y3143
X22893Y3243
X23343Y3493
X26043Y3943
X26843Y4443
X27343Y4843
X28743Y5193
X31843Y5543
X32393Y5843
X35343Y5493
X34643Y5043
X39193Y3893
X40193Y3893
X38993Y3343
X38493Y3193
X39343Y1943
X31343Y3293
X31093Y2343
X23393Y2343
X18693Y5293
X19043Y5643
X15393Y5543
X14593Y5543
X18543Y8593
X18543Y9043
X28143Y8193
X32793Y7543
T02
X33302Y6943
X34483Y6943
T03
X41843Y3709
X41843Y1977
T04
X843Y843
X1843Y843
X2843Y843
X3843Y843
X4843Y843
X5843Y843
X6843Y843
X7843Y843
X8843Y843
X9843Y843
X10843Y843
X11843Y843
X12843Y843
X13843Y843
X14843Y843
X15843Y843
X16843Y843
X17843Y843
X18843Y843
X19843Y843
X20843Y843
X21843Y843
X22843Y843
X23843Y843
X24843Y843
X25843Y843
X26843Y843
X27843Y843
X28843Y843
X29843Y843
X30843Y843
X31843Y843
X32843Y843
X33843Y843
X34843Y843
X35843Y843
X36843Y843
X37843Y843
X38843Y843
X39843Y843
X35843Y2843
X34843Y2843
X33843Y2843
X32843Y2843
X31843Y2843
X36843Y3843
X36843Y4843
X36843Y5843
X36843Y6843
X38843Y7343
X36843Y7843
X38843Y8343
X38843Y9843
X37843Y9843
X36843Y9843
X35843Y9843
X34843Y9843
X33843Y9843
X32843Y9843
X31843Y9843
X30843Y9843
X29843Y9843
X28843Y9843
X27843Y9843
X26843Y9843
X25843Y9843
X24843Y9843
X23843Y9843
X22843Y9843
X21843Y9843
X20843Y9843
X19843Y9843
X18843Y9843
X17843Y9843
X16843Y9843
X15843Y9843
X14843Y9843
X13843Y9843
X12843Y9843
X11843Y9843
X10843Y9843
X9843Y9843
X8843Y9843
X7843Y9843
X6843Y9843
X5843Y9843
X4843Y9843
X3843Y9843
X2843Y9843
X1843Y9843
X843Y9843
X843Y8843
X843Y7843
X843Y6843
X843Y5843
X843Y4843
X843Y3843
X843Y2843
X843Y1843
X39843Y9843
T05
X42693Y7928
X42693Y2758
T06
X38843Y5343
X8843Y5343
M30
